SplineFontDB: 3.2
FontName: UnaNota
FullName: Una Nota
FamilyName: Una
Weight: Regular
Copyright: bruh, I threw this together in like three hours just fucking take it
UComments: "2021-4-18: Created with FontForge (http://fontforge.org)"
Version: 2021.04.18
ItalicAngle: 0
UnderlinePosition: -100
UnderlineWidth: 50
Ascent: 800
Descent: 200
InvalidEm: 0
LayerCount: 2
Layer: 0 0 "Back" 1
Layer: 1 0 "Fore" 0
XUID: [1021 329 -278927798 17903]
StyleMap: 0x0000
FSType: 0
OS2Version: 0
OS2_WeightWidthSlopeOnly: 0
OS2_UseTypoMetrics: 1
CreationTime: 1618738522
ModificationTime: 1618741997
OS2TypoAscent: 0
OS2TypoAOffset: 1
OS2TypoDescent: 0
OS2TypoDOffset: 1
OS2TypoLinegap: 90
OS2WinAscent: 0
OS2WinAOffset: 1
OS2WinDescent: 0
OS2WinDOffset: 1
HheadAscent: 0
HheadAOffset: 1
HheadDescent: 0
HheadDOffset: 1
Lookup: 258 0 0 "'kern' Horizontal Kerning in Latin lookup 0" { "'kern' Horizontal Kerning in Latin lookup 0-1" [150,15,0] } ['kern' ('DFLT' <'dflt' > 'latn' <'dflt' > ) ]
MarkAttachClasses: 1
DEI: 91125
KernClass2: 4 4 "'kern' Horizontal Kerning in Latin lookup 0-1"
 1 F
 1 f
 40 parenleft bracketleft bracketright g j q
 48 colon semicolon underscore m n p r s u v w x y z
 11 a c e g o q
 1 j
 0 {} 0 {} 0 {} 0 {} 0 {} -240 {} -300 {} -25 {} 0 {} -40 {} -130 {} 0 {} 0 {} 0 {} 0 {} 180 {}
Encoding: ISO8859-1
UnicodeInterp: none
NameList: AGL For New Fonts
DisplaySize: -48
AntiAlias: 1
FitToEm: 0
WinInfo: 0 28 10
BeginPrivate: 0
EndPrivate
TeXData: 1 0 0 346030 173015 115343 492831 1048576 115343 783286 444596 497025 792723 393216 433062 380633 303038 157286 324010 404750 52429 2506097 1059062 262144
BeginChars: 256 96

StartChar: exclam
Encoding: 33 33 0
Width: 204
Flags: W
VStem: 26 24<493.88 624.855 710.004 720.118> 160 23<546.193 570 617.125 672.811>
LayerCount: 2
Fore
SplineSet
183 624 m 1
 183 307 l 2
 183 288 179 273 156 273 c 2
 152 273 l 2
 122 276 91 274 61 279 c 0
 51 280 36 296 36 306 c 0
 31 411 28 517 26 623 c 2
 26 634 l 2
 26 657 28 680 29 703 c 0
 29 709 26 715 25 721 c 0
 23 729 18 739 21 743 c 0
 25 749 36 751 43 750 c 0
 82 746 120 742 158 736 c 0
 165 735 175 723 176 715 c 0
 177 700 177 685 177 670 c 2
 177 624 l 1
 179 624 181 624 183 624 c 1
147 689 m 1
 143 693 139 698 135 702 c 1
 107 676 79 651 52 625 c 0
 49 622 50 613 50 607 c 0
 51 576 52 546 53 515 c 0
 54 508 56 500 58 492 c 1
 64 498 72 503 76 510 c 0
 81 517 82 526 85 533 c 1
 75 534 72 538 72 541 c 0
 72 546 78 551 81 556 c 0
 87 568 95 579 102 590 c 0
 105 596 106 603 108 609 c 1
 102 607 96 605 89 602 c 0
 82 600 74 597 67 595 c 1
 69 603 70 612 74 619 c 0
 79 627 86 634 94 641 c 0
 111 657 129 673 147 689 c 1
124 591 m 1
 143 598 160 632 160 656 c 0
 160 663 158 669 155 673 c 0
 153 675 148 677 146 675 c 0
 130 662 113 649 97 635 c 1
 99 634 100 632 102 631 c 0
 113 634 125 637 136 640 c 1
 132 624 129 608 124 591 c 1
54 404 m 1
 58 389 61 383 63 377 c 1
 68 380 74 383 78 387 c 0
 86 394 95 402 101 411 c 0
 109 422 115 433 121 444 c 1
 110 439 99 434 89 428 c 0
 77 420 65 411 54 404 c 1
161 368 m 1
 156 382 154 388 152 394 c 1
 147 390 142 387 138 382 c 0
 128 371 118 359 109 346 c 0
 103 338 99 329 95 321 c 1
 103 325 113 329 121 335 c 0
 135 345 148 357 161 368 c 1
90 509 m 1
 97 502 l 1
 115 517 135 530 153 546 c 0
 157 550 155 562 155 570 c 1
 152 570 146 571 144 569 c 0
 126 549 108 529 90 509 c 1
158 492 m 1
 156 503 155 507 154 511 c 1
 150 510 145 509 142 506 c 0
 130 495 118 483 107 470 c 0
 105 468 107 462 107 458 c 1
 125 469 143 481 158 492 c 1
92 385 m 1
 94 384 95 382 97 381 c 0
 115 395 134 408 152 423 c 0
 156 427 155 436 156 443 c 1
 152 442 147 444 145 441 c 0
 127 423 109 404 92 385 c 1
87 681 m 1
 100 688 109 693 117 699 c 0
 123 703 128 709 133 714 c 1
 130 715 126 717 124 717 c 0
 114 715 104 714 97 709 c 0
 91 704 91 694 87 681 c 1
97 349 m 1
 91 352 87 354 86 354 c 0
 77 345 68 335 59 325 c 1
 59 325 65 319 68 315 c 1
 77 326 86 336 97 349 c 1
69 686 m 1
 64 690 61 693 58 695 c 1
 54 689 49 684 46 678 c 0
 45 675 50 670 51 666 c 1
 57 672 62 678 69 686 c 1
85 464 m 1
 82 467 79 469 77 472 c 1
 71 464 65 457 59 449 c 0
 58 449 61 445 63 443 c 1
 70 450 78 457 85 464 c 1
75 714 m 0
 75 716 74 719 74 722 c 1
 65 721 56 719 47 717 c 0
 47 715 48 710 49 710 c 0
 57 711 66 712 75 714 c 0
116 100 m 2
 66 101 41 124 41 170 c 2
 41 180 l 2
 44 209 87 244 122 244 c 0
 127 244 131 243 135 242 c 0
 164 234 180 210 184 179 c 0
 185 175 185 172 185 168 c 0
 185 130 156 100 118 100 c 2
 116 100 l 2
118 132 m 1
 143 136 165 143 165 171 c 0
 165 175 162 179 160 182 c 0
 160 183 154 182 152 180 c 0
 141 164 129 148 118 132 c 1
110 206 m 1
 107 209 103 212 100 215 c 1
 88 202 76 190 65 176 c 0
 64 174 67 167 68 163 c 1
 72 164 77 165 80 169 c 0
 91 181 100 193 110 206 c 1
92 123 m 1
 100 134 107 142 113 150 c 1
 113 150 109 155 108 155 c 0
 97 149 86 143 75 137 c 1
 80 134 84 130 92 123 c 1
116 189 m 1
 118 187 120 184 122 182 c 0
 130 189 139 196 147 202 c 0
 145 205 140 210 140 209 c 0
 132 203 124 196 116 189 c 1
EndSplineSet
Validated: 1
EndChar

StartChar: quotedbl
Encoding: 34 34 1
Width: 384
Flags: W
HStem: 580 30<77.4507 124.769 259.097 269.766> 725 25<124.354 160.812>
VStem: 147 42<638.207 655.723>
LayerCount: 2
Fore
SplineSet
76 745 m 0
 103 747 130 748 158 750 c 2
 162 750 l 2
 180 750 189 740 189 724 c 0
 189 722 189 720 189 718 c 0
 185 691 176 664 168 638 c 0
 163 624 156 612 150 599 c 0
 148 594 146 589 142 586 c 0
 136 582 128 580 119 580 c 0
 93 580 62 596 54 617 c 0
 45 644 35 671 25 697 c 0
 22 705 20 713 20 719 c 0
 20 736 32 745 55 745 c 0
 56 745 57 745 58 745 c 0
 64 745 70 745 76 745 c 0
119 700 m 1
 127 702 132 703 137 704 c 1
 133 691 128 678 123 665 c 1
 141 677 155 693 168 710 c 0
 169 712 164 723 161 724 c 0
 157 725 153 725 149 725 c 0
 136 725 124 719 119 700 c 1
40 713 m 1
 46 703 50 696 54 689 c 1
 59 696 65 702 67 710 c 0
 68 712 60 720 54 722 c 0
 52 723 46 717 40 713 c 1
123 629 m 1
 105 629 95 629 85 628 c 0
 83 628 80 624 77 622 c 1
 85 618 92 610 99 610 c 0
 105 610 111 619 123 629 c 1
143 656 m 1
 135 642 128 631 121 620 c 0
 122 619 126 616 126 617 c 0
 133 627 140 638 147 649 c 0
 147 650 146 650 143 656 c 1
207 679 m 1
 211 734 215 737 259 737 c 0
 284 737 309 741 335 741 c 0
 336 741 337 741 338 741 c 0
 354 741 364 734 364 719 c 0
 364 716 363 712 362 707 c 0
 353 675 346 643 334 612 c 0
 324 585 299 577 273 577 c 2
 268 577 l 2
 242 578 226 590 221 617 c 0
 218 642 210 665 207 679 c 1
296 722 m 1
 283 707 269 690 255 672 c 0
 254 671 256 668 256 666 c 1
 260 667 264 667 267 669 c 0
 281 681 295 693 309 705 c 0
 313 708 315 713 317 717 c 1
 313 718 309 719 296 722 c 1
236 631 m 1
 246 620 252 612 259 605 c 0
 261 603 268 605 272 607 c 0
 273 607 272 612 271 615 c 0
 270 625 270 636 268 646 c 0
 268 649 265 653 263 656 c 1
 255 649 247 641 236 631 c 1
345 708 m 1
 341 711 338 714 334 718 c 1
 320 699 305 680 291 661 c 0
 293 659 295 658 298 656 c 0
 313 673 329 691 345 708 c 1
246 721 m 1
 238 710 231 703 229 695 c 0
 228 690 234 682 237 676 c 1
 243 686 250 697 256 707 c 0
 257 709 252 713 246 721 c 1
325 633 m 1
 319 641 317 643 314 646 c 1
 307 635 299 625 292 613 c 1
 300 607 l 1
 308 615 316 624 325 633 c 1
EndSplineSet
Validated: 1
EndChar

StartChar: numbersign
Encoding: 35 35 2
Width: 761
Flags: W
HStem: 117 28<77 97> 272 27<529.353 603.297> 284 23<250.23 381.758> 298 19<40.625 109.458> 556 24<646.727 736.058> 568 24<362.422 497.506> 574 23<130.8 223.897> 720 30<645.005 676.58>
VStem: 224 31<552.479 573.771> 437 69<127.141 155.344> 516 28<694.327 722.689> 534 28<600.623 678.688>
LayerCount: 2
Fore
SplineSet
309 284 m 0xa1e0
 299 284 290 284 282 284 c 0xa1e0
 233 284 231 276 205 218 c 0
 199 207 195 197 195 187 c 0
 195 176 200 166 213 156 c 0
 220 150 225 134 222 128 c 0
 219 120 205 113 195 112 c 0
 174 112 152 117 130 117 c 0
 106 117 82 111 57 111 c 0
 46 111 35 119 25 124 c 0
 22 125 20 132 20 133 c 0
 27 137 34 141 41 146 c 0
 49 152 59 158 64 167 c 0
 79 198 92 230 104 262 c 0
 108 272 110 280 110 285 c 0
 110 295 101 297 80 298 c 0
 65 298 50 305 35 309 c 1
 50 312 65 317 80 317 c 0
 127 317 131 321 152 377 c 0
 172 432 195 486 217 540 c 0
 220 548 224 556 224 562 c 0
 224 569 218 574 204 574 c 0
 202 574 200 574 197 574 c 0
 193 574 189 573 185 573 c 0
 172 573 158 575 145 577 c 0
 138 578 132 585 126 589 c 1
 132 592 138 597 144 597 c 0
 154 597 164 598 174 598 c 0
 184 598 193 597 203 597 c 0
 205 597 207 597 209 597 c 0x93e0
 242 597 250 605 252 643 c 0
 252 648 251 655 253 657 c 0
 264 666 268 672 268 678 c 0
 268 690 252 698 241 708 c 0
 233 716 229 728 223 738 c 1
 235 742 248 749 259 749 c 0
 260 749 260 749 261 749 c 0
 283 748 305 740 327 737 c 0
 350 735 374 736 397 735 c 0
 404 735 410 734 417 733 c 1
 416 726 416 719 414 713 c 0
 408 699 401 685 396 671 c 0
 394 667 398 661 398 655 c 0
 397 652 395 647 393 644 c 0
 383 630 372 615 362 601 c 1
 371 598 380 593 390 592 c 0
 427 590 464 590 501 589 c 0
 505 589 510 590 513 592 c 0
 525 601 534 636 534 661 c 0x85d0
 534 670 533 678 530 683 c 0
 521 699 516 711 516 721 c 0
 516 738 531 745 563 748 c 0
 582 749 601 750 620 750 c 0
 646 750 671 749 697 749 c 0
 700 748 707 736 705 731 c 0
 700 716 692 702 686 687 c 0
 683 679 676 671 676 663 c 0
 676 657 680 652 692 648 c 0
 693 648 694 641 692 640 c 0
 688 637 683 634 678 633 c 0
 673 631 664 633 663 630 c 0
 656 615 651 599 646 584 c 1
 650 583 655 581 659 580 c 0
 681 580 703 580 725 578 c 0
 731 577 736 567 742 561 c 1
 736 558 730 552 723 552 c 0
 705 552 687 552 669 555 c 0
 664 556 660 556 656 556 c 0
 635 556 622 544 613 521 c 0
 588 456 560 391 533 326 c 0
 530 320 529 315 529 311 c 0
 529 302 536 299 550 299 c 0
 556 299 563 299 570 299 c 0xc9e0
 577 299 584 299 590 298 c 0x91e0
 595 297 599 289 604 285 c 1
 599 281 594 276 589 272 c 1
 587 272 l 2xc1e0
 572 272 552 276 537 276 c 0
 528 276 520 274 517 270 c 0
 495 243 485 205 473 171 c 0
 471 166 485 156 491 148 c 0
 497 140 506 130 506 122 c 0
 506 112 489 103 480 103 c 0
 428 100 377 100 325 100 c 0
 318 100 311 110 304 115 c 1
 310 119 316 123 321 127 c 0
 325 130 330 134 332 138 c 0
 349 181 367 224 383 267 c 0
 384 271 377 283 373 283 c 0
 363 284 352 284 341 284 c 0
 330 284 319 284 309 284 c 0xa1e0
401 569 m 0
 396 568 391 568 386 568 c 0
 382 568 377 568 373 568 c 0xa5c0
 359 568 346 566 339 546 c 0
 311 474 282 403 252 332 c 0
 250 328 249 324 249 321 c 0
 249 314 254 312 265 311 c 0
 304 310 342 307 381 307 c 0
 389 307 400 313 403 320 c 0
 434 394 464 469 495 543 c 0
 497 547 498 550 498 553 c 0
 498 561 491 562 482 563 c 0
 454 565 426 567 401 569 c 0
541 434 m 0
 544 435 547 436 550 437 c 0
 545 474 539 510 533 547 c 0
 532 550 524 552 519 554 c 1
 514 535 502 515 502 497 c 0
 502 495 503 492 503 490 c 0
 507 470 527 452 541 434 c 0
580 635 m 1
 587 633 598 629 614 625 c 1
 604 646 596 666 587 685 c 0
 586 687 582 688 579 689 c 1
 573 667 562 645 562 623 c 0x85d0
 562 605 580 591 593 577 c 0
 597 572 606 571 613 568 c 1
 612 577 615 589 611 596 c 0
 602 611 590 623 580 635 c 1
196 463 m 1
 208 442 215 428 224 417 c 0
 229 411 232 394 239 394 c 0
 243 394 248 399 254 412 c 0
 257 419 268 429 266 432 c 0
 257 448 247 465 233 477 c 1
 233 477 232 478 231 478 c 0
 225 478 209 468 196 463 c 1
272 481 m 1
 279 481 290 479 293 482 c 0
 297 487 297 498 293 503 c 0
 283 517 270 529 257 540 c 0
 253 543 240 544 238 541 c 0
 234 534 230 522 233 516 c 0
 244 496 258 478 275 454 c 1
 274 468 273 476 272 481 c 1
130 276 m 1
 140 261 152 245 164 229 c 0
 167 225 172 222 176 219 c 1
 179 226 184 233 183 239 c 0
 180 255 174 272 168 287 c 0
 164 298 157 308 151 318 c 1
 145 308 139 297 133 286 c 0
 132 284 132 282 130 276 c 1
227 353 m 0
 222 371 219 388 212 405 c 0
 209 412 198 417 191 422 c 1
 188 413 182 401 182 392 c 0
 182 390 183 389 183 388 c 0
 188 373 201 360 211 346 c 0
 213 343 218 342 221 340 c 1
 223 344 225 348 227 353 c 0
306 544 m 0
 297 563 289 582 279 600 c 0
 277 604 272 605 268 608 c 1
 265 604 262 601 260 597 c 0x83c0
 257 591 255 585 255 580 c 0x89c0
 255 560 277 549 288 534 c 0
 290 531 298 529 300 530 c 0
 303 532 304 539 306 544 c 0
328 591 m 0
 322 610 317 626 310 642 c 0
 307 648 299 653 293 658 c 1
 290 648 281 638 284 630 c 0
 289 614 300 600 309 586 c 0
 311 582 316 581 320 578 c 1
 323 582 326 587 328 591 c 0
639 653 m 1
 633 670 629 691 620 710 c 0
 617 716 603 717 594 720 c 1
 595 713 594 705 597 699 c 0
 605 681 614 663 623 646 c 0
 626 641 631 638 635 634 c 1
 636 639 637 644 639 653 c 1
422 336 m 1
 434 317 445 299 457 281 c 0
 458 279 463 280 466 279 c 1
 466 282 468 286 467 289 c 0
 462 307 456 324 450 341 c 0
 447 349 441 356 436 363 c 1
 432 355 428 347 422 336 c 1
158 352 m 1
 169 329 179 307 191 285 c 0
 192 282 198 281 202 280 c 0
 203 280 205 283 205 284 c 0xa1c0
 196 310 188 336 178 362 c 0
 177 364 170 366 167 365 c 0
 164 363 162 358 158 352 c 1
383 217 m 1
 394 205 406 192 418 180 c 0
 420 178 424 179 427 179 c 1
 424 191 422 203 419 215 c 0
 418 219 416 224 414 227 c 0
 409 234 403 240 397 246 c 1
 393 238 389 230 383 217 c 1
568 516 m 0
 571 517 574 518 577 519 c 0
 569 544 561 570 552 595 c 0
 551 599 546 601 542 604 c 1
 539 598 532 590 534 586 c 0x81d0
 544 562 556 539 568 516 c 0
102 191 m 0
 100 189 98 186 96 184 c 1
 104 177 112 170 120 164 c 0
 125 160 131 159 136 155 c 0
 140 152 144 147 147 143 c 1
 151 147 157 151 159 156 c 0
 160 160 157 167 153 169 c 0
 136 177 119 184 102 191 c 0
522 442 m 1
 518 440 513 439 509 437 c 1
 515 421 521 406 528 390 c 0
 529 387 532 385 535 383 c 1
 537 386 543 390 542 392 c 0
 536 409 529 425 522 442 c 1
424 296 m 1
 417 285 404 271 404 268 c 0
 404 259 432 245 444 237 c 1
 437 259 431 276 424 296 c 1
315 651 m 1
 324 634 332 619 340 604 c 1
 343 606 348 610 348 610 c 1
 340 624 332 637 323 651 c 1
 323 651 322 652 315 651 c 1
152 207 m 1
 139 225 131 236 122 248 c 1
 119 243 112 234 113 233 c 0
 121 223 131 213 141 204 c 0
 142 203 147 206 152 207 c 1
677 712 m 1
 668 715 662 720 656 720 c 0
 652 720 645 711 645 711 c 1
 650 703 656 696 661 689 c 1
 666 695 670 702 677 712 c 1
480 314 m 0
 477 313 475 311 472 310 c 1
 478 295 483 281 489 266 c 1
 493 269 500 273 500 274 c 0
 494 288 487 301 480 314 c 0
585 568 m 1x85c0
 575 563 l 1
 581 550 587 538 593 525 c 1
 596 529 602 533 601 535 c 0
 597 546 590 557 585 568 c 1x85c0
563 457 m 1
 567 458 571 458 575 459 c 1
 570 475 565 490 560 506 c 1
 557 505 553 504 550 503 c 1
 555 488 558 472 563 457 c 1
396 140 m 0
 398 141 401 143 403 144 c 1
 397 156 390 168 383 180 c 0
 381 183 377 183 374 185 c 1
 373 181 370 176 372 174 c 0
 379 163 388 151 396 140 c 0
423 156 m 0
 420 154 417 153 414 151 c 0
 418 143 423 135 427 127 c 1
 430 130 437 134 437 135 c 0
 433 142 428 149 423 156 c 0
363 151 m 1
 357 143 353 137 349 132 c 1
 353 129 358 124 360 125 c 0
 364 127 369 132 370 137 c 0
 371 140 367 144 363 151 c 1
554 694 m 1
 558 704 561 711 562 717 c 0x81d0
 562 719 554 724 553 723 c 0
 549 719 544 715 544 710 c 0x81e0
 544 706 549 702 554 694 c 1
315 710 m 1
 311 706 307 703 304 700 c 1
 308 697 314 691 317 692 c 0
 322 693 326 698 331 702 c 1
 326 704 322 707 315 710 c 1
510 359 m 1
 507 357 504 357 501 355 c 0
 505 347 511 337 515 329 c 1
 517 330 521 333 521 333 c 1
 518 342 514 350 510 359 c 1
467 221 m 0
 469 222 471 223 473 224 c 1
 467 235 463 245 457 256 c 0
 454 255 452 253 449 252 c 1
 455 242 461 231 467 221 c 0
97 145 m 1
 97 148 98 150 98 153 c 0
 92 154 85 156 79 156 c 0
 78 156 78 151 77 148 c 1
 84 147 90 146 97 145 c 1
468 440 m 1
 458 425 448 411 448 395 c 0
 448 385 452 375 463 364 c 0
 474 353 483 340 493 327 c 1
 491 345 491 362 487 379 c 0
 482 400 475 420 468 440 c 1
468 440 m 1
 481 430 493 421 504 413 c 1
 503 420 501 432 497 442 c 0
 493 451 485 459 479 467 c 1
 475 458 472 449 468 440 c 1
EndSplineSet
Validated: 5
EndChar

StartChar: dollar
Encoding: 36 36 3
Width: 316
Flags: W
HStem: 96 26<231.048 250.513> 112 4<131 139> 455 20G<277.5 283.5>
VStem: 20 21<109.322 143.582> 36 56<332.013 445.366> 149 15<36.125 69.877 117.688 258.686 314.109 411.475> 232 64<149.787 178 181 232.853 428 450> 232 32<169.282 187.001>
LayerCount: 2
Fore
SplineSet
148 191 m 1x76
 148 223 l 1
 148 231 l 2
 148 253 146 272 114 284 c 0
 78 297 47 325 37 368 c 0
 36 372 36 376 36 381 c 0
 36 410 51 450 75 458 c 0
 122 474 142 503 142 544 c 0
 142 552 141 560 140 569 c 0
 139 574 146 580 149 585 c 1
 152 580 158 575 158 570 c 0
 158 552 157 534 157 516 c 2
 157 503 l 2
 157 498 162 492 167 490 c 0
 192 480 217 470 243 462 c 0
 249 460 258 463 262 467 c 0
 269 472 275 475 280 475 c 0
 287 475 292 469 294 456 c 0
 297 435 297 413 297 391 c 0
 297 387 290 380 285 379 c 0
 282 378 275 382 272 386 c 0
 266 395 261 406 255 415 c 0
 252 419 246 422 241 425 c 0
 239 427 234 428 234 430 c 0
 228 450 195 470 173 470 c 0
 169 470 166 469 163 468 c 0
 160 467 158 462 158 458 c 0
 159 406 161 353 163 301 c 0
 163 296 168 289 172 287 c 0
 208 268 246 252 282 233 c 0
 287 230 288 218 291 210 c 0
 295 199 296 188 296 178 c 0
 296 157 288 138 271 121 c 0
 265 116 260 109 255 103 c 0
 252 100 249 96 246 96 c 0
 241 96 236 96 231 96 c 2
 205 96 l 2xae
 197 96 189 96 181 95 c 0
 174 94 167 85 163 78 c 0
 160 72 164 64 163 56 c 0
 161 48 158 40 155 32 c 1
 151 40 144 47 143 55 c 0
 139 100 139 100 94 112 c 0x6e
 90 113 85 111 81 108 c 0
 78 107 77 103 74 102 c 0
 59 93 44 85 29 76 c 1
 28 92 26 107 24 122 c 0xae
 23 137 20 151 20 166 c 0
 20 171 24 177 27 183 c 1
 32 180 39 178 44 175 c 0
 68 158 90 138 116 124 c 0
 125 119 131 116 136 116 c 0
 145 116 148 125 149 143 c 0
 149 159 149 175 149 191 c 1
 148 191 l 1x76
165 186 m 1
 164 186 l 1
 164 176 164 166 164 156 c 0
 164 145 164 135 165 125 c 0
 165 121 175 112 177 113 c 0
 187 118 195 127 205 132 c 0
 222 140 232 151 232 168 c 0
 232 172 231 176 230 181 c 0
 227 198 221 214 217 231 c 0
 212 253 192 256 175 261 c 0
 173 261 166 254 166 250 c 0
 165 229 165 207 165 186 c 1
143 368 m 1
 144 368 l 1
 142 398 141 429 139 459 c 0
 139 462 135 465 134 468 c 1
 126 461 115 457 111 449 c 0
 98 428 92 408 92 389 c 0
 92 365 102 342 126 319 c 0
 130 315 136 315 141 312 c 1
 142 317 145 322 145 327 c 0
 145 341 143 354 143 368 c 1
53 387 m 1
 57 379 60 374 63 369 c 1
 67 376 73 383 74 390 c 0
 75 395 70 401 68 406 c 1
 63 400 58 394 53 387 c 1
43 144 m 1
 42 135 40 131 41 128 c 0x34
 43 121 47 115 50 109 c 1
 56 114 61 119 66 124 c 1
 60 130 54 135 43 144 c 1
259 149 m 1
 249 140 240 132 231 124 c 1
 232 123 234 122 235 122 c 0xa4
 243 129 252 136 261 143 c 1
 261 143 260 144 259 149 c 1
272 424 m 1
 274 425 277 425 279 426 c 0
 277 434 276 442 274 450 c 1
 271 449 266 447 266 446 c 0
 267 438 270 431 272 424 c 1
249 169 m 0
 251 167 253 166 255 165 c 0
 260 173 265 180 270 187 c 1
 268 187 264 189 264 188 c 0x25
 259 182 254 175 249 169 c 0
EndSplineSet
Validated: 1
EndChar

StartChar: percent
Encoding: 37 37 4
Width: 587
Flags: W
HStem: 101 41<200 208 404.542 477.543> 327 45<403.295 487.861> 466 46<105.833 175.619> 697 26<468.045 518.81> 716 34<126.165 171.596>
VStem: 20 74<544.89 620.458> 251 22<590.713 623.174> 345 40<667.142 708.86> 543 24<180.919 245.408>
LayerCount: 2
Fore
SplineSet
506 697 m 2xf780
 499 697 l 2
 463 697 461 669 453 651 c 0
 392 514 333 375 273 237 c 0
 263 216 253 194 246 171 c 0
 244 164 252 152 255 143 c 0
 260 131 264 120 269 108 c 1
 257 105 246 100 234 100 c 0
 200 101 165 104 130 106 c 0
 116 107 111 113 111 121 c 0
 111 125 112 129 114 134 c 0
 176 276 239 418 301 560 c 0
 318 597 332 635 345 674 c 0
 348 680 342 689 338 696 c 0
 333 705 325 713 318 722 c 1
 330 728 341 737 353 740 c 0
 365 743 377 744 389 744 c 0
 431 744 471 730 512 723 c 0
 515 722 521 709 519 707 c 0
 515 701 507 698 506 697 c 2xf780
423 603 m 1
 420 609 418 615 416 621 c 0
 402 631 387 642 372 652 c 1
 368 647 361 638 362 636 c 0
 374 623 386 609 401 598 c 0
 404 595 415 601 423 603 c 1
303 484 m 1
 293 476 288 473 286 469 c 0
 285 465 286 458 289 456 c 0
 301 445 314 435 328 425 c 0
 329 424 334 428 337 430 c 0
 326 447 315 464 303 484 c 1
395 709 m 1
 391 706 387 704 387 702 c 0
 386 694 385 686 385 679 c 0
 385 675 385 670 387 667 c 0
 392 659 406 656 417 651 c 1
 416 659 417 668 414 675 c 0
 409 687 402 697 395 709 c 1
278 298 m 1
 271 300 264 301 258 305 c 0
 249 311 247 328 235 328 c 0
 232 328 228 327 223 324 c 1
 230 313 236 301 245 291 c 0
 252 283 259 279 264 279 c 0
 270 279 275 285 278 298 c 1
251 370 m 1
 245 366 241 365 240 362 c 0
 239 360 240 355 241 353 c 0
 252 341 264 329 275 318 c 0
 278 315 284 313 285 314 c 0
 287 317 291 324 289 325 c 0
 277 341 264 355 251 370 c 1
177 163 m 0
 179 165 180 167 182 169 c 1
 184 165 188 162 189 158 c 0
 190 151 188 143 190 137 c 0
 191 135 202 136 208 136 c 1
 203 147 199 157 194 168 c 0
 192 171 189 174 187 176 c 0
 180 180 173 184 166 188 c 1
 164 183 159 175 161 171 c 0
 163 167 172 165 177 163 c 0
310 375 m 1
 313 380 318 384 317 387 c 0
 316 396 313 406 309 415 c 0
 308 417 301 417 296 418 c 1
 298 410 299 402 301 394 c 0
 303 388 306 382 310 375 c 1
379 590 m 1
 376 589 372 588 369 587 c 0
 372 573 376 559 380 546 c 0
 383 546 387 547 390 548 c 0
 387 562 383 576 379 590 c 1
379 530 m 1
 370 533 364 536 357 537 c 0
 355 537 350 530 351 528 c 0
 354 521 359 515 364 508 c 1
 368 514 372 521 379 530 c 1
363 592 m 1
 358 599 355 605 351 611 c 1
 348 607 341 602 342 598 c 0
 344 592 350 586 354 580 c 1
 357 584 359 587 363 592 c 1
201 258 m 0
 198 257 195 255 192 254 c 1
 196 246 200 239 204 231 c 0
 205 231 209 233 211 233 c 1
 207 242 204 250 201 258 c 0
225 258 m 1
 227 260 229 262 232 264 c 1
 226 271 220 278 214 284 c 0
 213 285 209 283 207 282 c 1
 213 274 219 266 225 258 c 1
273 602 m 1
 273 600 l 2
 273 534 219 466 130 466 c 2
 128 466 l 2
 75 467 23 527 20 590 c 2
 20 595 l 2
 20 673 81 750 140 750 c 0
 142 750 144 750 146 750 c 0xef80
 217 743 267 696 273 602 c 1
197 584 m 1
 190 624 185 659 176 692 c 0
 171 708 162 716 152 716 c 0
 143 716 134 710 125 699 c 0
 103 668 94 635 94 600 c 0
 94 581 96 563 101 544 c 0
 104 530 122 514 136 512 c 2
 140 512 l 2
 152 512 168 522 176 533 c 0
 187 548 191 569 197 584 c 1
198 514 m 0
 200 513 201 512 203 510 c 1
 213 523 224 536 233 549 c 0
 236 554 235 560 237 566 c 1
 230 563 220 562 217 557 c 0
 209 543 204 529 198 514 c 0
204 647 m 1
 218 641 225 637 232 636 c 0
 235 636 242 643 241 644 c 0
 239 652 234 659 230 666 c 1
 223 661 217 656 204 647 c 1
219 585 m 1
 240 585 251 591 251 603 c 0
 251 609 248 616 244 624 c 1
 236 611 228 599 219 585 c 1
80 644 m 1
 74 649 69 654 69 653 c 0
 62 646 55 638 48 630 c 1
 48 630 52 626 53 624 c 1
 61 630 69 636 80 644 c 1
307 225 m 1
 319 251 323 273 336 288 c 0
 357 313 382 336 408 355 c 0
 424 367 442 372 459 372 c 0
 485 372 510 360 529 338 c 0
 555 308 567 271 567 235 c 0
 567 195 552 155 520 124 c 0
 505 109 473 101 440 101 c 0
 406 101 373 109 360 127 c 0
 338 156 324 192 307 225 c 1
497 232 m 0
 499 234 501 236 503 238 c 0
 485 267 468 297 448 324 c 0
 446 326 442 327 436 327 c 0
 429 327 420 325 416 322 c 0
 397 305 387 268 387 232 c 0
 387 205 392 178 404 162 c 0
 414 148 428 142 442 142 c 0
 458 142 473 150 480 167 c 0
 488 188 492 210 497 232 c 0
499 143 m 1
 526 163 543 196 543 223 c 0
 543 232 542 239 538 246 c 1
 525 213 513 181 499 143 c 1
486 344 m 1
 483 341 480 339 477 336 c 1
 486 321 494 305 504 290 c 0
 507 285 513 282 518 277 c 1
 520 284 527 294 525 297 c 0
 513 314 499 329 486 344 c 1
339 233 m 1
 342 232 345 230 348 229 c 0
 353 241 358 253 363 265 c 1
 361 265 357 267 357 267 c 1
 351 256 345 244 339 233 c 1
EndSplineSet
Validated: 1
EndChar

StartChar: ampersand
Encoding: 38 38 5
Width: 628
Flags: W
HStem: 100 30<150.207 220.05> 103 20<581.579 607.527> 460 20G<398 446.5> 716 34<152.135 262.567>
VStem: 20 31<533 629.954> 30 43<194.063 224.671> 293 30<540.491 560.857> 377 22<577.003 601.763> 464 30<401.149 427.226>
LayerCount: 2
Fore
SplineSet
30 243 m 2xb780
 33 305 40 366 103 402 c 0
 105 403 100 425 96 426 c 0
 42 442 20 504 20 562 c 0
 20 604 31 644 49 666 c 0
 95 722 148 750 212 750 c 0
 231 750 250 748 271 743 c 0
 338 727 391 670 398 601 c 0
 398 597 399 594 399 590 c 0
 399 535 357 473 301 449 c 0
 277 439 252 430 228 420 c 0
 223 418 218 413 213 409 c 1
 217 406 220 401 224 398 c 0
 279 368 318 320 358 274 c 0
 368 262 377 253 387 253 c 0
 394 253 401 258 409 271 c 0
 415 281 421 290 427 300 c 1
 418 302 408 305 398 307 c 0
 361 313 340 345 340 384 c 0
 340 400 344 417 352 434 c 0
 365 461 383 478 413 480 c 2
 423 480 l 2
 470 480 494 448 494 407 c 0
 494 398 492 389 490 379 c 0
 477 330 442 286 417 239 c 0
 414 233 414 221 418 217 c 0
 453 179 497 157 546 145 c 0
 565 141 583 131 600 123 c 0
 604 121 606 115 609 111 c 1
 604 108 599 102 594 103 c 0
 541 108 488 111 436 123 c 0x7b80
 405 129 378 150 349 162 c 0
 340 166 327 165 319 160 c 0
 267 129 214 100 155 100 c 0
 135 100 114 103 92 111 c 0
 68 120 32 177 30 215 c 2
 30 243 l 2xb780
111 530 m 1
 112 530 114 529 115 529 c 0
 118 504 119 479 124 455 c 0
 126 446 138 432 143 432 c 2
 144 432 l 1
 173 438 202 444 228 457 c 0
 271 479 293 522 293 568 c 0
 293 569 293 570 293 571 c 0
 291 632 268 685 205 710 c 0
 196 714 187 716 180 716 c 0
 163 716 152 706 146 685 c 0
 132 634 122 582 111 530 c 1
110 265 m 1
 122 225 131 194 140 164 c 0
 147 143 161 130 179 130 c 0xb380
 184 130 189 131 194 133 c 0
 233 149 269 170 307 189 c 0
 309 191 311 200 309 204 c 0
 273 265 235 326 176 369 c 0
 170 373 153 370 151 365 c 0
 135 331 122 295 110 265 c 1
115 676 m 1
 115 676 113 680 112 683 c 1
 109 680 105 678 103 674 c 0
 95 666 88 657 80 648 c 0
 71 640 61 632 53 624 c 0
 51 621 51 616 51 612 c 0x3b80
 51 611 56 610 58 610 c 0
 81 612 113 648 115 676 c 1
403 370 m 0
 405 367 406 365 407 363 c 1
 428 376 449 387 468 401 c 0
 472 404 466 418 464 427 c 0
 464 428 458 429 457 428 c 0
 439 409 421 389 403 370 c 0
323 539 m 1
 346 558 362 572 377 586 c 0
 379 588 375 597 374 602 c 1
 369 601 362 601 359 598 c 0
 347 586 335 574 324 561 c 0
 322 558 323 552 323 539 c 1
254 719 m 1
 268 699 275 686 285 676 c 0
 290 672 301 672 308 673 c 0
 313 673 318 678 322 681 c 1
 317 687 312 694 306 697 c 0
 292 704 278 710 254 719 c 1
316 629 m 1
 329 640 340 648 351 656 c 1
 346 660 338 668 335 667 c 0
 324 662 314 653 304 646 c 1
 307 641 310 637 316 629 c 1
294 488 m 1
 298 484 303 481 307 478 c 1
 317 494 327 510 336 526 c 0
 333 528 331 530 328 532 c 0
 317 517 305 503 294 488 c 1
106 205 m 1
 104 211 103 216 102 222 c 0
 98 223 90 227 89 225 c 0
 83 218 78 210 73 202 c 0x3780
 73 201 78 194 80 194 c 0
 88 197 97 201 106 205 c 1
94 600 m 0
 93 603 91 605 89 608 c 0
 75 599 61 589 47 580 c 0
 48 577 50 575 52 572 c 0
 66 581 80 591 94 600 c 0
399 380 m 0
 398 382 396 384 395 386 c 1
 385 381 375 375 366 370 c 1
 369 366 372 363 375 359 c 1
 383 366 391 373 399 380 c 0
102 318 m 0
 100 320 97 322 94 324 c 1
 88 315 81 306 74 297 c 1
 77 296 82 293 82 293 c 1
 89 301 96 310 102 318 c 0
380 210 m 1
 373 202 367 197 364 191 c 0
 363 190 372 184 376 180 c 1
 380 186 384 192 387 199 c 0
 387 201 384 204 380 210 c 1
431 337 m 1
 433 336 436 334 438 332 c 1
 445 342 451 351 457 361 c 1
 455 362 453 364 450 365 c 0
 444 356 437 347 431 337 c 1
117 164 m 1
 111 169 108 171 104 174 c 1
 102 169 98 164 97 159 c 0
 97 156 101 153 103 150 c 1
 117 164 l 1
86 353 m 1
 88 352 89 350 91 348 c 0
 102 356 114 365 125 373 c 1
 123 375 122 378 120 380 c 0
 109 371 97 362 86 353 c 1
EndSplineSet
Validated: 1
EndChar

StartChar: quotesingle
Encoding: 39 39 6
Width: 196
Flags: W
HStem: 586 30<72.0967 82.9775> 730 20G<134.5 156>
VStem: 20 157
LayerCount: 2
Fore
SplineSet
20 687 m 0
 23 743 27 746 71 746 c 0
 96 746 122 750 147 750 c 0
 165 750 177 744 177 728 c 0
 177 724 176 721 175 716 c 0
 166 684 158 651 146 620 c 0
 136 593 113 586 86 586 c 0
 84 586 82 586 80 586 c 0
 54 587 38 598 34 626 c 0
 30 650 23 674 20 687 c 0
109 731 m 1
 96 716 81 699 67 681 c 0
 66 680 68 676 69 674 c 0
 72 675 76 676 79 678 c 0
 93 690 108 702 122 714 c 0
 125 717 127 722 130 726 c 1
 126 727 122 728 109 731 c 1
49 639 m 1
 59 628 64 621 72 614 c 0
 74 612 80 615 84 616 c 0
 85 616 84 621 84 624 c 0
 83 634 83 644 81 654 c 0
 80 658 77 661 75 665 c 1
 67 658 60 650 49 639 c 1
158 717 m 1
 154 720 151 723 147 726 c 1
 133 707 117 689 103 670 c 0
 105 668 108 667 110 665 c 1
 126 682 142 700 158 717 c 1
58 730 m 1
 50 719 44 712 42 704 c 0
 41 698 46 691 49 684 c 1
 56 695 63 705 69 716 c 0
 70 717 64 722 58 730 c 1
138 642 m 1
 132 649 129 652 127 655 c 1
 119 644 112 633 105 622 c 1
 113 616 l 1
 121 624 129 632 138 642 c 1
EndSplineSet
Validated: 1
EndChar

StartChar: parenleft
Encoding: 40 40 7
Width: 393
Flags: W
HStem: 220 19<83.1979 131> 372 11<69.383 106.051> 710 31<334.078 371.699> 730 20G<269 291.5>
VStem: 145 24<398.059 465.238>
LayerCount: 2
Fore
SplineSet
21 317 m 0xe8
 21 324 21 330 21 337 c 0
 21 418 42 501 83 574 c 0
 115 632 178 671 222 723 c 0
 240 744 259 750 279 750 c 0xd8
 304 750 329 741 354 741 c 0
 355 741 357 741 358 741 c 0
 363 741 370 730 373 723 c 0
 374 720 369 712 364 710 c 0
 253 660 188 575 174 454 c 0
 171 428 169 402 169 376 c 0
 169 262 200 155 265 56 c 0
 280 33 300 13 316 -9 c 0
 321 -15 326 -25 324 -30 c 0
 322 -36 311 -40 304 -42 c 0
 288 -47 272 -50 258 -50 c 0
 192 -50 151 4 114 52 c 0
 65 115 33 191 21 272 c 0
 20 276 20 281 20 285 c 0
 20 294 21 304 21 317 c 0xe8
83 253 m 1
 83 239 l 1
 157 239 l 1
 156 256 154 273 152 290 c 0
 151 301 148 312 146 323 c 0
 140 353 121 372 94 372 c 0
 88 372 82 371 75 369 c 0
 66 367 59 356 51 349 c 1
 58 345 64 341 72 339 c 0
 82 337 93 338 103 335 c 0
 111 332 117 325 124 320 c 1
 119 314 114 309 109 304 c 0
 106 301 101 299 97 297 c 1
 100 294 103 289 107 287 c 0
 114 283 121 281 128 277 c 0
 133 274 137 270 141 266 c 1
 136 262 130 256 124 255 c 0
 111 253 97 254 83 253 c 1
144 435 m 0
 146 441 148 446 148 450 c 0
 148 464 134 468 116 470 c 0
 110 471 104 481 98 487 c 0
 95 490 92 495 89 495 c 0
 85 495 79 492 78 489 c 0
 77 486 77 478 80 476 c 0
 86 471 95 469 101 464 c 0
 111 456 119 447 129 438 c 1
 120 438 111 439 102 439 c 0
 100 439 97 439 95 439 c 0
 84 437 73 432 62 429 c 1
 71 423 80 417 90 412 c 0
 95 409 103 410 108 407 c 0
 118 401 126 398 132 398 c 0
 142 398 145 407 145 421 c 0
 145 425 144 430 144 435 c 0
144 555 m 1
 141 557 138 560 135 562 c 0
 128 561 122 560 115 559 c 1
 123 550 131 539 141 533 c 0
 146 530 161 531 164 536 c 0
 173 549 178 564 183 579 c 0
 184 582 181 590 178 592 c 0
 174 595 167 594 162 595 c 1
 162 591 163 587 161 583 c 0
 156 574 150 564 144 555 c 1
211 1 m 1
 225 7 238 13 251 19 c 1
 244 28 237 36 230 45 c 1
 219 34 209 22 198 11 c 1
 202 8 205 5 211 1 c 1
133 132 m 0
 133 130 134 126 134 124 c 1
 149 124 163 124 178 125 c 0
 182 125 191 134 190 135 c 0
 186 145 179 153 174 162 c 1
 160 152 147 142 133 132 c 0
131 219 m 1
 116 219 104 220 93 220 c 0
 88 220 82 220 77 219 c 0
 72 218 68 211 64 206 c 1
 71 202 79 192 84 194 c 0
 98 199 111 207 131 219 c 1
143 162 m 1
 135 164 130 167 127 166 c 0
 115 162 103 156 91 151 c 1
 96 145 105 133 106 134 c 0
 118 141 129 150 143 162 c 1
222 74 m 1
 211 82 205 89 203 88 c 0
 189 80 176 71 163 62 c 1
 166 60 170 54 172 55 c 0
 187 60 202 66 222 74 c 1
165 116 m 1
 146 104 136 98 125 91 c 1
 130 85 136 79 141 73 c 1
 151 82 160 90 169 100 c 0
 171 102 167 110 165 116 c 1
112 195 m 0
 112 193 112 191 112 189 c 0
 132 186 152 184 175 181 c 1
 172 187 169 201 165 201 c 0
 147 201 130 197 112 195 c 0
102 523 m 1
 102 521 101 519 101 517 c 0
 114 510 126 501 139 495 c 0
 142 493 150 498 153 501 c 0
 155 503 152 513 150 514 c 0
 134 518 118 520 102 523 c 1
301 707 m 1
 290 712 285 717 281 716 c 0
 274 714 267 710 260 706 c 1
 265 702 270 694 274 694 c 0
 281 695 288 700 301 707 c 1
107 385 m 1
 98 390 94 393 90 393 c 0
 79 394 67 395 56 395 c 0
 55 395 55 389 54 386 c 1
 65 385 77 384 88 383 c 0
 92 383 96 384 107 385 c 1
65 285 m 1
 59 279 53 274 51 269 c 0
 50 266 54 261 56 256 c 1
 64 262 73 266 81 272 c 1
 77 275 73 279 65 285 c 1
EndSplineSet
Validated: 1
EndChar

StartChar: parenright
Encoding: 41 41 8
Width: 351
Flags: W
VStem: 20 312
LayerCount: 2
Fore
SplineSet
332 370 m 1
 324 213 277 94 184 -7 c 0
 166 -27 149 -40 123 -40 c 0
 120 -40 118 -40 115 -40 c 0
 113 -40 112 -40 110 -40 c 0
 96 -40 81 -47 66 -50 c 0
 59 -51 50 -49 45 -45 c 0
 42 -42 42 -30 45 -26 c 0
 127 71 134 193 151 309 c 0
 155 338 158 368 158 398 c 0
 158 446 151 494 132 541 c 0
 124 561 123 580 104 596 c 0
 93 606 98 634 89 648 c 0
 73 673 50 694 31 718 c 0
 26 725 23 734 20 742 c 1
 28 745 36 751 43 750 c 0
 85 741 126 731 168 720 c 0
 175 718 183 712 187 706 c 0
 223 647 266 589 293 526 c 0
 316 471 323 409 332 370 c 1
151 117 m 1
 231 117 289 174 291 246 c 0
 291 250 279 258 277 257 c 0
 259 245 241 232 224 219 c 1
 234 216 241 218 248 220 c 0
 256 222 263 223 271 224 c 1
 267 216 264 207 259 200 c 0
 254 194 246 191 240 186 c 0
 210 163 181 140 151 117 c 1
188 260 m 0
 189 258 191 255 192 253 c 0
 210 260 228 268 247 275 c 0
 287 290 306 312 306 345 c 0
 306 356 303 369 299 383 c 0
 298 387 292 392 292 392 c 1
 278 382 263 371 249 360 c 0
 248 359 248 354 249 352 c 0
 250 351 254 351 256 351 c 0
 263 350 270 348 277 347 c 1
 272 339 268 328 261 322 c 0
 237 301 212 280 188 260 c 0
187 436 m 1
 190 433 192 429 195 426 c 1
 209 434 223 444 237 451 c 0
 245 455 255 455 264 457 c 1
 265 448 265 441 266 432 c 0
 266 428 267 423 267 419 c 1
 271 420 277 419 278 421 c 0
 281 430 287 440 285 448 c 0
 281 468 273 488 267 507 c 1
 264 506 261 504 259 502 c 0
 235 480 211 458 187 436 c 1
124 33 m 1
 127 29 129 24 132 20 c 1
 166 41 198 63 232 84 c 1
 229 89 226 95 223 100 c 1
 190 78 157 55 124 33 c 1
240 375 m 1
 236 379 l 1
 221 373 202 370 191 359 c 0
 183 352 185 335 182 322 c 1
 186 322 191 320 193 322 c 0
 209 339 224 357 240 375 c 1
227 589 m 1
 221 596 216 605 214 604 c 0
 203 600 192 596 183 589 c 0
 176 584 171 574 166 567 c 0
 166 566 168 563 168 563 c 1
 180 567 192 570 203 575 c 0
 211 578 218 584 227 589 c 1
259 531 m 1
 252 540 249 545 245 548 c 0
 244 549 238 546 236 544 c 0
 227 534 216 525 208 514 c 0
 206 512 208 506 208 502 c 1
 224 511 241 521 259 531 c 1
216 556 m 1
 199 549 189 548 184 543 c 0
 178 537 176 527 173 519 c 0
 172 517 176 513 177 510 c 1
 183 515 189 519 194 525 c 0
 200 532 205 540 216 556 c 1
192 642 m 1
 183 648 178 654 177 653 c 0
 166 645 156 636 146 627 c 1
 149 624 155 619 156 620 c 0
 167 626 178 633 192 642 c 1
205 226 m 0
 203 229 202 231 200 234 c 1
 188 226 175 220 164 211 c 0
 161 208 162 199 161 193 c 1
 166 195 171 196 175 199 c 0
 185 208 195 217 205 226 c 0
169 83 m 0
 167 86 165 90 163 93 c 1
 149 82 134 72 120 61 c 1
 123 57 126 54 129 50 c 1
 142 61 156 72 169 83 c 0
144 137 m 0
 146 135 149 134 151 132 c 1
 160 142 168 153 177 163 c 1
 173 166 170 168 166 171 c 1
 159 160 151 148 144 137 c 0
214 405 m 1
 212 407 211 409 209 411 c 0
 200 404 191 398 182 391 c 1
 184 389 186 385 186 385 c 1
 195 391 205 398 214 405 c 1
EndSplineSet
Validated: 1
EndChar

StartChar: asterisk
Encoding: 42 42 9
Width: 318
Flags: W
HStem: 482 21G<41 47 223 237.5> 590 61<22.729 92.8601> 730 20G<152.5 165.5>
VStem: 26 29<480.623 526.046> 119 60<639.532 670> 183 13<608.073 612.92> 215 34<527.327 549.689>
LayerCount: 2
Fore
SplineSet
117 670 m 1
 119 686 122 703 125 719 c 0
 128 736 144 750 161 750 c 0
 170 750 179 746 187 736 c 0
 192 729 196 718 195 710 c 0
 192 690 186 670 181 650 c 0
 180 645 179 640 179 635 c 1
 183 636 187 638 191 639 c 0
 213 646 234 655 256 658 c 0
 258 658 259 658 261 658 c 0
 281 658 298 642 298 624 c 0
 298 620 297 615 295 611 c 0
 290 600 276 591 264 587 c 0
 248 582 229 584 212 582 c 0
 208 582 205 581 201 580 c 1
 203 577 206 574 209 572 c 0
 234 556 248 535 249 504 c 0
 249 490 243 482 232 482 c 0
 231 482 231 482 230 482 c 0
 216 484 200 488 191 497 c 0
 176 513 165 534 152 552 c 0
 150 555 147 558 144 561 c 1
 142 558 140 556 138 553 c 0
 114 521 89 489 52 471 c 0
 50 470 48 470 46 470 c 0
 36 470 26 479 26 492 c 0
 26 507 34 524 43 535 c 0
 55 549 72 559 87 571 c 0
 89 573 91 575 93 577 c 1
 90 578 88 579 85 580 c 0
 71 583 57 586 43 590 c 0
 30 594 20 607 20 620 c 0
 20 622 21 623 21 625 c 0
 23 634 41 651 52 651 c 0
 53 651 53 651 54 651 c 0
 72 647 90 642 108 636 c 0
 116 633 120 633 119 643 c 0
 119 652 119 661 119 670 c 1
 117 670 l 1
82 524 m 1
 83 529 85 534 87 539 c 0
 88 542 90 544 92 547 c 1
 94 545 95 542 96 540 c 0
 98 537 100 533 102 530 c 1
 105 534 110 537 111 541 c 0
 112 546 110 552 108 557 c 0
 107 559 101 561 99 560 c 0
 89 554 80 547 80 535 c 0
 80 532 80 528 82 524 c 1
237 632 m 1
 239 630 241 630 243 628 c 1
 245 630 248 631 250 633 c 0
 251 635 251 638 251 640 c 0
 248 641 245 642 242 641 c 0
 230 637 218 634 216 619 c 0
 215 612 213 606 212 599 c 1
 216 605 221 610 225 616 c 0
 229 622 233 626 237 632 c 1
228 511 m 1
 226 517 226 520 225 522 c 0
 222 521 220 520 217 519 c 0
 212 517 206 503 202 520 c 0
 202 521 197 522 197 521 c 0
 196 519 193 514 194 514 c 0
 202 508 210 502 218 496 c 1
 222 502 225 507 228 511 c 1
71 521 m 0
 69 525 68 528 66 532 c 1
 63 528 59 525 56 521 c 0
 55 519 55 516 55 513 c 0
 56 506 57 497 58 490 c 1
 61 496 65 503 68 509 c 0
 70 512 70 516 71 521 c 0
160 738 m 1
 154 731 148 724 143 717 c 1
 146 713 l 1
 155 719 164 725 173 731 c 1
 170 733 167 734 160 738 c 1
160 586 m 1
 157 580 154 576 155 575 c 0
 159 569 163 564 167 559 c 1
 169 562 174 566 173 568 c 0
 170 574 166 578 160 586 c 1
252 611 m 0
 253 610 255 610 256 609 c 1
 260 618 265 628 269 637 c 0
 270 638 269 639 268 641 c 1
 266 640 263 640 262 638 c 0
 258 629 255 620 252 611 c 0
134 669 m 0
 135 662 136 658 137 654 c 1
 140 658 146 662 147 667 c 0
 148 671 142 676 140 680 c 1
 138 676 136 672 134 669 c 0
173 594 m 1
 177 600 180 604 183 609 c 0
 183 610 179 613 179 613 c 1
 174 609 169 604 164 600 c 1
 166 599 168 597 173 594 c 1
177 725 m 1
 172 718 167 711 162 703 c 1
 176 707 182 710 182 715 c 0
 182 718 181 721 177 725 c 1
201 527 m 1
 206 534 211 539 215 545 c 0
 215 546 213 548 212 550 c 1
 207 544 202 540 197 534 c 1
 197 534 198 531 201 527 c 1
286 623 m 1
 283 626 282 628 280 630 c 1
 277 624 274 619 271 613 c 0
 271 612 273 610 274 609 c 1
 278 614 281 618 286 623 c 1
120 560 m 0
 125 565 130 570 135 575 c 1
 134 576 131 578 131 578 c 1
 125 574 119 570 113 566 c 1
 115 564 117 562 120 560 c 0
177 675 m 1
 175 676 174 678 172 679 c 0
 167 672 161 666 156 659 c 1
 158 658 159 656 161 655 c 0
 166 662 172 668 177 675 c 1
208 619 m 0
 206 621 204 622 203 623 c 1
 201 619 198 616 196 612 c 0
 196 611 198 609 199 608 c 1
 202 611 205 615 208 619 c 0
105 599 m 1
 104 601 103 603 102 605 c 0
 100 606 99 607 98 606 c 0
 95 604 92 601 90 598 c 2
 90 598 93 595 94 595 c 0
 98 596 102 598 105 599 c 1
235 596 m 1
 238 603 240 607 241 610 c 0
 241 611 240 613 239 614 c 1
 237 611 234 608 233 605 c 0
 233 604 234 601 235 596 c 1
EndSplineSet
Validated: 1
EndChar

StartChar: plus
Encoding: 43 43 10
Width: 448
Flags: W
HStem: 456 30<20.468 198.159 232.609 254> 464 25<240.418 424.679>
LayerCount: 2
Fore
SplineSet
75 493 m 0x80
 117 490 149 486 182 486 c 0x80
 188 486 200 499 199 505 c 0
 196 538 189 571 185 604 c 0
 184 611 189 619 191 626 c 1
 198 621 209 616 210 610 c 0
 216 577 222 543 223 509 c 0
 223 487 230 481 246 481 c 0
 248 481 251 481 254 481 c 0
 305 485 356 488 407 489 c 0
 414 489 421 479 428 474 c 1
 420 471 413 465 405 464 c 0x40
 351 460 296 457 242 452 c 0
 237 452 230 439 230 433 c 0
 233 396 237 358 240 321 c 0
 241 315 237 308 234 302 c 0
 232 298 227 297 223 294 c 1
 220 298 216 302 216 307 c 0
 213 345 210 384 208 422 c 0
 207 442 200 455 179 456 c 0
 136 457 92 457 49 459 c 0
 39 460 30 467 20 471 c 1
 28 477 36 485 45 488 c 0
 58 492 71 492 75 493 c 0x80
EndSplineSet
Validated: 1
EndChar

StartChar: comma
Encoding: 44 44 11
Width: 135
Flags: W
HStem: 166 18<71.2344 76.6657>
VStem: 20 17<116.652 160.434> 98 18<127.5 153.203>
LayerCount: 2
Fore
SplineSet
70 184 m 2
 71 184 l 2
 96 184 116 161 116 134 c 0
 116 126 114 117 110 109 c 0
 98 86 85 62 59 51 c 0
 55 49 50 51 45 52 c 1
 47 56 48 60 51 64 c 0
 58 72 67 79 73 88 c 0
 77 94 74 98 66 98 c 0
 38 98 20 116 20 142 c 0
 20 163 45 184 68 184 c 0
 69 184 69 184 70 184 c 2
71 114 m 1
 84 117 98 136 98 147 c 0
 98 148 97 150 97 151 c 0
 97 152 96 154 95 154 c 0
 94 154 93 152 92 151 c 0
 85 139 79 128 71 114 c 1
81 164 m 1
 76 155 72 145 67 136 c 0
 66 134 65 131 64 129 c 1
 66 131 70 132 71 134 c 0
 76 142 80 151 84 159 c 0
 85 161 86 166 85 166 c 0
 81 168 76 170 71 171 c 1
 71 171 70 167 69 166 c 1
 73 165 76 165 81 164 c 1
63 169 m 1
 46 164 37 156 37 145 c 0
 37 143 37 141 38 138 c 1
 46 148 53 157 63 169 c 1
45 116 m 1
 53 129 59 139 64 148 c 0
 65 150 64 152 64 154 c 1
 62 153 59 153 58 151 c 0
 53 144 48 136 43 128 c 0
 42 126 44 123 45 116 c 1
EndSplineSet
Validated: 1
EndChar

StartChar: hyphen
Encoding: 45 45 12
Width: 357
Flags: W
HStem: 460 22<21.8365 231 232.361 330.566>
VStem: 20 317
LayerCount: 2
Fore
SplineSet
231 460 m 1
 165 460 99 460 33 461 c 0
 29 461 24 466 20 469 c 1
 23 472 26 478 30 478 c 0
 60 479 91 480 122 480 c 0
 188 481 254 481 320 482 c 0
 326 482 331 479 337 477 c 1
 331 472 326 465 320 464 c 0
 291 461 260 460 231 458 c 1
 231 460 l 1
EndSplineSet
Validated: 1
EndChar

StartChar: period
Encoding: 46 46 13
Width: 127
Flags: W
HStem: 101 16<50.5635 81.4654>
VStem: 20 17<132.965 152.559> 89 19<122.848 154.664>
LayerCount: 2
Fore
SplineSet
108 142 m 0
 108 117 88 101 57 101 c 0
 37 101 20 119 20 141 c 0
 20 157 53 183 73 183 c 0
 91 183 108 163 108 142 c 0
65 123 m 0
 64 123 64 124 63 124 c 1
 67 136 72 147 76 159 c 0
 77 161 75 164 75 166 c 1
 73 165 68 165 67 163 c 0
 61 151 55 138 50 125 c 0
 49 123 52 118 54 118 c 0
 57 118 60 117 62 117 c 0
 79 117 89 128 89 145 c 0
 89 148 89 151 88 155 c 1
 80 144 72 134 65 123 c 0
51 150 m 1
 49 151 47 152 45 153 c 1
 42 147 39 142 37 136 c 0
 37 135 40 133 41 132 c 1
 44 138 48 144 51 150 c 1
EndSplineSet
Validated: 1
EndChar

StartChar: slash
Encoding: 47 47 14
Width: 427
Flags: W
HStem: 107 20<20.2344 64.0766> 720 27<236.529 272.58 304.004 361.812>
VStem: 245 16<610.011 631>
LayerCount: 2
Fore
SplineSet
179 100 m 1
 131 102 82 104 34 107 c 0
 29 107 25 114 20 117 c 1
 25 121 30 127 34 127 c 0
 37 127 39 127 41 127 c 0
 63 127 68 140 75 163 c 0
 94 223 121 282 143 341 c 0
 178 437 212 532 244 628 c 0
 245 631 245 635 245 638 c 0
 245 648 242 659 238 669 c 0
 234 679 225 688 219 697 c 0
 210 711 206 720 206 728 c 0
 206 741 219 746 246 747 c 0
 295 748 342 750 391 750 c 0
 397 750 407 744 408 740 c 0
 409 734 403 727 399 721 c 0
 390 706 378 691 372 675 c 0
 342 592 313 509 284 425 c 0
 260 355 202 253 202 179 c 0
 202 172 211 160 216 152 c 0
 223 140 231 127 238 115 c 1
 225 111 211 108 198 105 c 0
 192 104 185 105 179 105 c 1
 179 100 l 1
324 589 m 1
 312 601 301 613 288 623 c 0
 282 628 272 629 264 631 c 1
 263 620 262 608 261 597 c 0
 261 595 261 593 261 591 c 0
 261 574 270 570 290 564 c 0
 298 562 303 560 307 560 c 0
 318 560 320 569 324 589 c 1
290 673 m 0
 286 672 283 672 279 671 c 0
 277 662 271 649 275 645 c 0
 288 632 304 622 319 612 c 0
 321 611 329 618 334 622 c 1
 319 639 305 656 290 673 c 0
272 435 m 1
 257 447 241 460 225 471 c 0
 221 474 215 471 209 471 c 1
 210 465 209 458 212 454 c 0
 222 442 233 431 244 420 c 0
 249 415 255 411 261 407 c 1
 264 414 267 421 272 435 c 1
146 122 m 1
 155 136 161 145 161 145 c 1
 146 157 131 169 114 180 c 0
 113 181 103 169 103 168 c 0
 115 154 128 141 146 122 c 1
176 347 m 0
 172 346 169 345 165 344 c 0
 163 337 158 327 161 324 c 0
 173 309 187 296 202 283 c 0
 204 281 211 287 216 289 c 1
 202 308 190 328 176 347 c 0
336 717 m 1
 341 717 344 717 347 716 c 0
 352 714 356 712 360 710 c 1
 361 713 363 716 362 717 c 0
 358 720 353 724 348 724 c 0
 343 724 338 725 333 725 c 0
 326 725 320 724 313 723 c 0
 310 723 304 715 304 715 c 1
 315 702 326 688 338 676 c 0
 340 674 348 678 354 680 c 1
 348 691 343 701 337 712 c 0
 337 713 337 713 336 717 c 1
248 571 m 1
 244 555 240 546 242 544 c 0
 255 531 268 520 282 509 c 0
 283 508 287 513 290 515 c 1
 248 571 l 1
195 412 m 0
 193 411 190 410 188 409 c 0
 189 404 188 397 191 394 c 0
 201 381 212 369 224 357 c 0
 228 353 233 351 238 348 c 1
 237 353 237 360 234 364 c 0
 227 374 220 383 212 392 c 0
 206 399 201 405 195 412 c 0
343 656 m 1
 326 670 311 683 295 696 c 0
 294 697 288 694 288 693 c 0
 288 689 287 684 289 682 c 0
 300 671 311 661 323 651 c 0
 326 648 332 648 337 648 c 0
 338 648 340 652 343 656 c 1
184 379 m 1
 178 372 175 367 175 367 c 1
 187 354 199 341 211 328 c 1
 211 328 216 331 218 333 c 0
 207 347 197 362 184 379 c 1
237 525 m 0
 235 523 234 521 232 519 c 1
 246 507 259 495 273 484 c 0
 276 482 281 483 285 482 c 1
 284 487 284 493 281 495 c 0
 267 506 252 515 237 525 c 0
273 709 m 1
 264 714 258 720 253 720 c 0
 247 720 242 714 236 711 c 1
 259 688 l 1
 263 694 266 699 273 709 c 1
212 252 m 1
 201 261 193 268 185 275 c 0
 183 273 180 270 180 269 c 0
 186 261 192 253 199 246 c 0
 200 245 205 249 212 252 c 1
139 285 m 1
 148 281 151 277 156 277 c 0
 160 277 166 281 170 283 c 1
 165 288 160 294 155 299 c 1
 151 295 147 292 139 285 c 1
291 553 m 0
 289 551 289 550 287 548 c 1
 292 543 298 538 303 533 c 1
 305 536 307 539 309 542 c 1
 303 546 297 549 291 553 c 0
148 213 m 1
 159 210 171 206 182 203 c 1
 179 215 180 233 173 239 c 0
 163 248 146 248 132 253 c 1
 135 243 137 233 141 224 c 0
 143 220 146 217 149 213 c 1
 148 213 l 1
148 213 m 1
 138 211 129 208 119 206 c 1
 131 195 143 184 155 174 c 0
 157 172 162 173 166 173 c 1
 162 182 158 191 154 200 c 0
 152 204 150 209 148 213 c 1
EndSplineSet
Validated: 5
EndChar

StartChar: zero
Encoding: 48 48 15
Width: 586
Flags: W
HStem: 100 27<195.573 322.929> 355 21<66.2834 78.5811> 479 21G<80 81.5> 721 28<249.08 371.985>
VStem: 20 20<368.235 419.13> 95 20<297.364 319 336.219 354.997> 465 24<401.214 430> 548 19<426.666 500.497>
LayerCount: 2
Fore
SplineSet
21 359 m 0
 21 368 20 376 20 385 c 0
 20 488 54 580 130 654 c 0
 170 693 216 731 273 743 c 0
 294 747 314 749 334 749 c 0
 411 749 475 716 517 639 c 0
 544 591 567 537 567 481 c 0
 567 472 566 462 565 452 c 0
 549 348 530 244 456 161 c 0
 423 124 380 111 333 104 c 0
 315 101 298 100 281 100 c 0
 218 100 161 118 108 159 c 0
 61 195 39 246 28 303 c 0
 24 321 23 340 21 359 c 0
464 460 m 1
 467 460 469 461 472 461 c 1
 462 511 454 562 441 611 c 0
 421 683 377 721 312 721 c 0
 304 721 296 720 288 719 c 0
 244 713 213 688 186 653 c 0
 118 563 123 456 115 353 c 0
 115 349 115 344 115 340 c 0
 115 301 126 260 137 221 c 0
 144 195 159 163 180 149 c 0
 202 134 228 127 256 127 c 0
 320 127 390 165 415 222 c 0
 445 290 465 361 465 435 c 0
 465 443 464 452 464 460 c 1
531 373 m 1
 528 374 526 377 523 378 c 0
 516 367 499 348 499 343 c 0
 499 337 506 331 506 326 c 0
 506 315 493 309 487 300 c 0
 478 288 468 276 459 263 c 0
 455 257 454 250 452 243 c 1
 459 244 467 245 473 248 c 0
 525 276 516 329 531 373 c 1
87 445 m 1
 74 438 65 434 58 429 c 0
 48 423 40 400 40 387 c 0
 40 382 41 378 44 377 c 0
 46 376 47 376 49 376 c 0
 58 376 70 383 80 387 c 0
 86 389 94 394 96 400 c 0
 100 410 100 422 102 433 c 1
 95 429 87 424 80 420 c 1
 77 420 l 1
 80 426 82 433 87 445 c 1
383 140 m 1
 386 140 389 140 391 141 c 0
 420 153 440 173 450 203 c 0
 452 210 454 218 456 225 c 1
 448 221 438 218 433 212 c 0
 416 189 400 165 383 140 c 1
548 452 m 0
 548 453 546 457 545 460 c 1
 542 459 537 458 535 456 c 0
 526 448 517 438 508 430 c 0
 505 428 501 425 498 425 c 0
 495 425 491 428 488 430 c 1
 488 421 488 412 489 403 c 0
 489 401 493 398 495 398 c 2
 496 398 l 2
 519 398 548 426 548 452 c 0
99 252 m 1
 93 258 l 1
 86 252 73 248 73 238 c 0
 73 235 74 230 78 225 c 0
 86 214 93 202 103 193 c 0
 111 185 121 181 131 175 c 1
 127 186 123 197 118 208 c 0
 117 210 115 212 114 212 c 0
 99 214 95 220 95 229 c 0
 95 236 97 244 99 252 c 1
492 466 m 1
 499 459 l 1
 512 469 527 478 537 490 c 0
 542 497 539 510 540 520 c 1
 537 520 532 521 531 519 c 0
 518 501 505 484 492 466 c 1
88 497 m 1
 77 492 68 490 62 484 c 0
 57 479 55 472 52 465 c 1
 58 463 65 456 70 458 c 0
 81 462 92 470 102 477 c 0
 104 478 104 483 105 486 c 1
 101 486 97 488 94 487 c 0
 89 486 85 483 78 479 c 1
 82 486 84 490 88 497 c 1
59 263 m 1
 67 263 l 1
 75 279 84 293 92 309 c 0
 93 311 91 316 91 319 c 1
 82 314 73 309 65 303 c 0
 61 300 54 294 54 290 c 0
 54 281 57 272 59 263 c 1
106 577 m 1
 108 575 111 573 113 571 c 1
 130 596 147 623 164 649 c 1
 115 646 129 597 106 577 c 1
418 710 m 0
 416 708 415 706 413 704 c 0
 423 690 432 676 443 664 c 0
 446 661 455 663 461 664 c 0
 462 664 465 674 463 675 c 0
 448 687 433 698 418 710 c 0
98 341 m 0
 98 344 97 346 97 349 c 0
 94 351 91 355 88 355 c 0
 81 356 72 357 66 354 c 0
 58 350 52 342 46 335 c 0
 44 333 48 327 49 323 c 1
 65 329 82 335 98 341 c 0
87 515 m 1
 96 524 105 532 114 540 c 1
 110 542 103 548 101 547 c 0
 89 541 79 533 68 526 c 1
 73 523 79 520 87 515 c 1
499 537 m 1
 502 534 503 532 506 529 c 1
 515 538 523 547 531 556 c 1
 531 556 528 560 526 562 c 0
 517 554 508 545 499 537 c 1
497 573 m 1
 505 580 512 587 520 593 c 1
 517 595 513 601 512 600 c 0
 504 594 495 587 487 581 c 1
 489 579 492 577 497 573 c 1
503 375 m 0
 501 377 498 379 496 381 c 1
 490 374 484 368 479 361 c 0
 478 360 483 354 485 351 c 1
 491 359 497 367 503 375 c 0
478 625 m 1
 480 623 480 621 482 619 c 1
 487 624 492 628 497 633 c 1
 497 633 495 636 494 638 c 1
 489 634 483 629 478 625 c 1
EndSplineSet
Validated: 1
EndChar

StartChar: one
Encoding: 49 49 16
Width: 278
Flags: W
HStem: 480 21G<141 143> 730 20G<233 240.5>
LayerCount: 2
Fore
SplineSet
249 725 m 0
 246 701 242 679 240 656 c 0
 238 626 239 596 237 566 c 0
 232 487 227 407 222 328 c 0
 220 293 217 258 212 224 c 0
 212 222 212 219 212 217 c 0
 212 188 233 171 247 149 c 0
 252 141 258 127 258 119 c 0
 258 117 258 115 257 114 c 0
 251 105 234 100 222 100 c 0
 175 100 128 103 81 104 c 0
 74 104 68 102 62 104 c 0
 48 110 34 117 20 124 c 1
 26 135 30 151 40 156 c 0
 104 191 94 254 99 310 c 0
 107 404 110 498 115 592 c 0
 116 605 116 619 116 632 c 0
 116 638 116 643 116 648 c 0
 116 651 106 655 103 654 c 0
 88 647 74 638 59 631 c 0
 53 628 44 631 37 632 c 1
 39 638 40 648 44 650 c 0
 102 682 161 714 220 745 c 0
 226 748 231 750 235 750 c 0
 246 750 249 738 249 725 c 0
183 559 m 0
 181 561 180 563 178 565 c 0
 164 553 146 544 137 529 c 0
 133 523 132 515 132 506 c 0
 132 499 133 491 133 484 c 0
 133 471 134 458 134 445 c 1
 145 454 156 464 166 474 c 0
 169 477 169 481 171 485 c 1
 167 484 163 483 159 482 c 0
 153 481 146 481 140 480 c 1
 142 486 142 491 145 496 c 0
 157 517 170 538 183 559 c 0
168 261 m 1
 146 252 112 256 112 224 c 0
 112 221 112 218 113 214 c 0
 114 210 115 206 116 202 c 1
 119 204 124 204 126 207 c 0
 140 225 154 243 168 261 c 1
225 708 m 0
 224 711 222 713 221 716 c 1
 197 704 173 694 149 681 c 0
 146 679 145 670 144 664 c 0
 147 663 152 662 154 663 c 0
 178 678 201 693 225 708 c 0
167 324 m 1
 147 315 117 315 117 290 c 0
 117 286 117 281 119 276 c 0
 120 273 129 270 129 271 c 0
 142 288 155 306 167 324 c 1
138 206 m 0
 140 204 142 200 144 198 c 0
 160 210 177 222 192 236 c 0
 195 239 192 249 192 256 c 1
 187 254 180 254 176 250 c 0
 163 236 151 221 138 206 c 0
153 182 m 1
 139 179 127 179 119 174 c 0
 113 170 110 159 109 151 c 0
 109 146 116 140 120 135 c 1
 126 140 133 144 137 150 c 0
 143 159 147 169 153 182 c 1
192 622 m 1
 173 613 158 609 146 600 c 0
 140 596 140 582 139 573 c 0
 139 571 142 568 143 565 c 1
 149 569 156 572 160 577 c 0
 170 590 179 604 192 622 c 1
178 184 m 1
 170 171 163 163 160 154 c 0
 158 148 160 138 164 134 c 0
 167 130 176 130 182 129 c 1
 183 136 187 143 186 150 c 0
 185 160 182 169 178 184 c 1
154 287 m 0
 156 284 159 283 161 280 c 1
 175 292 188 302 201 315 c 0
 203 317 201 326 201 331 c 1
 196 329 190 329 187 326 c 0
 175 314 165 300 154 287 c 0
207 401 m 1
 190 386 177 373 163 361 c 1
 184 364 208 362 208 391 c 0
 208 394 208 397 207 401 c 1
162 524 m 1
 164 522 166 519 168 517 c 0
 182 526 196 535 209 545 c 0
 212 547 211 556 212 562 c 1
 209 562 205 562 203 561 c 0
 189 549 176 537 162 524 c 1
184 658 m 1
 182 660 180 661 178 663 c 1
 167 652 156 642 145 631 c 1
 150 626 l 1
 161 637 173 647 184 658 c 1
217 498 m 1
 207 506 l 1
 202 502 199 498 195 493 c 1
 195 493 199 487 200 487 c 0
 205 490 210 493 217 498 c 1
125 347 m 0
 127 345 130 344 132 342 c 1
 137 349 142 356 147 363 c 1
 144 364 139 367 139 366 c 0
 134 360 130 354 125 347 c 0
170 418 m 1
 182 422 195 426 206 432 c 0
 208 433 207 441 208 446 c 1
 204 445 199 446 196 443 c 0
 187 435 178 426 170 418 c 1
170 418 m 1
 172 427 172 436 174 445 c 1
 166 441 159 437 151 433 c 0
 145 430 136 427 134 422 c 0
 131 413 131 402 130 392 c 1
 136 394 143 395 148 399 c 0
 156 405 163 411 170 418 c 1
EndSplineSet
Validated: 5
EndChar

StartChar: two
Encoding: 50 50 17
Width: 526
Flags: W
HStem: 99 29<67.1392 89.6733 153 345.259> 669 29<280.895 358> 709 37<279.276 356.726>
VStem: 69 33<523 540.855> 477 30<575.958 610.658>
LayerCount: 2
Fore
SplineSet
187 632 m 1
 190 632 192 632 195 632 c 0
 226 632 241 616 247 588 c 0
 250 574 252 560 252 546 c 0
 252 524 247 504 231 486 c 0
 217 470 194 463 169 463 c 0
 139 463 107 474 85 494 c 0
 74 504 69 520 69 538 c 0
 69 562 78 588 96 606 c 0
 152 663 213 713 290 739 c 0
 305 744 320 746 335 746 c 0
 402 746 463 700 485 657 c 0
 499 630 507 600 507 571 c 0
 507 543 500 516 486 490 c 0
 458 438 421 390 381 346 c 0
 318 276 250 212 184 145 c 0
 181 142 180 136 178 132 c 1
 182 130 187 128 191 128 c 0
 235 128 280 128 324 131 c 0
 336 132 348 144 357 154 c 0
 379 176 399 200 420 222 c 0
 425 227 434 229 441 232 c 1
 444 224 451 216 451 208 c 0
 451 200 451 193 451 185 c 0
 451 164 450 142 449 121 c 0
 448 114 437 102 431 102 c 0
 338 100 246 99 153 99 c 0
 116 99 79 100 42 102 c 0
 34 102 24 109 21 115 c 0
 18 120 22 131 27 136 c 0
 86 205 144 273 204 341 c 0
 242 385 282 428 320 472 c 0
 328 481 330 495 335 506 c 0
 337 510 340 516 344 518 c 0
 366 528 377 544 377 564 c 0
 377 571 376 578 373 586 c 0
 372 589 373 593 375 595 c 0
 379 602 390 611 388 614 c 0
 381 629 373 645 360 654 c 0
 345 664 322 669 298 669 c 0
 258 669 213 656 187 632 c 1
398 534 m 1
 408 517 416 498 427 482 c 0
 431 476 441 475 448 471 c 1
 450 480 457 491 457 499 c 0
 457 501 457 502 456 503 c 0
 448 519 434 532 422 545 c 0
 419 549 411 553 409 552 c 0
 404 549 403 542 398 534 c 1
122 501 m 1
 156 511 182 519 209 527 c 0
 213 528 220 528 221 531 c 0
 224 538 224 545 226 553 c 1
 221 552 215 551 210 549 c 0
 204 546 196 538 192 539 c 0
 187 541 182 541 178 541 c 0
 154 541 143 518 122 501 c 1
205 239 m 1
 209 241 213 243 217 245 c 1
 221 241 224 237 228 234 c 0
 230 232 233 231 236 230 c 1
 236 233 237 236 236 239 c 0
 228 257 219 275 210 292 c 0
 208 296 202 301 199 301 c 0
 195 301 186 293 187 291 c 0
 192 273 199 256 205 239 c 1
381 382 m 0
 368 403 356 424 342 443 c 0
 340 445 328 443 327 441 c 0
 324 435 322 425 325 421 c 0
 338 405 354 391 368 376 c 0
 370 374 373 373 375 374 c 0
 378 375 379 379 381 382 c 0
448 621 m 1
 457 628 461 631 465 634 c 1
 456 644 448 658 437 663 c 0
 436 663 434 664 433 664 c 0
 425 664 414 656 405 653 c 1
 419 643 433 632 448 621 c 1
477 582 m 0
 477 584 477 585 477 587 c 0
 477 608 468 611 457 611 c 0
 453 611 448 610 444 610 c 0
 439 610 434 611 431 614 c 0
 430 615 422 611 418 609 c 1
 434 598 450 586 466 576 c 0
 468 575 475 581 477 582 c 0
187 215 m 0
 185 225 184 235 181 242 c 0
 178 249 172 254 167 260 c 1
 164 251 158 242 157 233 c 0
 156 226 161 219 165 212 c 0
 168 207 173 203 177 199 c 1
 180 205 184 210 187 215 c 0
163 571 m 1
 161 573 160 575 158 577 c 0
 140 565 122 554 105 541 c 0
 102 538 103 529 102 523 c 1
 107 523 114 521 116 523 c 0
 132 539 147 555 163 571 c 1
284 318 m 1
 272 332 262 344 251 357 c 1
 248 354 241 349 242 348 c 0
 250 331 259 315 268 299 c 1
 272 304 276 309 284 318 c 1
358 693 m 1
 358 696 359 701 359 704 c 0
 333 706 305 707 279 709 c 1
 279 698 l 1
 306 696 331 695 358 693 c 1
377 428 m 1
 374 425 373 423 370 420 c 1
 380 412 397 398 399 398 c 0
 409 398 429 434 435 441 c 1
 431 444 427 445 423 448 c 1
 417 438 412 428 405 419 c 0
 402 415 393 413 388 415 c 0
 383 417 381 423 377 428 c 1
302 339 m 0
 298 354 296 367 292 379 c 0
 291 384 287 388 284 392 c 1
 280 388 271 382 272 380 c 0
 278 364 286 348 293 332 c 1
 296 335 299 337 302 339 c 0
229 330 m 1
 224 321 220 317 221 315 c 0
 228 300 236 285 244 270 c 1
 248 275 255 282 254 285 c 0
 248 299 239 312 229 330 c 1
178 579 m 1
 181 575 185 570 188 566 c 1
 199 573 210 580 220 588 c 0
 221 589 215 596 212 601 c 1
 201 594 189 586 178 579 c 1
113 140 m 0
 116 141 118 141 121 142 c 0
 118 156 114 170 110 184 c 0
 110 185 104 183 101 183 c 1
 104 170 106 158 109 145 c 0
 109 143 112 142 113 140 c 0
308 360 m 0
 306 359 304 358 302 357 c 1
 308 345 314 332 320 320 c 0
 320 319 326 321 329 322 c 1
 324 334 318 346 313 357 c 0
 312 359 310 359 308 360 c 0
430 569 m 1
 445 556 454 547 465 539 c 0
 467 537 474 539 475 540 c 0
 476 544 477 552 476 553 c 0
 463 559 449 562 430 569 c 1
112 580 m 0
 113 578 115 576 116 574 c 1
 131 582 147 591 162 599 c 0
 161 601 160 604 159 606 c 1
 144 597 127 589 112 580 c 0
90 140 m 1
 84 147 82 151 79 154 c 1
 75 150 71 145 67 141 c 1
 70 139 71 134 74 134 c 0
 78 134 83 137 90 140 c 1
214 506 m 0
 213 508 210 512 209 514 c 1
 200 509 192 503 183 498 c 0
 184 496 186 493 187 491 c 1
 196 496 205 501 214 506 c 0
386 130 m 1
 391 133 396 135 400 137 c 1
 396 140 393 146 389 146 c 0
 384 146 379 140 374 137 c 1
 378 135 381 133 386 130 c 1
EndSplineSet
Validated: 1
EndChar

StartChar: three
Encoding: 51 51 18
Width: 466
Flags: W
HStem: 100 33<150.243 253.011> 529 31<93.157 121.384> 729 20G<237 264>
VStem: 284 38<518.983 542.427> 337 29<558.12 632.649> 414 32<267.275 313>
LayerCount: 2
Fore
SplineSet
351 320 m 1
 340 333 333 341 326 349 c 0
 324 352 319 355 320 356 c 0
 323 362 324 367 324 371 c 0
 324 389 302 397 293 407 c 0
 282 420 268 426 253 426 c 0
 239 426 224 421 210 411 c 0
 170 382 129 353 88 325 c 0
 84 322 77 325 71 325 c 1
 72 334 70 345 75 350 c 0
 94 369 114 387 136 403 c 0
 182 436 232 464 263 515 c 0
 276 536 284 561 284 585 c 0
 284 603 280 620 269 634 c 0
 256 651 234 661 214 671 c 0
 200 678 182 679 166 683 c 1
 173 668 181 654 187 639 c 0
 190 632 192 623 192 614 c 0
 192 589 180 561 161 545 c 0
 148 533 134 529 119 529 c 0
 107 529 94 532 81 537 c 0
 48 549 20 569 20 603 c 0
 20 606 21 609 21 612 c 0
 24 636 40 666 59 678 c 0
 104 705 153 726 203 743 c 0
 216 747 230 749 244 749 c 0
 284 749 322 733 337 707 c 0
 353 679 366 647 366 614 c 0
 366 590 360 566 342 544 c 0
 329 527 322 517 322 510 c 0
 322 500 334 495 359 485 c 0
 414 463 446 411 446 351 c 0
 446 277 413 217 366 164 c 0
 354 151 342 130 327 126 c 0
 290 115 251 100 213 100 c 0
 193 100 173 104 152 115 c 0
 130 127 111 144 91 160 c 0
 87 163 90 174 90 181 c 1
 98 180 109 182 113 177 c 0
 137 147 168 133 198 133 c 0
 238 133 277 157 299 199 c 0
 319 236 333 277 351 320 c 1
414 311 m 1
 415 305 415 309 414 313 c 1
 411 312 408 313 406 311 c 0
 390 295 375 279 360 262 c 0
 359 261 366 251 368 251 c 0
 394 257 414 268 414 306 c 0
 414 308 414 309 414 311 c 1
309 551 m 1
 314 550 319 549 324 548 c 1
 329 573 333 599 337 625 c 0
 337 628 334 630 333 633 c 1
 330 631 327 630 326 627 c 0
 320 602 314 576 309 551 c 1
94 590 m 1
 101 595 104 597 107 600 c 0
 120 613 133 626 145 640 c 0
 147 643 147 648 148 652 c 1
 143 652 136 654 134 652 c 0
 120 637 106 621 93 605 c 0
 91 603 93 597 94 590 c 1
143 594 m 1
 137 605 134 608 132 612 c 1
 119 598 106 584 93 570 c 1
 93 570 102 560 103 560 c 0
 116 570 129 582 143 594 c 1
364 228 m 0
 362 230 358 233 356 235 c 1
 348 226 339 217 332 207 c 0
 322 193 312 179 303 165 c 0
 300 160 297 154 294 149 c 1
 300 151 309 152 313 157 c 0
 331 180 347 204 364 228 c 0
65 578 m 1
 81 604 97 630 114 660 c 1
 67 649 76 607 65 578 c 1
408 406 m 1
 401 416 396 423 391 429 c 1
 381 416 370 402 360 389 c 1
 363 387 367 382 368 383 c 0
 381 390 394 398 408 406 c 1
162 605 m 0
 160 606 158 607 156 608 c 1
 149 594 142 581 135 567 c 1
 138 566 140 563 143 562 c 0
 149 576 156 591 162 605 c 0
277 662 m 1
 287 675 292 681 296 689 c 0
 297 691 292 697 289 701 c 1
 283 695 276 689 271 682 c 0
 269 680 273 674 277 662 c 1
344 442 m 1
 340 446 337 449 336 449 c 0
 330 445 324 441 319 437 c 1
 322 434 326 428 326 428 c 1
 332 432 337 436 344 442 c 1
314 448 m 1
 320 453 324 456 328 460 c 1
 324 462 320 467 316 466 c 0
 311 465 307 460 303 457 c 1
 306 454 309 452 314 448 c 1
EndSplineSet
Validated: 1
EndChar

StartChar: four
Encoding: 52 52 19
Width: 493
Flags: W
HStem: 90 48<311 327.901 353 375.898> 358 29<73.3743 266> 582 10<360.11 374.471> 730 20G<446 450>
VStem: 281 30<171.322 178.764> 393 15<311.203 338.989>
LayerCount: 2
Fore
SplineSet
41 359 m 0
 34 359 21 363 20 367 c 0
 19 374 22 386 28 391 c 0
 89 446 152 498 213 553 c 0
 243 580 270 610 300 637 c 0
 340 673 381 708 422 742 c 0
 429 748 441 748 451 750 c 1
 449 740 449 731 447 721 c 0
 444 702 438 683 437 664 c 0
 429 556 421 447 414 339 c 0
 411 301 408 264 408 226 c 0
 408 222 408 217 408 213 c 0
 408 199 420 184 431 173 c 0
 446 158 474 155 474 129 c 0
 474 127 473 124 473 122 c 0
 472 116 462 108 457 108 c 0
 448 109 440 109 431 109 c 0
 395 109 360 103 324 93 c 0
 317 91 310 90 303 90 c 0
 277 90 249 99 223 103 c 0
 221 103 218 118 220 124 c 0
 222 130 229 135 235 139 c 0
 272 164 281 196 281 232 c 0
 281 249 279 267 277 285 c 0
 277 287 277 290 277 292 c 0
 277 304 279 315 281 327 c 0
 282 331 282 335 282 339 c 0
 282 352 276 360 261 360 c 0
 258 360 255 360 252 359 c 0
 244 358 235 358 226 358 c 0
 164 358 103 358 41 359 c 0
182 384 m 1
 182 385 182 386 182 387 c 1
 198 387 214 386 230 386 c 2
 266 388 l 2
 275 389 289 401 290 409 c 0
 297 469 302 529 307 589 c 0
 307 593 305 597 304 602 c 1
 300 600 296 600 293 597 c 0
 277 583 263 569 247 555 c 0
 193 507 138 460 85 412 c 0
 79 407 77 400 73 393 c 1
 81 390 88 385 96 385 c 0
 125 384 153 384 182 384 c 1
368 666 m 1
 378 664 387 664 397 662 c 1
 392 653 389 642 382 635 c 0
 368 620 352 606 337 592 c 1
 358 592 378 596 394 605 c 0
 411 615 414 629 414 645 c 0
 414 652 413 660 413 667 c 0
 413 674 414 681 416 687 c 0
 417 690 414 694 413 697 c 1
 398 687 383 676 368 666 c 1
389 251 m 1
 387 263 385 269 384 275 c 1
 378 272 371 269 366 265 c 0
 355 256 344 248 334 237 c 0
 324 226 317 214 308 202 c 1
 321 207 335 212 348 217 c 0
 356 220 365 223 371 229 c 0
 379 236 384 245 389 251 c 1
329 498 m 1
 351 527 369 549 386 571 c 0
 388 574 389 578 390 581 c 1
 386 581 382 583 378 582 c 0
 342 575 329 560 329 514 c 0
 329 509 329 504 329 498 c 1
364 206 m 1
 362 207 360 209 358 210 c 0
 343 200 325 192 315 179 c 0
 311 174 311 167 311 160 c 0
 311 155 311 148 311 143 c 0
 311 141 311 140 311 138 c 1
 317 139 326 138 328 141 c 0
 341 162 352 184 364 206 c 1
331 288 m 1
 359 292 387 296 393 329 c 0
 394 333 392 337 391 341 c 1
 388 340 385 340 383 338 c 0
 365 322 348 305 331 288 c 1
383 183 m 0
 380 184 378 185 375 186 c 0
 367 174 358 162 352 150 c 0
 350 146 353 139 353 133 c 1
 361 135 374 136 376 141 c 0
 381 154 381 169 383 183 c 0
352 472 m 0
 353 470 355 468 356 466 c 1
 372 475 389 484 404 495 c 0
 408 498 407 508 408 514 c 1
 403 512 398 511 394 508 c 0
 380 496 366 484 352 472 c 0
368 439 m 1
 365 442 362 446 359 449 c 1
 350 444 340 440 333 433 c 0
 326 427 323 416 318 408 c 1
 325 412 333 417 340 421 c 0
 350 427 359 433 368 439 c 1
390 379 m 1
 395 387 399 393 402 400 c 0
 403 402 398 407 396 410 c 1
 388 403 381 396 373 389 c 1
 377 386 381 384 390 379 c 1
382 544 m 0
 384 541 387 539 389 536 c 1
 397 543 404 550 411 558 c 0
 412 559 408 564 407 568 c 1
 398 560 391 552 382 544 c 0
364 636 m 0
 362 638 359 639 357 641 c 1
 349 631 340 621 332 611 c 0
 334 609 336 608 338 606 c 1
 347 616 355 626 364 636 c 0
344 307 m 1
 340 311 335 315 331 319 c 1
 324 310 317 301 310 292 c 1
 314 288 l 1
 324 294 334 301 344 307 c 1
318 335 m 1
 323 330 l 1
 331 337 339 342 347 349 c 1
 345 351 343 354 341 356 c 0
 333 349 326 342 318 335 c 1
304 238 m 1
 307 236 310 234 313 232 c 0
 318 239 324 248 329 255 c 0
 327 257 325 258 323 260 c 1
 317 253 310 245 304 238 c 1
EndSplineSet
Validated: 1
EndChar

StartChar: five
Encoding: 53 53 20
Width: 511
Flags: W
HStem: 94 45<164.961 281.372> 94 39<293 335.277> 315 27<76.3027 161.265> 464 31<172.299 289.969> 485 24<300.812 332.828> 718 27<80.1413 105.766 177.251 371.484> 726 29<412.703 464.586>
VStem: 20 40<192.34 302.309> 148 24<495.2 537.673 627.51 645 680.145 703.815> 186 23<216.48 291.841> 359 132<263.5 351.5> 466 22<660.863 725.989>
LayerCount: 2
Fore
SplineSet
53 544 m 1xb1e0
 53 713 l 2
 53 714 54 714 54 715 c 0
 53 724 52 731 52 736 c 0
 52 746 56 748 68 748 c 0
 74 748 82 747 93 747 c 0
 127 745 160 745 194 745 c 0xb5e0
 222 745 250 745 277 746 c 0
 336 748 396 752 455 755 c 0
 456 755 456 755 457 755 c 0
 476 755 488 744 488 726 c 0x23d0
 488 691 479 656 473 623 c 0
 472 620 457 616 453 619 c 0
 444 626 437 635 431 645 c 0
 401 698 357 720 300 720 c 0
 295 720 291 720 286 720 c 0
 255 718 223 720 192 718 c 0
 187 718 177 708 177 703 c 0
 175 641 175 579 172 517 c 0
 172 513 172 510 172 507 c 0
 172 499 174 495 183 495 c 0x35d0
 186 495 189 495 193 496 c 0
 239 501 285 509 331 509 c 0
 344 509 357 508 369 507 c 0
 439 500 476 447 488 380 c 0x29d0
 490 368 491 357 491 344 c 0
 491 249 432 128 331 101 c 0
 312 96 291 94 271 94 c 0
 258 94 245 95 233 97 c 0
 165 110 103 138 46 179 c 0
 27 193 20 214 20 236 c 0
 20 265 33 297 50 317 c 0
 65 334 91 342 117 342 c 0
 140 342 162 336 178 323 c 0
 199 306 209 282 209 256 c 0
 209 235 202 213 187 194 c 0
 184 190 180 187 176 184 c 0
 167 177 157 169 147 162 c 1
 158 156 169 148 181 144 c 0
 191 141 202 139 213 139 c 0
 249 139 287 157 309 186 c 0
 341 229 359 278 359 328 c 0
 359 346 356 365 352 383 c 0
 340 432 293 452 249 461 c 0
 238 463 227 464 217 464 c 0
 169 464 129 440 96 400 c 0
 92 395 87 392 82 388 c 1
 77 394 69 400 68 406 c 0
 63 452 59 498 55 544 c 1
 53 544 l 1xb1e0
113 187 m 0
 148 187 177 206 184 238 c 0
 185 244 186 250 186 256 c 0
 186 277 177 295 158 307 c 0
 149 312 137 315 125 315 c 0
 101 315 75 306 64 290 c 0
 61 285 60 279 60 273 c 0
 60 266 61 258 61 251 c 0
 61 244 60 237 60 231 c 0
 60 197 74 187 113 187 c 0
293 133 m 1x61c0
 294 133 295 133 296 133 c 0
 326 133 397 200 410 236 c 1
 350 227 337 165 293 133 c 1x61c0
466 710 m 2x23d0
 465 711 461 726 457 726 c 0
 442 726 427 722 412 719 c 1
 417 711 421 702 426 694 c 0
 427 692 429 689 431 687 c 0
 439 677 446 667 454 657 c 1
 458 670 462 684 466 697 c 1
 466 710 l 2x23d0
386 295 m 0
 387 293 390 290 391 288 c 0
 408 296 426 303 441 314 c 0
 452 322 458 336 466 347 c 1
 463 349 458 354 457 353 c 0
 433 334 409 315 386 295 c 0
152 627 m 1
 150 638 150 641 149 645 c 1
 145 644 141 643 138 641 c 0
 124 629 111 616 98 603 c 0
 96 601 96 597 95 594 c 1
 98 593 101 591 103 592 c 0
 120 604 137 616 152 627 c 1
140 704 m 1
 122 687 104 671 86 655 c 1
 88 653 92 649 93 650 c 0
 110 660 129 669 145 680 c 0
 149 683 148 692 149 698 c 0
 149 699 145 700 140 704 c 1
146 538 m 1
 130 516 118 499 102 478 c 1
 131 483 148 493 148 519 c 0
 148 525 148 531 146 538 c 1
434 215 m 1
 432 217 431 219 429 221 c 1
 411 203 392 185 374 167 c 1
 376 165 377 163 379 161 c 1
 397 179 416 197 434 215 c 1
101 558 m 1
 112 547 l 1
 126 560 141 573 155 586 c 1
 151 590 149 593 145 597 c 1
 130 584 116 571 101 558 c 1
122 538 m 1
 109 531 101 529 97 524 c 0
 91 517 89 507 86 498 c 0
 85 496 88 493 90 490 c 1
 96 496 102 501 107 508 c 0
 112 515 114 523 122 538 c 1
409 277 m 0
 407 280 405 282 403 285 c 1
 390 273 376 260 363 248 c 0
 365 245 368 244 370 241 c 1
 383 253 396 265 409 277 c 0
333 474 m 1
 333 485 l 1x29c0
 322 484 310 484 299 483 c 1
 300 480 301 474 302 474 c 0
 313 473 322 474 333 474 c 1
424 364 m 2
 429 359 l 1
 439 368 449 378 459 388 c 0
 460 389 456 393 455 396 c 1
 446 388 436 380 427 372 c 0
 425 370 425 366 424 364 c 2
410 375 m 1
 407 377 404 380 401 382 c 0
 395 374 389 366 384 358 c 0
 383 357 386 353 388 350 c 1
 395 358 403 367 410 375 c 1
90 697 m 1
 97 703 102 706 106 710 c 1
 101 713 96 716 90 717 c 0
 87 717 83 713 80 710 c 1
 83 707 85 702 90 697 c 1
82 613 m 0
 84 611 88 610 90 608 c 1
 95 616 101 623 106 631 c 1
 104 632 102 634 100 635 c 0
 94 627 88 621 82 613 c 0
EndSplineSet
Validated: 33
EndChar

StartChar: six
Encoding: 54 54 21
Width: 533
Flags: W
HStem: 95 34<237.713 318.633> 359 14<498.004 511.982> 473 33<204.426 300.88> 514 27<315.234 337.949> 653 28<320.19 352.537> 727 29<243.118 386.758>
VStem: 20 107<284.894 400.953> 245 58<544.097 605.68> 381 22<288.034 334.425> 436 22<649.094 684.605> 498 15<359.051 372.598>
LayerCount: 2
Fore
SplineSet
435 649 m 1
 436 651 436 654 436 657 c 0
 436 674 421 697 395 709 c 0
 370 721 342 727 315 727 c 0
 239 727 164 682 147 594 c 0
 144 578 133 561 133 546 c 0
 133 543 133 541 134 539 c 0
 136 533 137 527 137 522 c 0
 137 504 128 488 127 471 c 0
 127 468 137 461 141 462 c 0
 156 467 170 476 184 482 c 0
 220 497 256 506 291 506 c 0
 336 506 379 492 419 463 c 0
 448 442 462 400 483 367 c 0
 485 363 487 359 489 355 c 1
 492 359 495 362 498 366 c 0
 500 368 501 373 503 373 c 0
 506 373 510 371 513 370 c 0
 512 366 511 360 509 359 c 0
 481 350 484 326 481 305 c 0
 464 192 392 127 289 97 c 0
 284 95 279 95 273 95 c 0
 246 95 214 111 186 120 c 0
 64 160 20 270 20 370 c 0
 20 400 24 429 31 456 c 0
 48 519 73 581 104 638 c 0
 135 694 193 725 252 745 c 0
 274 752 296 756 318 756 c 0
 347 756 376 750 404 736 c 0
 442 717 458 689 458 649 c 0
 458 647 458 644 458 642 c 0
 455 576 398 514 335 514 c 0
 333 514 330 514 328 514 c 0
 303 516 277 528 256 542 c 0
 248 547 245 562 245 579 c 0
 245 608 255 645 272 653 c 0
 302 668 335 680 368 681 c 2
 369 681 l 2
 390 681 413 661 435 649 c 1
378 244 m 1
 374 245 371 247 367 248 c 1
 377 266 381 283 381 300 c 0
 381 337 363 373 357 409 c 0
 356 412 341 412 334 415 c 0
 327 418 319 423 315 429 c 0
 309 438 309 453 301 458 c 0
 285 469 270 473 254 473 c 0
 223 473 194 457 165 445 c 0
 147 438 127 419 123 402 c 0
 123 400 122 398 122 396 c 0
 122 380 134 361 138 343 c 0
 142 324 137 300 146 284 c 0
 170 240 198 198 227 157 c 0
 240 139 260 129 280 129 c 0
 296 129 311 135 323 149 c 0
 346 177 360 212 378 244 c 1
303 557 m 1
 307 552 310 546 315 544 c 0
 320 542 325 541 328 541 c 0
 334 541 338 546 342 560 c 0
 349 586 370 608 384 633 c 0
 387 638 386 644 387 650 c 1
 380 649 370 650 367 646 c 0
 346 619 305 605 303 557 c 1
187 145 m 1
 173 169 165 184 155 197 c 0
 151 202 142 202 136 205 c 1
 135 197 129 184 133 181 c 0
 147 169 164 160 187 145 c 1
403 288 m 1
 417 303 434 318 449 336 c 0
 453 340 453 348 455 354 c 1
 450 353 444 354 439 352 c 0
 407 341 403 316 403 296 c 0
 403 293 403 291 403 288 c 1
353 647 m 1
 343 651 341 653 338 653 c 0
 332 653 324 654 320 651 c 0
 308 641 297 629 286 618 c 1
 288 617 290 615 291 615 c 0
 308 624 325 632 353 647 c 1
418 438 m 1
 409 426 401 419 398 411 c 0
 396 407 402 399 404 394 c 1
 414 399 425 403 435 408 c 1
 430 416 426 424 418 438 c 1
45 367 m 1
 48 367 49 365 52 365 c 0
 59 378 66 390 72 403 c 0
 74 407 75 412 76 417 c 1
 71 417 63 419 62 417 c 0
 56 401 51 384 45 367 c 1
379 200 m 1
 382 190 383 184 385 179 c 1
 393 189 401 199 408 210 c 0
 409 212 405 217 403 221 c 1
 395 214 387 207 379 200 c 1
455 282 m 1
 451 285 449 287 445 290 c 1
 435 277 423 264 413 251 c 1
 416 249 419 246 422 244 c 0
 433 257 444 269 455 282 c 1
146 226 m 1
 138 231 130 238 128 237 c 0
 121 233 116 227 112 220 c 0
 111 218 115 213 117 209 c 1
 123 213 130 216 146 226 c 1
371 466 m 1
 367 460 360 456 361 451 c 0
 362 446 368 439 373 438 c 0
 379 437 385 443 391 445 c 1
 386 450 382 454 371 466 c 1
74 433 m 1
 83 442 90 448 95 455 c 0
 96 457 93 463 92 467 c 1
 85 460 77 453 70 446 c 0
 69 445 72 441 74 433 c 1
76 508 m 1
 84 500 l 1
 92 508 99 516 107 524 c 1
 100 531 l 1
 92 523 84 516 76 508 c 1
116 275 m 1
 112 280 109 283 107 286 c 1
 102 281 96 278 91 273 c 1
 94 270 97 265 98 265 c 0
 104 267 109 271 116 275 c 1
437 362 m 1
 445 366 451 368 454 372 c 0
 455 374 450 380 448 384 c 1
 444 381 439 379 436 375 c 0
 435 373 436 369 437 362 c 1
EndSplineSet
Validated: 1
EndChar

StartChar: seven
Encoding: 55 55 22
Width: 483
Flags: W
HStem: 100 30<23.3816 78.8105 172.875 202.693> 454 29<42.4062 229.994> 712 38<344.679 352.906> 719 31<130.625 318.996 346.094 353.991>
VStem: 319 25<687.722 712>
LayerCount: 2
Fore
SplineSet
109 483 m 1xd8
 135 483 162 483 188 483 c 0
 201 483 214 483 227 483 c 0
 233 483 242 490 244 495 c 0
 269 561 293 627 316 694 c 0
 318 699 319 703 319 707 c 0
 319 715 314 719 302 719 c 0
 300 719 298 719 296 719 c 0
 240 714 184 712 128 705 c 0
 117 704 105 689 97 678 c 0
 84 660 74 641 62 622 c 0
 59 617 54 613 49 612 c 0
 47 612 40 620 40 624 c 0
 37 653 32 681 32 710 c 0
 32 712 32 715 32 717 c 0
 32 725 50 738 60 739 c 0
 134 744 208 748 283 750 c 0
 289 750 296 750 302 750 c 0
 342 750 382 748 422 746 c 0
 450 745 463 734 463 711 c 0
 463 706 463 699 461 693 c 0
 457 677 447 664 441 649 c 0
 410 571 380 493 349 415 c 0
 323 350 298 285 269 221 c 0
 265 211 262 203 262 195 c 0
 262 183 267 173 277 162 c 0
 286 152 289 136 294 123 c 1
 280 118 267 110 253 109 c 0
 191 103 128 98 65 94 c 0
 55 93 44 95 35 100 c 0
 28 104 25 113 20 120 c 1
 26 123 32 130 39 130 c 0
 68 131 85 145 98 171 c 0
 137 252 179 331 219 412 c 0
 225 425 226 441 230 455 c 1
 216 455 202 454 188 454 c 0
 159 454 129 454 99 454 c 0
 84 454 70 454 55 454 c 0
 50 454 46 464 41 470 c 1
 46 473 51 479 56 479 c 0
 62 479 68 479 74 479 c 0
 86 479 97 479 109 479 c 1
 109 483 l 1xd8
189 193 m 0
 190 195 190 196 191 198 c 1
 180 203 169 210 158 213 c 0
 156 214 145 197 147 193 c 0
 157 171 170 150 182 129 c 1
 184 129 l 1
 194 137 204 145 212 154 c 0
 213 155 205 166 199 171 c 0
 188 180 176 187 160 197 c 1
 173 195 181 194 189 193 c 0
300 398 m 1
 288 408 279 415 270 423 c 0
 265 427 261 430 258 430 c 0
 253 430 250 425 246 414 c 0
 244 409 243 403 243 399 c 0
 243 377 264 366 278 352 c 0
 282 348 290 350 296 349 c 1
 296 358 299 369 295 375 c 0
 291 382 281 386 271 393 c 1
 282 395 289 396 300 398 c 1
352 590 m 1
 346 599 342 606 336 611 c 0
 330 616 323 619 316 623 c 1
 315 614 310 602 314 596 c 0
 325 577 338 560 352 544 c 0
 355 541 366 544 373 545 c 1
 371 552 371 562 367 565 c 0
 355 574 340 580 322 590 c 1
 352 590 l 1
303 490 m 1
 289 483 282 479 275 476 c 1
 292 463 308 449 325 436 c 1
 328 444 337 455 334 459 c 0
 326 471 313 480 303 490 c 1
244 235 m 1
 250 243 255 247 256 252 c 0
 257 257 255 264 252 266 c 0
 237 274 222 281 206 287 c 0
 204 288 199 281 195 278 c 1
 211 264 226 250 244 235 c 1
401 725 m 1
 390 719 385 716 380 713 c 1
 394 705 406 696 421 690 c 0
 424 689 432 697 438 701 c 1
 425 709 413 717 401 725 c 1
386 683 m 1
 372 676 366 672 359 669 c 1
 373 656 387 645 401 632 c 1
 404 636 412 641 411 643 c 0
 404 656 395 668 386 683 c 1
227 196 m 1
 231 199 236 201 236 203 c 0
 236 208 237 217 234 218 c 0
 216 227 197 235 179 242 c 0
 178 242 175 237 173 234 c 0
 191 221 209 209 227 196 c 1
232 287 m 1
 238 291 242 293 245 295 c 1
 234 304 224 313 212 320 c 0
 210 321 202 312 197 307 c 1
 209 300 220 294 232 287 c 1
349 642 m 1
 347 639 344 638 342 635 c 0
 354 622 365 609 377 597 c 0
 379 595 386 597 391 597 c 1
 391 601 391 608 389 610 c 0
 376 621 363 631 349 642 c 1
285 494 m 1
 295 500 301 505 308 509 c 1
 301 517 294 524 287 532 c 1
 283 523 278 516 275 507 c 0
 274 505 280 500 285 494 c 1
240 339 m 0
 238 337 238 335 236 333 c 0
 245 323 253 313 262 304 c 0
 265 301 271 300 276 299 c 1
 276 305 278 315 275 318 c 0
 264 326 252 332 240 339 c 0
57 679 m 0
 60 678 64 677 67 676 c 0
 74 688 82 701 89 713 c 1
 81 713 68 715 65 711 c 0
 59 702 59 690 57 679 c 0
141 131 m 1
 134 143 130 152 125 160 c 1
 121 152 115 144 113 136 c 0
 112 134 121 128 127 126 c 0
 130 125 135 129 141 131 c 1
320 540 m 0
 318 538 317 538 315 536 c 0
 324 526 333 516 342 506 c 0
 343 505 347 508 349 509 c 1
 341 519 333 529 325 538 c 0
 324 539 322 539 320 540 c 0
250 136 m 1
 255 140 258 142 261 145 c 1
 256 150 251 155 246 160 c 1
 243 155 240 150 238 145 c 0
 238 144 245 140 250 136 c 1
353 713 m 0
 351 713 348 712 346 712 c 0xe8
 345 703 345 694 344 685 c 1
 348 685 355 686 355 686 c 1
 355 695 354 704 353 713 c 0
EndSplineSet
Validated: 1
EndChar

StartChar: eight
Encoding: 56 56 23
Width: 467
Flags: W
HStem: 90 21G<206.5 225> 95 41<226 287.102> 440 49<190.667 262.083> 715 41<180.312 243.654>
VStem: 20 27<231.282 315.377> 50 27<590.5 635.443> 59 79<248.502 288.485> 78 60<258.469 329.395> 369 31<518.183 569 579.435 612.494> 426 22<229.46 317.219>
LayerCount: 2
Fore
SplineSet
225 90 m 1xbcc0
 188 96 150 100 113 109 c 0
 57 123 20 183 20 241 c 0
 20 244 20 247 20 250 c 0
 25 324 59 383 102 440 c 0
 105 444 106 452 106 460 c 0
 106 469 105 477 101 479 c 0
 67 502 56 537 51 572 c 0
 50 579 50 587 50 594 c 0
 50 661 91 733 173 752 c 0
 186 755 199 756 212 756 c 0
 302 756 392 690 399 600 c 0
 399 594 400 588 400 583 c 0
 400 540 385 502 350 474 c 0
 343 468 339 464 339 460 c 0
 339 456 344 452 353 449 c 0
 415 429 448 332 448 260 c 0
 448 244 447 229 443 216 c 0
 424 149 346 99 260 95 c 1
 226 95 l 1x7cc0
 226 93 225 92 225 90 c 1xbcc0
138 253 m 0x7ac0
 140 241 140 229 145 218 c 0
 149 208 163 203 165 193 c 0
 174 158 201 136 235 136 c 0
 241 136 247 137 253 138 c 0
 291 146 305 179 323 206 c 0
 326 211 330 217 330 222 c 0
 330 227 326 231 313 231 c 1
 313 231 310 243 312 245 c 0
 329 258 333 275 333 293 c 0
 333 300 333 306 332 313 c 0
 331 318 325 322 322 327 c 0
 318 333 314 339 313 346 c 0
 310 359 314 377 307 386 c 0
 294 403 275 417 257 430 c 0
 247 437 237 440 228 440 c 0
 213 440 198 432 188 415 c 0
 158 367 138 318 138 261 c 0
 138 258 138 256 138 253 c 0x7ac0
275 606 m 1
 272 618 263 641 259 665 c 0
 253 700 223 709 198 715 c 1
 197 715 l 2
 189 715 173 681 162 662 c 0
 158 655 157 646 157 637 c 0
 157 634 157 631 157 629 c 0
 160 595 165 560 168 526 c 0
 170 501 185 492 206 490 c 0
 212 489 218 489 224 489 c 0
 243 489 260 495 265 519 c 0
 271 543 271 569 275 606 c 1
426 257 m 0
 426 260 424 269 423 277 c 0
 421 291 420 304 419 318 c 1
 405 310 392 301 379 292 c 0
 374 289 371 283 367 278 c 1
 374 278 381 278 387 279 c 0
 391 280 395 283 399 284 c 0
 403 286 408 286 413 287 c 1
 413 281 415 274 412 271 c 0
 401 258 388 247 377 234 c 0
 365 220 354 205 344 190 c 0
 343 188 347 180 349 180 c 2
 350 180 l 2
 374 180 426 228 426 257 c 0
359 616 m 0
 339 601 320 584 302 567 c 0
 300 565 301 555 303 554 c 0
 304 554 306 553 307 553 c 0
 326 553 374 589 374 611 c 0
 374 614 360 617 359 616 c 0
66 330 m 1
 59 326 47 283 47 251 c 0
 47 244 47 237 49 231 c 0
 50 226 56 223 60 219 c 1
 65 227 69 235 74 243 c 1
 63 249 59 253 59 258 c 0x3ac0
 59 268 77 278 78 289 c 0x39c0
 78 296 83 303 81 309 c 0
 79 316 72 321 66 330 c 1
369 569 m 1
 347 546 328 526 311 507 c 0
 308 504 309 498 308 493 c 1
 314 493 320 491 324 494 c 0
 346 509 369 524 369 560 c 0
 369 563 369 566 369 569 c 1
145 655 m 1
 131 659 126 662 124 661 c 0
 109 652 95 644 82 633 c 0
 77 629 78 618 77 610 c 0x3cc0
 77 609 86 606 88 607 c 0
 105 620 121 635 145 655 c 1
291 453 m 1
 290 450 288 448 287 445 c 0
 298 435 308 424 320 417 c 0
 327 413 338 418 347 419 c 1
 347 419 347 427 346 428 c 0
 328 437 309 445 291 453 c 1
378 173 m 1
 375 176 373 180 370 183 c 1
 352 171 334 160 316 148 c 0
 313 146 312 141 310 137 c 1
 314 136 319 133 322 135 c 0
 341 147 360 160 378 173 c 1
78 164 m 1x39c0
 95 169 106 171 116 175 c 0
 120 177 125 185 125 190 c 0
 125 195 120 201 118 206 c 1
 112 203 105 201 101 197 c 0
 93 189 88 179 78 164 c 1x39c0
155 708 m 0
 154 711 152 712 151 715 c 1
 137 708 121 702 108 694 c 0
 105 692 106 684 106 678 c 0
 106 677 115 674 117 676 c 0
 130 686 143 697 155 708 c 0
367 327 m 0
 369 325 370 323 372 321 c 0
 383 328 394 333 403 341 c 0
 406 344 404 353 404 359 c 1
 399 358 391 358 388 355 c 0
 380 346 374 337 367 327 c 0
246 730 m 1
 257 718 264 710 273 702 c 0
 277 699 283 696 287 697 c 0
 291 698 295 703 299 706 c 1
 295 710 292 716 287 718 c 0
 275 723 263 725 246 730 c 1
136 546 m 1
 126 553 119 558 118 557 c 0
 110 550 104 542 98 534 c 1
 98 534 104 527 105 528 c 0
 114 532 122 538 136 546 c 1
320 636 m 1
 322 633 324 630 326 627 c 0
 337 634 348 639 359 646 c 1
 357 649 353 656 353 656 c 1
 342 650 331 643 320 636 c 1
129 153 m 1
 125 159 122 163 119 167 c 1
 113 161 106 156 100 150 c 1
 106 146 112 142 118 140 c 0
 120 139 124 147 129 153 c 1
352 380 m 1
 354 377 356 373 358 370 c 0
 368 376 379 381 389 387 c 1
 387 390 382 396 382 396 c 1
 372 391 362 385 352 380 c 1
152 403 m 0
 151 406 149 409 148 412 c 1
 137 406 125 400 114 394 c 0
 115 392 116 389 117 387 c 0
 129 392 140 398 152 403 c 0
113 240 m 1
 111 242 108 246 106 248 c 1
 99 240 92 233 85 225 c 1
 89 220 l 1
 97 227 105 233 113 240 c 1
EndSplineSet
Validated: 1
EndChar

StartChar: nine
Encoding: 57 57 24
Width: 462
Flags: W
HStem: 443 34<166.661 264.455> 708 50<135.625 259.051>
VStem: 173 33<218.993 250.711> 408 34<316.863 366.624>
LayerCount: 2
Fore
SplineSet
317 328 m 1
 317 349 317 369 317 390 c 0
 317 411 317 432 316 453 c 0
 315 463 310 469 303 469 c 0
 299 469 295 467 289 464 c 0
 265 449 237 443 208 443 c 0
 151 443 90 469 58 513 c 0
 42 535 34 563 34 593 c 0
 34 638 52 686 87 719 c 0
 118 748 150 758 183 758 c 0
 216 758 250 748 286 735 c 0
 373 704 407 638 425 559 c 0
 435 515 442 471 442 427 c 0
 442 368 430 309 399 252 c 0
 350 162 275 116 178 100 c 0
 159 97 140 93 121 93 c 0
 100 93 79 98 58 113 c 0
 33 131 20 161 20 189 c 0
 20 217 32 243 58 259 c 0
 82 274 112 285 139 286 c 0
 140 286 141 286 142 286 c 0
 184 286 206 257 206 210 c 0
 206 198 205 184 202 170 c 0
 200 161 201 152 201 142 c 1
 211 147 222 150 230 157 c 0
 267 191 297 254 317 328 c 1
122 600 m 1
 127 578 134 544 141 510 c 0
 142 507 147 504 150 502 c 0
 172 491 195 477 219 477 c 0
 229 477 240 480 251 486 c 0
 274 499 307 516 309 534 c 0
 309 538 309 541 309 545 c 0
 309 576 299 609 287 639 c 0
 269 684 245 708 214 708 c 0
 207 708 199 707 191 704 c 0
 149 690 139 650 122 600 c 1
334 293 m 1
 354 303 368 316 379 316 c 0
 380 316 380 316 381 316 c 0
 384 315 387 315 390 315 c 0
 407 315 406 329 408 342 c 0
 409 350 408 359 407 367 c 1
 395 360 380 355 370 345 c 0
 357 332 349 315 334 293 c 1
95 145 m 1
 97 141 100 136 102 132 c 1
 122 141 144 147 163 159 c 0
 170 163 169 179 172 190 c 1
 163 188 152 190 145 185 c 0
 128 173 111 158 95 145 c 1
303 217 m 1
 351 225 377 252 377 289 c 0
 377 291 377 293 377 295 c 1
 350 266 326 242 303 217 c 1
115 201 m 1
 134 209 154 217 173 227 c 0
 175 228 171 245 166 251 c 0
 162 255 147 257 143 253 c 0
 131 242 122 229 112 216 c 0
 110 213 107 210 106 206 c 2
 106 206 111 204 115 201 c 1
354 391 m 0
 355 387 357 384 358 380 c 1
 376 389 394 397 411 407 c 0
 414 409 414 417 415 422 c 1
 410 422 404 423 400 421 c 0
 384 411 369 401 354 391 c 0
150 725 m 1
 148 727 146 730 144 732 c 0
 129 719 114 706 99 693 c 1
 101 691 106 687 106 687 c 1
 121 700 135 712 150 725 c 1
364 498 m 1
 376 502 382 502 385 505 c 0
 393 513 400 522 407 532 c 0
 408 533 404 537 403 540 c 1
 394 533 385 527 377 519 c 0
 373 515 371 509 364 498 c 1
347 662 m 1
 333 673 325 679 316 685 c 0
 315 686 310 681 307 679 c 1
 313 671 317 662 324 655 c 0
 326 653 335 658 347 662 c 1
384 597 m 1
 376 586 369 580 365 572 c 0
 364 570 369 565 371 562 c 1
 379 568 387 574 394 581 c 0
 395 582 389 589 384 597 c 1
96 167 m 0
 94 170 91 172 89 175 c 1
 80 167 71 159 62 151 c 1
 65 148 70 144 70 144 c 1
 79 151 87 159 96 167 c 0
67 237 m 1
 69 234 70 230 72 227 c 0
 86 234 99 240 113 247 c 1
 112 249 110 252 109 254 c 0
 95 248 81 243 67 237 c 1
98 514 m 1
 102 515 105 515 109 516 c 1
 106 527 104 539 101 550 c 1
 98 549 94 549 91 548 c 0
 93 537 96 525 98 514 c 1
375 470 m 1
 368 477 l 1
 361 470 354 464 347 457 c 1
 355 449 l 1
 362 456 368 463 375 470 c 1
EndSplineSet
Validated: 1
EndChar

StartChar: colon
Encoding: 58 58 25
Width: 138
Flags: W
HStem: 100 18<53.956 89.4991> 453 18<49.5009 85.044>
VStem: 20 21<135.889 158.673 411.435 445.973> 98 21<125.074 160.594 412.327 435.111>
LayerCount: 2
Fore
SplineSet
119 145 m 0
 119 117 97 100 62 100 c 0
 40 100 21 120 20 145 c 0
 20 163 57 192 80 192 c 0
 100 192 119 169 119 145 c 0
71 124 m 0
 70 124 70 125 69 125 c 1
 74 138 79 152 83 165 c 0
 84 167 82 170 81 173 c 1
 78 172 74 171 73 169 c 0
 66 155 60 141 54 127 c 0
 53 125 56 119 58 119 c 0
 61 119 63 118 66 118 c 0
 86 118 98 130 98 150 c 0
 98 153 98 157 97 161 c 1
 88 148 79 136 71 124 c 0
55 155 m 1
 53 156 50 158 48 159 c 1
 45 152 42 146 39 139 c 0
 39 138 42 136 43 135 c 1
 47 142 51 148 55 155 c 1
20 426 m 0
 20 454 42 471 77 471 c 0
 99 471 118 451 119 426 c 0
 119 408 82 379 59 379 c 0
 39 379 20 402 20 426 c 0
68 447 m 0
 69 447 69 446 70 446 c 1
 65 433 60 419 56 406 c 0
 55 404 56 401 57 398 c 1
 60 399 65 400 66 402 c 0
 73 416 79 430 85 444 c 0
 86 446 83 452 81 452 c 0
 78 452 76 453 73 453 c 0
 53 453 41 441 41 422 c 0
 41 419 41 415 42 411 c 1
 51 424 60 435 68 447 c 0
84 416 m 1
 86 415 89 413 91 412 c 1
 94 419 97 425 100 432 c 0
 100 433 96 435 95 436 c 1
 91 429 88 423 84 416 c 1
EndSplineSet
Validated: 1
EndChar

StartChar: semicolon
Encoding: 59 59 26
Width: 140
Flags: W
HStem: 171 19<74.2337 80.6754> 443 18<50.5009 86.044>
VStem: 20 18<130.689 165.509 400.489 429.778> 102 19<130.125 157.094 404.005 425.111>
LayerCount: 2
Fore
SplineSet
21 415 m 0
 21 443 43 461 78 461 c 0
 100 461 119 441 120 416 c 0
 120 398 83 369 60 369 c 0
 40 369 21 391 21 415 c 0
69 437 m 0
 70 437 70 436 71 436 c 1
 66 423 61 409 57 396 c 0
 56 394 57 391 58 388 c 1
 61 389 65 390 66 392 c 0
 73 406 80 420 86 434 c 0
 87 436 84 442 82 442 c 0
 79 442 77 443 74 443 c 0
 54 443 42 431 42 411 c 0
 42 408 42 404 43 400 c 1
 52 413 61 425 69 437 c 0
85 406 m 1
 87 405 90 403 92 402 c 1
 95 409 98 415 101 422 c 0
 101 423 97 425 96 426 c 1
 92 419 89 413 85 406 c 1
73 190 m 2
 74 190 l 2
 100 190 121 165 121 137 c 0
 121 129 119 119 115 111 c 0
 103 87 89 61 61 50 c 0
 57 48 51 50 46 51 c 1
 48 55 50 60 53 64 c 0
 60 73 68 81 75 90 c 0
 80 97 76 99 68 99 c 0
 39 99 20 118 20 144 c 0
 20 168 46 190 71 190 c 0
 72 190 72 190 73 190 c 2
73 116 m 1
 87 119 102 139 102 151 c 0
 102 152 101 154 101 155 c 0
 101 156 99 158 98 158 c 0
 97 158 96 157 95 156 c 0
 88 144 81 131 73 116 c 1
84 169 m 1
 79 159 74 150 69 140 c 0
 68 138 67 135 66 132 c 1
 69 134 73 135 74 137 c 0
 79 145 83 154 87 163 c 0
 88 165 89 171 88 171 c 0
 83 173 79 175 74 176 c 1
 74 176 73 173 72 171 c 1
 76 170 79 170 84 169 c 1
65 174 m 1
 47 169 38 161 38 150 c 0
 38 148 38 145 39 142 c 1
 47 152 55 161 65 174 c 1
46 119 m 1
 55 133 60 142 66 152 c 0
 67 154 67 156 67 158 c 1
 65 157 61 157 60 155 c 0
 54 147 50 139 45 131 c 0
 44 129 45 127 46 119 c 1
EndSplineSet
Validated: 1
EndChar

StartChar: less
Encoding: 60 60 27
Width: 219
Flags: W
VStem: 20 180
LayerCount: 2
Fore
SplineSet
20 464 m 0
 22 468 23 472 26 475 c 0
 63 516 100 556 137 597 c 0
 153 615 167 634 183 652 c 0
 186 655 194 654 200 655 c 1
 199 650 199 643 196 639 c 0
 149 583 101 526 54 470 c 0
 52 467 52 459 54 456 c 0
 94 405 134 356 174 305 c 0
 177 302 172 292 170 285 c 1
 166 286 160 286 158 289 c 0
 120 348 79 404 26 451 c 0
 23 454 22 459 20 464 c 0
EndSplineSet
Validated: 1
EndChar

StartChar: equal
Encoding: 61 61 28
Width: 367
Flags: W
HStem: 332 19<25.0625 127.593 129 343.364> 462 22<22.5445 231 232.361 330.826>
VStem: 20 327
LayerCount: 2
Fore
SplineSet
231 462 m 1
 187 462 143 462 99 462 c 2
 33 462 l 2
 29 462 24 467 20 470 c 1
 23 473 26 480 30 480 c 0
 60 481 91 481 122 481 c 0
 188 482 254 483 320 484 c 0
 326 484 331 481 337 479 c 1
 331 474 326 466 320 465 c 0
 291 462 260 461 231 459 c 1
 231 460 231 461 231 462 c 1
129 355 m 1
 197 355 266 355 334 354 c 0
 339 354 342 349 347 346 c 1
 343 342 341 336 337 336 c 0
 306 335 273 334 242 334 c 0
 174 333 106 333 38 332 c 0
 32 332 26 335 20 337 c 1
 26 342 32 350 38 351 c 0
 68 354 99 355 129 357 c 1
 129 355 l 1
EndSplineSet
Validated: 1
EndChar

StartChar: greater
Encoding: 62 62 29
Width: 185
Flags: W
VStem: 21 30<621.094 637.848>
LayerCount: 2
Fore
SplineSet
30 641 m 1
 36 635 51 639 51 627 c 0
 51 625 51 623 50 621 c 0
 49 616 53 608 57 602 c 0
 88 559 118 516 162 484 c 0
 165 482 167 473 165 470 c 0
 128 414 90 359 53 303 c 0
 50 298 52 289 48 284 c 0
 43 278 36 275 29 271 c 0
 27 270 23 272 20 272 c 1
 21 278 20 285 23 289 c 0
 46 322 70 354 93 387 c 0
 110 412 126 437 142 463 c 0
 144 466 142 472 140 475 c 0
 109 512 77 549 46 587 c 0
 37 598 30 610 23 622 c 0
 21 626 20 631 21 635 c 0
 22 637 26 639 30 641 c 1
EndSplineSet
Validated: 1
EndChar

StartChar: question
Encoding: 63 63 30
Width: 447
Flags: W
HStem: 100 23<192.63 203.858> 196 27<194.859 253.866> 461 40<66.0915 79.8565> 704 46<154.081 308.588>
VStem: 20 79<532.5 638.5> 157 19<160 180.445> 164 25<525.144 541> 255 26<135.097 147>
LayerCount: 2
Fore
SplineSet
428 602 m 1xfb
 428 527 401 484 361 451 c 0
 308 407 252 366 196 324 c 0
 192 321 183 322 177 321 c 1
 180 328 180 338 185 342 c 0
 207 359 231 373 252 391 c 0
 308 440 338 505 338 580 c 0
 338 631 297 683 247 698 c 0
 234 702 222 704 209 704 c 0
 168 704 129 684 105 650 c 0
 101 645 99 640 99 637 c 0
 99 632 104 630 114 629 c 0
 153 624 176 599 186 563 c 0
 188 556 189 549 189 542 c 0
 189 514 173 491 148 472 c 0
 138 465 125 461 110 461 c 0
 87 461 62 470 49 483 c 0
 29 503 20 522 20 543 c 0
 20 560 26 579 37 600 c 0
 74 673 127 729 205 747 c 0
 215 749 225 750 235 750 c 0
 269 750 306 740 339 729 c 0
 407 707 424 646 428 602 c 1xfb
47 531 m 1
 49 529 51 526 53 524 c 0
 58 528 64 532 69 536 c 0
 88 550 106 564 126 577 c 0
 130 580 137 577 143 577 c 1
 139 574 136 570 132 567 c 0
 111 550 90 533 70 515 c 0
 67 512 67 506 66 501 c 1
 70 501 77 498 80 500 c 0
 104 516 128 533 151 550 c 0
 156 554 163 566 161 569 c 0
 153 580 143 590 132 598 c 0
 130 600 120 591 114 587 c 0
 108 583 102 580 97 576 c 0
 80 561 64 546 47 531 c 1
119 482 m 1
 132 494 149 509 164 525 c 0
 167 528 164 536 164 541 c 1
 159 540 155 540 151 537 c 0
 135 526 119 513 103 501 c 0
 99 498 97 492 94 488 c 1
 99 487 105 486 119 482 c 1
410 573 m 0
 412 578 415 583 417 588 c 1
 408 591 397 599 392 596 c 0
 380 589 373 578 363 568 c 1
 370 561 380 547 383 549 c 0
 393 554 401 565 410 573 c 0
354 635 m 1
 366 643 375 650 384 657 c 1
 377 662 369 671 363 670 c 0
 354 668 346 658 338 652 c 1
 342 647 347 642 354 635 c 1
344 464 m 1
 357 480 368 492 378 504 c 1
 375 507 368 512 368 512 c 1
 359 501 349 491 341 480 c 0
 340 478 342 473 344 464 c 1
60 568 m 1
 75 581 88 591 101 602 c 1
 99 603 96 607 95 606 c 0
 82 596 70 585 58 575 c 1
 58 575 59 574 60 568 c 1
328 703 m 1
 323 697 316 692 317 688 c 0
 318 683 326 675 330 676 c 0
 337 677 343 684 350 688 c 1
 344 692 337 697 328 703 c 1
206 100 m 0
 185 100 157 129 157 153 c 0xfd
 157 185 198 223 232 223 c 0
 251 223 281 193 281 170 c 0
 281 127 257 100 206 100 c 0
237 174 m 0
 238 173 238 171 239 170 c 1
 225 158 210 146 196 133 c 0
 193 131 194 126 192 123 c 1
 196 123 201 122 204 124 c 0
 223 136 242 150 261 163 c 0
 264 165 264 169 265 173 c 1
 263 173 262 175 260 174 c 0
 256 173 252 171 249 169 c 1
 250 174 252 177 253 182 c 0
 254 185 255 190 254 192 c 0
 252 195 248 197 245 197 c 0
 243 197 241 192 239 189 c 0
 238 187 237 184 236 184 c 0
 212 180 184 156 178 134 c 1
 198 148 218 161 237 174 c 0
225 196 m 1
 224 196 223 196 222 196 c 0
 192 196 176 182 176 160 c 1
 192 172 207 183 225 196 c 1
216 121 m 0
 217 118 219 117 220 114 c 1
 231 121 243 127 254 135 c 0
 256 137 255 143 255 147 c 1
 252 146 249 147 246 145 c 0
 236 138 226 129 216 121 c 0
EndSplineSet
Validated: 1
EndChar

StartChar: at
Encoding: 64 64 31
Width: 499
Flags: W
HStem: 100 21<185.439 342.419> 272 18<230.006 266.67> 435 27<219.238 253.858> 450 20<295.812 337.577> 620 20<246.923 317.897>
VStem: 20 46<371.234 411.109> 64 24<300.329 321.001> 181 16<310 369> 273 46<368 415.629> 341 19<361.883 415.812> 399 80<475 565> 408 71<335.495 440.3> 408 33<410.095 437.672>
LayerCount: 2
Fore
SplineSet
359 405 m 1xddd0
 359 370 360 335 360 300 c 0
 360 296 362 292 363 288 c 1
 366 291 372 293 374 296 c 0
 397 331 408 367 408 404 c 0
 408 435 400 466 384 498 c 0
 378 510 373 524 371 537 c 0
 367 569 345 589 323 607 c 0
 311 616 299 620 286 620 c 0
 268 620 250 613 234 605 c 0
 184 582 147 543 129 491 c 0
 111 439 93 385 89 331 c 0
 89 326 88 321 88 316 c 0xdbd0
 88 265 107 215 133 170 c 0
 157 130 202 126 243 123 c 0
 257 122 270 121 284 121 c 0
 308 121 332 124 354 137 c 0
 375 149 394 167 414 182 c 0
 418 185 422 187 427 189 c 1
 428 181 432 171 429 166 c 0
 390 114 338 100 280 100 c 0
 270 100 259 100 249 101 c 0
 191 105 136 117 95 165 c 0
 53 214 34 272 25 333 c 0
 22 353 20 374 20 395 c 0
 20 414 22 434 26 452 c 0
 38 500 64 546 105 577 c 0
 159 617 220 640 287 640 c 0
 290 640 292 640 295 640 c 0
 323 639 355 629 377 612 c 0
 422 577 463 535 475 475 c 0
 478 460 479 446 479 431 c 0
 479 344 430 258 339 236 c 0
 333 234 326 234 321 234 c 0
 300 234 286 246 276 268 c 0
 275 271 265 273 262 272 c 0
 246 266 231 262 215 262 c 0
 199 262 183 266 169 276 c 0
 142 295 135 322 135 352 c 0
 135 360 135 369 136 377 c 0
 140 418 153 449 196 461 c 0
 198 462 201 462 203 462 c 0xedd0
 248 464 293 467 338 470 c 0
 339 470 340 470 341 470 c 0
 355 470 360 463 360 450 c 0
 360 435 360 420 360 405 c 1
 359 405 l 1xddd0
271 368 m 1
 272 368 l 1
 272 376 273 385 273 393 c 0
 273 397 273 401 272 405 c 0
 269 416 262 430 254 433 c 0
 251 434 246 435 242 435 c 0xe9c0
 234 435 224 433 219 428 c 0
 204 414 197 392 197 369 c 0
 197 337 211 304 237 291 c 0
 239 290 241 290 243 290 c 0
 250 290 260 294 267 298 c 0
 272 300 275 309 275 315 c 0
 275 333 272 350 271 368 c 1
80 506 m 0
 79 506 73 504 73 503 c 0
 74 497 76 492 78 487 c 0
 82 479 93 468 72 467 c 0
 55 466 48 465 48 460 c 0
 48 456 52 450 59 438 c 0
 61 434 60 425 57 421 c 0
 54 417 46 417 41 415 c 1
 45 410 49 404 54 400 c 0
 61 395 66 389 66 384 c 0xcdc0
 66 380 63 376 55 371 c 0
 53 370 53 361 55 358 c 0
 58 353 63 350 68 346 c 1
 70 351 73 355 74 360 c 0
 83 399 91 438 102 476 c 0
 103 481 104 485 104 488 c 0
 104 500 96 504 80 506 c 0
290 433 m 1
 293 426 294 420 297 418 c 0
 300 416 306 419 310 421 c 0
 317 424 325 427 331 432 c 0
 335 435 336 442 338 447 c 1
 329 448 319 450 310 450 c 0xd9c0
 307 450 304 449 301 449 c 0
 297 448 293 438 290 433 c 1
324 359 m 1
 339 362 341 374 341 388 c 0
 341 393 341 399 341 404 c 0
 341 408 336 412 334 416 c 1
 328 408 319 406 319 395 c 0
 319 384 322 371 324 359 c 1
341 317 m 1
 338 328 338 331 337 335 c 1
 334 333 328 334 326 331 c 0
 318 322 310 311 303 301 c 0
 302 300 305 294 307 291 c 1
 319 300 331 309 341 317 c 1
460 469 m 1
 454 476 452 479 449 482 c 1
 441 474 432 465 424 456 c 1
 429 449 l 1
 439 455 448 461 460 469 c 1
432 326 m 1
 425 329 421 331 420 330 c 0
 413 322 407 315 401 306 c 0
 401 305 404 302 405 300 c 1
 413 308 421 316 432 326 c 1
378 592 m 0
 376 591 374 588 372 587 c 1
 377 577 382 568 388 558 c 0
 389 556 395 556 399 555 c 1
 399 559 401 563 399 565 c 0xc9e0
 392 574 385 583 378 592 c 0
152 392 m 1
 157 386 159 382 162 379 c 1
 167 383 173 388 178 392 c 1
 174 396 172 402 168 402 c 0
 164 402 158 397 152 392 c 1
462 426 m 1
 458 432 457 435 455 438 c 1
 450 431 445 424 441 417 c 0xc9c8
 441 416 445 412 447 410 c 1
 452 415 457 420 462 426 c 1
413 544 m 1
 408 539 404 535 402 531 c 0
 401 530 408 522 409 523 c 0
 415 526 421 530 426 534 c 1
 423 537 419 539 413 544 c 1
89 205 m 1
 90 206 92 206 93 207 c 0
 92 212 92 218 90 222 c 0
 88 227 85 231 81 235 c 0
 80 236 76 234 74 234 c 1
 76 229 78 224 80 219 c 0
 83 214 86 210 89 205 c 1
150 565 m 1
 145 569 141 575 138 574 c 0
 134 573 129 567 130 565 c 0
 131 561 136 558 139 554 c 1
 150 565 l 1
320 280 m 1
 318 281 317 282 315 283 c 0
 311 277 306 272 302 266 c 1
 305 264 307 262 310 260 c 1
 320 280 l 1
63 298 m 1
 65 299 68 299 70 300 c 0
 68 307 67 315 64 322 c 0xcbc0
 64 323 58 321 55 321 c 1
 58 313 60 306 63 298 c 1
176 292 m 1
 179 301 181 306 181 310 c 0
 181 312 178 314 176 316 c 1
 173 313 167 310 166 306 c 0
 165 304 171 300 176 292 c 1
115 517 m 1
 119 522 123 525 124 529 c 0
 124 531 119 535 116 536 c 0
 114 537 108 533 108 532 c 0
 109 527 112 524 115 517 c 1
EndSplineSet
Validated: 1
EndChar

StartChar: A
Encoding: 65 65 32
Width: 746
Flags: W
HStem: 106 26<23.9844 97.6071 535.505 572.5> 462 23<292.527 455.49> 723 36<440.423 467.9>
LayerCount: 2
Fore
SplineSet
94 104 m 1
 74 104 55 104 35 105 c 0
 30 105 25 111 20 114 c 1
 24 119 27 124 32 128 c 0
 35 130 41 131 45 130 c 0
 52 128 58 127 64 127 c 0
 94 127 104 152 117 182 c 0
 151 262 192 340 229 419 c 0
 264 493 299 567 331 643 c 0
 332 645 332 648 332 650 c 0
 332 662 323 678 318 691 c 0
 311 708 302 723 294 739 c 1
 312 742 330 746 348 747 c 0
 351 747 355 747 358 747 c 0
 378 747 398 745 418 744 c 0
 426 744 437 741 440 745 c 0
 449 756 459 759 468 759 c 2
 509 747 l 2
 515 745 521 738 523 731 c 0
 534 699 543 667 552 634 c 0
 559 609 562 583 570 558 c 0
 603 459 636 359 671 260 c 0
 686 218 703 178 720 137 c 0
 724 128 726 121 726 116 c 0
 726 109 721 106 706 106 c 0
 704 106 702 106 699 106 c 0
 697 106 694 106 692 106 c 0
 665 106 638 97 610 92 c 0
 606 91 601 92 597 93 c 0
 581 98 564 103 548 109 c 0
 542 111 538 117 533 121 c 1
 538 125 544 132 548 132 c 0
 550 132 551 132 553 132 c 0
 567 132 573 137 573 146 c 0
 573 151 572 157 569 164 c 0
 538 256 508 348 476 440 c 0
 472 450 455 462 444 462 c 0
 419 463 393 464 368 464 c 0
 343 464 318 463 293 462 c 0
 283 462 267 453 263 444 c 0
 225 365 185 287 153 206 c 0
 151 202 151 197 151 192 c 0
 151 172 161 148 168 128 c 0
 170 122 171 117 171 113 c 0
 171 104 165 103 151 103 c 0
 132 103 113 103 94 103 c 1
 94 104 l 1
369 485 m 2
 419 485 l 2
 445 485 456 486 456 497 c 0
 456 503 452 512 447 525 c 0
 443 535 441 546 438 556 c 0
 424 597 409 637 394 678 c 0
 393 680 379 681 378 679 c 0
 348 621 319 561 291 502 c 0
 289 499 299 486 304 486 c 0
 315 485 325 485 336 485 c 0
 347 485 358 485 369 485 c 2
666 229 m 1
 660 238 657 247 650 252 c 0
 647 254 636 248 631 244 c 0
 616 231 601 218 589 203 c 0
 584 197 588 185 588 176 c 1
 595 177 603 175 608 178 c 0
 623 189 638 202 652 214 c 0
 657 218 661 223 666 229 c 1
543 571 m 1
 537 581 533 589 527 596 c 0
 526 597 516 593 512 590 c 0
 499 579 484 568 475 554 c 0
 473 551 473 547 473 543 c 0
 473 536 474 527 475 519 c 0
 475 517 483 513 483 513 c 1
 503 532 522 551 543 571 c 1
604 360 m 1
 585 337 565 315 547 292 c 0
 545 289 551 281 554 275 c 0
 555 274 563 276 566 279 c 0
 583 294 601 309 617 326 c 0
 622 331 622 340 622 348 c 0
 622 350 615 354 604 360 c 1
565 247 m 1
 569 237 570 230 573 228 c 0
 576 226 582 228 586 231 c 0
 602 243 618 255 633 269 c 0
 637 273 641 286 639 287 c 0
 631 293 617 302 614 300 c 0
 596 283 580 264 565 247 c 1
624 133 m 1
 642 145 661 157 679 172 c 0
 682 174 673 190 670 200 c 1
 665 198 658 198 654 195 c 0
 639 182 626 168 612 154 c 0
 608 150 606 145 603 140 c 1
 608 138 614 137 624 133 c 1
579 472 m 1
 572 479 569 486 566 486 c 0
 559 486 550 484 544 480 c 0
 530 470 517 458 505 445 c 0
 502 442 501 433 503 428 c 0
 504 423 513 417 513 417 c 1
 535 434 556 452 579 472 c 1
613 394 m 1
 601 397 588 402 584 399 c 0
 566 384 550 367 534 349 c 0
 532 346 535 336 538 331 c 0
 539 329 549 331 553 334 c 0
 569 346 584 360 599 373 c 0
 603 377 606 383 613 394 c 1
486 484 m 1
 493 477 l 2
 494 473 494 469 495 465 c 1
 498 466 503 466 505 468 c 0
 522 484 538 501 553 518 c 0
 557 522 557 532 555 538 c 0
 554 541 542 544 540 542 c 0
 521 523 504 504 486 484 c 1
459 566 m 1
 485 590 503 607 522 624 c 1
 516 629 507 640 506 639 c 0
 488 624 471 609 455 593 c 0
 452 590 457 581 459 566 c 1
443 619 m 1
 464 634 484 647 502 661 c 0
 505 663 506 675 504 677 c 0
 498 682 484 689 482 687 c 0
 467 669 453 650 440 631 c 0
 439 629 442 624 443 619 c 1
525 380 m 1
 529 377 534 375 538 372 c 1
 555 393 571 413 588 434 c 1
 583 437 574 444 573 443 c 0
 557 428 540 412 525 395 c 0
 522 392 525 385 525 380 c 1
420 684 m 1
 424 675 425 671 427 667 c 1
 431 669 437 670 440 673 c 0
 449 683 459 693 467 704 c 0
 470 708 470 715 468 719 c 0
 466 722 456 725 454 723 c 0
 442 711 431 697 420 684 c 1
348 730 m 1
 342 725 333 719 334 718 c 0
 338 710 344 703 350 695 c 1
 355 702 361 708 363 716 c 0
 364 719 355 724 348 730 c 1
EndSplineSet
Validated: 1
EndChar

StartChar: B
Encoding: 66 66 33
Width: 614
Flags: W
HStem: 101 30<219.188 338> 725 32<30.5858 73.2361>
VStem: 80 24<152 189.482 480.957 509.762 538.957 584.765 625.093 639.648> 114 71<314.047 352.763> 158 29<389.378 420.685 560.532 618.671> 429 22<530.713 647.408> 480 24<539.233 623.44> 504 18<193.328 372.701> 570 25<222.629 342.083>
LayerCount: 2
Fore
SplineSet
338 101 m 1xe680
 245 101 151 101 58 102 c 0
 52 102 46 110 40 115 c 1
 46 119 52 124 57 129 c 0
 64 136 76 144 76 152 c 0
 78 221 78 291 78 360 c 0
 79 453 80 547 80 640 c 0
 80 665 80 691 76 716 c 0
 75 722 60 726 51 731 c 0
 41 736 30 741 20 746 c 1
 31 750 43 757 54 757 c 0
 136 755 219 757 301 747 c 0
 353 741 406 724 451 699 c 0
 486 679 504 636 504 593 c 0
 504 558 492 523 469 501 c 0
 453 486 445 476 445 469 c 0
 445 460 457 454 482 444 c 0
 551 415 595 348 595 279 c 0
 595 261 592 243 586 226 c 0
 565 166 514 132 458 111 c 0
 420 97 379 94 339 86 c 1
 339 91 338 96 338 101 c 1xe680
500 284 m 1
 501 284 502 284 503 284 c 1
 503 302 504 319 504 337 c 0xf580
 504 350 503 364 502 377 c 0
 501 389 491 406 480 412 c 0
 393 464 294 458 198 464 c 0
 194 464 185 454 185 449 c 0xf680
 183 356 185 263 181 170 c 0
 181 168 181 165 181 163 c 0
 181 132 193 121 219 121 c 0
 223 121 227 121 232 122 c 0
 264 126 296 131 328 131 c 0
 340 131 353 130 365 128 c 0
 373 127 381 126 388 126 c 0
 425 126 456 141 488 156 c 0
 493 158 499 166 499 171 c 0
 500 209 500 246 500 284 c 1
317 482 m 0
 337 484 366 483 393 489 c 0
 406 492 422 508 424 520 c 0
 429 558 425 597 429 636 c 0
 429 639 429 642 429 645 c 0
 429 671 417 687 393 692 c 0
 339 705 284 712 230 724 c 0
 226 725 222 725 219 725 c 0
 199 725 192 710 187 693 c 0
 184 684 187 673 187 663 c 0
 187 639 187 616 187 592 c 0
 187 580 187 568 187 556 c 0xec80
 187 536 188 516 190 496 c 0
 190 494 198 490 202 490 c 0
 238 487 273 485 317 482 c 0
522 295 m 0xe580
 522 273 522 255 522 238 c 0
 522 230 522 222 522 214 c 0
 522 207 527 200 529 193 c 1
 535 197 543 199 547 205 c 0
 563 224 570 253 570 281 c 0
 570 313 561 345 542 366 c 0
 539 369 534 371 530 373 c 1
 528 369 526 365 526 361 c 0
 524 336 523 311 522 295 c 0xe580
158 603 m 0xec80
 157 604 151 612 146 619 c 1
 133 608 116 599 108 585 c 0
 105 580 104 574 104 567 c 0
 104 559 105 550 105 543 c 0
 105 542 113 538 114 539 c 0xf480
 132 553 158 561 158 597 c 0
 158 599 158 601 158 603 c 0xec80
103 332 m 1
 102 332 101 332 100 332 c 1
 102 326 104 320 106 314 c 1
 109 315 114 316 114 317 c 0
 114 322 112 328 112 333 c 0
 113 340 113 348 117 353 c 0
 127 366 140 376 149 389 c 0
 154 397 152 409 153 419 c 1
 153 419 144 422 142 420 c 0
 122 406 99 396 99 369 c 0
 99 365 100 360 101 355 c 0
 103 348 102 340 103 332 c 1
451 648 m 1
 451 543 l 2
 451 539 453 534 454 530 c 1
 458 532 464 534 467 538 c 0
 476 547 480 561 480 577 c 0xe680
 480 600 471 628 451 648 c 1
144 291 m 0
 142 294 139 298 135 302 c 1
 124 292 107 283 102 270 c 0
 101 267 100 264 100 260 c 0
 100 249 105 237 106 226 c 1
 116 239 127 251 136 265 c 0
 140 271 140 280 144 291 c 0
162 514 m 1
 158 531 157 536 156 542 c 1
 150 539 143 538 138 534 c 0
 128 527 117 520 109 510 c 0
 104 505 104 495 104 487 c 0
 104 485 112 480 114 481 c 0xf480
 131 492 148 504 162 514 c 1
124 159 m 0
 122 159 121 160 119 160 c 1
 125 178 131 196 137 214 c 1
 124 208 113 201 109 190 c 0
 105 179 107 165 106 152 c 1
 120 154 134 154 146 160 c 0
 151 162 150 178 151 187 c 1
 145 182 138 178 132 172 c 0
 128 168 127 164 124 159 c 0
106 664 m 1
 121 673 133 679 144 686 c 0
 149 689 153 695 157 700 c 1
 151 703 141 710 138 708 c 0
 125 700 113 689 101 679 c 0
 100 678 104 670 106 664 c 1
138 476 m 1
 124 462 112 451 101 439 c 0
 99 437 106 429 109 423 c 1
 122 436 134 449 146 462 c 0
 147 463 143 468 138 476 c 1
128 645 m 1
 125 647 123 649 120 651 c 1
 116 644 111 636 107 629 c 0
 107 628 110 627 111 625 c 1
 117 632 122 638 128 645 c 1
EndSplineSet
Validated: 33
EndChar

StartChar: C
Encoding: 67 67 34
Width: 654
Flags: W
HStem: 87 35<267.832 408.328> 712 38<311.739 446.003>
VStem: 20 46<509.1 543.611> 44 22<379.235 409.479> 601 33<642 683.86>
LayerCount: 2
Fore
SplineSet
320 750 m 0xe8
 324 750 329 750 333 750 c 0
 410 750 479 726 542 683 c 0
 548 679 553 677 557 677 c 0
 564 677 568 684 571 696 c 0
 577 718 582 743 610 743 c 0
 612 743 614 743 616 743 c 0
 623 742 633 733 633 727 c 0
 634 683 634 637 634 593 c 0
 634 588 632 578 630 578 c 0
 624 577 616 577 611 581 c 0
 591 596 566 610 554 630 c 0
 530 672 487 683 450 700 c 0
 432 708 409 712 387 712 c 0
 372 712 358 711 345 707 c 0
 296 693 254 659 222 617 c 0
 185 568 169 515 169 461 c 0
 169 425 176 388 188 351 c 0
 194 332 200 313 207 295 c 0
 235 223 281 166 356 145 c 0
 380 139 404 134 428 134 c 0
 467 134 504 145 537 177 c 0
 562 201 582 228 606 253 c 0
 611 258 620 259 627 262 c 1
 629 256 634 249 634 243 c 0
 633 204 632 165 630 126 c 0
 630 119 623 112 617 108 c 0
 614 106 606 109 601 112 c 0
 597 114 594 118 591 121 c 0
 579 136 567 144 553 144 c 0
 543 144 532 140 519 132 c 0
 467 101 413 87 357 87 c 0
 319 87 280 93 240 105 c 0
 180 123 133 153 99 202 c 0
 63 254 44 314 43 379 c 0
 43 384 44 390 44 396 c 0xd8
 44 406 41 415 25 418 c 0
 22 418 20 431 20 438 c 0
 20 441 20 443 20 446 c 0
 20 542 75 611 141 672 c 0
 177 705 214 742 268 746 c 0
 285 747 303 749 320 750 c 0xe8
184 612 m 1
 170 616 161 618 153 620 c 1
 162 626 170 633 179 639 c 0
 183 641 188 640 192 642 c 0
 213 654 233 667 253 679 c 1
 251 682 250 686 248 689 c 0
 230 680 213 669 194 664 c 0
 122 643 97 579 62 524 c 0
 60 521 64 511 67 509 c 0
 71 506 78 507 83 509 c 0
 104 519 124 530 145 541 c 0
 151 544 156 550 161 555 c 1
 141 555 l 2
 133 555 126 556 118 557 c 1
 122 566 123 578 130 583 c 0
 145 594 164 601 184 612 c 1
66 389 m 0
 67 387 69 380 71 373 c 1
 77 375 84 376 90 379 c 0
 107 388 124 397 139 408 c 0
 144 411 146 422 145 428 c 0
 144 436 141 448 135 450 c 0
 134 450 134 450 133 450 c 0
 116 450 67 409 66 389 c 0
117 223 m 1
 122 225 125 225 126 227 c 0
 142 253 158 278 174 304 c 1
 169 306 162 311 160 310 c 0
 139 294 120 277 101 259 c 0
 98 256 103 245 106 238 c 0
 109 232 113 228 117 223 c 1
236 185 m 1
 225 197 216 207 213 207 c 0
 200 207 174 182 164 175 c 1
 175 169 186 159 197 159 c 2
 198 159 l 2
 209 160 219 173 236 185 c 1
64 462 m 1
 70 451 72 446 75 441 c 1
 97 453 119 466 140 480 c 0
 144 482 142 494 142 501 c 1
 136 499 130 496 124 494 c 0
 113 490 102 486 92 481 c 0
 83 476 74 469 64 462 c 1
93 276 m 1
 106 296 116 312 126 328 c 0
 128 331 126 336 126 340 c 1
 117 333 106 328 98 320 c 0
 92 313 87 303 84 294 c 0
 83 291 88 285 93 276 c 1
78 333 m 0
 96 344 113 355 130 366 c 0
 134 369 137 375 140 379 c 1
 134 380 126 384 122 381 c 0
 106 371 89 358 74 346 c 0
 72 345 71 340 72 338 c 0
 73 336 75 335 78 333 c 0
147 186 m 1
 161 206 172 222 183 238 c 0
 183 239 181 241 179 243 c 0
 164 230 148 218 134 204 c 0
 133 204 140 196 147 186 c 1
316 124 m 0
 316 127 317 130 317 133 c 0
 301 134 285 135 269 136 c 0
 268 136 268 131 267 129 c 1
 282 126 297 124 312 122 c 0
 313 122 315 123 316 124 c 0
606 171 m 1
 602 176 598 184 595 184 c 0
 590 184 584 178 579 175 c 1
 585 169 590 162 596 156 c 1
 599 160 602 165 606 171 c 1
600 684 m 2
 593 684 l 1
 592 671 591 658 591 645 c 0
 591 644 598 643 601 642 c 1
 602 654 603 664 603 676 c 0
 603 679 601 681 600 684 c 2
242 711 m 0
 242 709 243 708 243 706 c 1
 257 709 271 711 285 714 c 1
 284 716 284 720 283 722 c 0
 269 718 256 715 242 711 c 0
133 327 m 0
 134 324 136 321 137 318 c 1
 145 323 153 328 161 334 c 0
 162 335 160 339 159 342 c 1
 150 337 142 332 133 327 c 0
EndSplineSet
Validated: 1
EndChar

StartChar: D
Encoding: 68 68 35
Width: 638
Flags: W
HStem: 93 36<36.3281 77.9219> 94 19<234.49 368.038> 721 36<50.3125 294.811> 730 27<36.2982 80.863>
VStem: 85 22<549.003 587.639> 186 25<167.098 182 267.035 301.89> 193 27<579.146 605.296 638.599 715.185> 502 117<310.11 469.903>
LayerCount: 2
Fore
SplineSet
85 213 m 1x89
 85 395 l 1
 85 649 l 2
 85 671 85 694 81 716 c 0
 80 722 64 725 56 730 c 0x99
 48 735 41 740 34 745 c 1
 42 749 50 757 58 757 c 0
 139 754 222 752 303 744 c 0
 379 736 447 702 494 643 c 0
 537 589 572 527 601 464 c 0
 613 438 619 408 619 376 c 0
 619 284 572 179 502 134 c 0
 474 116 439 103 406 99 c 0
 353 93 299 95 245 94 c 0x69
 212 93 179 92 146 92 c 0
 131 92 117 92 102 93 c 0
 76 94 50 104 24 111 c 0
 22 112 19 119 20 120 c 0
 25 125 32 133 36 132 c 0
 43 130 50 129 55 129 c 0
 74 129 79 141 79 159 c 0
 79 166 78 175 78 183 c 0
 78 193 80 203 81 213 c 1
 85 213 l 1x89
220 417 m 1x6b
 217 417 214 417 211 417 c 1
 211 357 211 297 211 237 c 0
 211 207 211 177 211 147 c 0x6d
 211 139 216 126 221 125 c 0
 247 120 274 113 301 113 c 0
 306 113 310 114 315 114 c 0
 367 120 417 132 468 145 c 0
 479 148 496 162 497 171 c 0
 501 222 501 273 502 325 c 0
 502 339 502 352 502 366 c 0
 502 391 502 415 502 440 c 0
 502 463 502 485 503 508 c 0
 503 519 504 531 504 542 c 0
 504 574 499 603 472 629 c 0
 414 685 342 706 266 720 c 0
 261 721 257 721 253 721 c 0
 230 721 220 706 220 679 c 0
 220 650 220 621 220 592 c 0
 220 534 220 475 220 417 c 1x6b
97 243 m 1
 110 239 116 235 121 236 c 0
 134 239 149 242 159 251 c 0
 170 261 186 280 186 289 c 0
 186 290 185 290 185 291 c 0
 181 299 177 302 172 302 c 0
 163 302 153 291 144 286 c 0
 135 281 127 276 119 270 c 0
 113 265 108 257 97 243 c 1
108 566 m 0
 108 564 107 562 107 560 c 0
 107 553 110 549 115 549 c 0
 119 549 124 551 130 554 c 0
 148 563 168 569 185 579 c 0
 190 582 191 593 193 600 c 0x0b
 193 601 186 604 182 605 c 0
 175 606 167 606 160 608 c 0
 159 608 158 608 156 608 c 0
 136 608 108 585 108 566 c 0
129 123 m 1
 147 137 167 151 186 167 c 0x0d
 188 169 185 177 185 182 c 1
 181 180 177 177 173 175 c 0
 168 173 159 168 158 169 c 0
 151 178 145 181 140 181 c 0
 126 181 118 158 106 155 c 0
 104 155 103 141 106 136 c 0
 109 131 116 130 129 123 c 1
119 359 m 0
 145 364 167 367 188 374 c 0
 192 375 192 390 192 399 c 0
 192 401 184 405 182 404 c 0
 160 396 139 388 118 379 c 0
 113 377 109 370 105 365 c 1
 111 362 116 360 119 359 c 0
131 627 m 1
 182 631 194 640 194 680 c 0
 194 682 194 683 194 685 c 0
 194 698 190 710 188 723 c 1
 179 716 171 709 163 701 c 0
 159 697 156 692 152 687 c 1
 158 687 165 687 171 686 c 0
 177 685 182 684 188 683 c 1
 185 677 183 671 179 667 c 0
 166 655 150 643 131 627 c 1
561 419 m 1
 548 404 536 393 527 380 c 0
 526 378 537 363 537 363 c 1
 554 373 571 384 588 395 c 1
 581 401 574 407 561 419 c 1
103 424 m 1
 119 423 129 421 137 421 c 0
 140 421 143 421 146 422 c 0
 162 428 176 437 190 446 c 1
 185 458 l 1
 160 448 135 438 103 424 c 1
551 307 m 1
 541 295 532 286 526 276 c 0
 524 272 529 264 531 258 c 1
 540 270 550 282 559 294 c 0
 560 295 556 299 551 307 c 1
159 315 m 1
 171 326 181 335 191 345 c 0
 192 346 186 352 184 356 c 1
 172 346 161 336 150 326 c 1
 150 326 154 322 159 315 c 1
113 515 m 1
 114 514 115 512 116 511 c 0
 138 522 159 534 181 545 c 1
 179 549 176 552 174 556 c 1
 154 542 133 529 113 515 c 1
560 243 m 1
 548 237 541 236 537 231 c 0
 532 226 529 218 526 211 c 0
 525 209 529 205 531 202 c 1
 536 207 542 212 546 218 c 0
 550 224 553 231 560 243 c 1
143 496 m 1
 130 509 l 1
 123 497 116 484 109 471 c 0
 108 470 111 466 112 464 c 1
 122 475 133 485 143 496 c 1
585 447 m 1
 575 453 569 459 567 458 c 0
 559 453 552 445 545 439 c 1
 548 437 551 433 553 434 c 0
 562 437 571 441 585 447 c 1
199 493 m 1
 191 499 186 505 185 504 c 0
 178 499 173 493 166 487 c 1
 171 485 176 480 180 481 c 0
 186 482 190 487 199 493 c 1
134 320 m 1
 129 323 125 326 125 326 c 1
 118 319 111 313 105 305 c 0
 104 304 108 300 110 297 c 1
 118 304 125 311 134 320 c 1
137 203 m 1
 135 206 134 209 132 212 c 1
 123 206 115 201 106 195 c 1
 110 189 l 1
 119 193 128 198 137 203 c 1
149 716 m 0
 149 719 148 723 148 726 c 1
 137 724 126 723 115 721 c 1x29
 116 719 119 714 120 714 c 0
 130 714 139 715 149 716 c 0
EndSplineSet
Validated: 1
EndChar

StartChar: E
Encoding: 69 69 36
Width: 674
Flags: W
HStem: 101 24<174.774 526.292 569 605.528> 472 25<178.637 396.493> 727 23<91.393 157.81 194.219 469.736>
VStem: 47 28<121.114 156.764 179 209.713> 48 34<551.004 576.078> 61 29<698 719.64> 150 23<557.442 581.764> 159 20<674.276 717.991>
LayerCount: 2
Fore
SplineSet
173 149 m 0xe2
 173 132 180 125 198 125 c 0
 265 125 332 124 399 124 c 0
 433 124 467 124 500 125 c 0
 518 126 537 145 552 160 c 0
 573 180 589 205 609 227 c 0
 613 232 624 234 630 232 c 0
 635 230 637 220 638 213 c 0
 641 182 643 151 643 120 c 0
 643 112 631 97 625 97 c 0
 534 95 443 95 352 95 c 0
 318 95 283 101 249 101 c 0
 234 101 218 99 204 96 c 0
 190 93 177 92 165 92 c 0
 148 92 132 93 115 94 c 0
 114 94 113 94 112 94 c 0
 96 94 79 86 63 85 c 0
 58 85 47 95 47 101 c 0
 48 212 49 324 50 435 c 0
 50 470 47 505 47 540 c 0xf2
 47 549 48 557 48 566 c 0xe8
 50 609 56 652 60 695 c 0
 60 698 61 701 61 703 c 0
 61 714 57 720 44 720 c 0
 42 720 39 720 37 720 c 0
 32 719 26 728 20 733 c 1
 26 738 31 748 37 748 c 0
 144 749 250 750 357 750 c 0
 409 750 462 748 514 747 c 0
 555 746 596 747 637 745 c 0
 643 745 654 731 654 723 c 0
 654 695 652 667 648 640 c 0
 647 631 638 622 630 616 c 0
 628 614 616 622 610 627 c 0
 585 652 562 678 536 701 c 0
 525 710 508 717 493 718 c 0
 422 723 352 725 281 727 c 0
 278 727 275 727 272 727 c 0
 246 727 219 724 193 720 c 0
 188 719 179 710 179 704 c 0xe5
 176 644 176 585 173 525 c 0
 173 524 173 523 173 522 c 0
 173 503 182 497 201 497 c 0
 242 498 283 498 324 498 c 2
 375 498 l 2
 383 498 391 488 399 483 c 1
 390 478 382 470 373 470 c 0
 343 469 314 467 284 467 c 0
 265 467 245 468 226 471 c 0
 220 472 214 472 209 472 c 0
 178 472 172 455 172 430 c 0
 172 424 173 418 173 411 c 0
 174 399 174 386 174 374 c 0
 174 349 173 324 173 299 c 0
 173 266 173 234 173 202 c 0
 173 185 173 166 173 149 c 0xe2
90 698 m 1xe5
 100 704 109 710 118 713 c 0
 125 715 135 711 143 710 c 1
 139 704 136 697 130 693 c 0
 116 683 99 674 79 662 c 1
 92 658 104 656 115 656 c 0
 134 656 148 664 154 686 c 0
 156 692 159 701 159 709 c 0
 159 718 154 726 137 726 c 0
 129 726 119 729 110 729 c 0
 99 729 90 725 90 704 c 0
 90 702 90 700 90 698 c 1xe5
617 155 m 1
 614 168 612 178 609 188 c 1
 602 181 594 173 588 166 c 0
 585 162 583 158 581 154 c 0
 577 145 573 135 569 126 c 1
 582 127 596 125 606 130 c 0
 613 134 614 147 617 155 c 1
95 114 m 1
 111 134 124 148 135 163 c 0
 137 166 136 170 137 174 c 1
 126 170 113 165 102 161 c 0
 98 159 92 160 89 157 c 0
 83 152 75 145 75 139 c 0xf0
 75 133 84 127 95 114 c 1
130 233 m 1
 125 238 l 1
 110 229 93 222 81 210 c 0
 75 204 77 190 76 179 c 1
 82 182 91 181 95 186 c 0
 108 201 118 218 130 233 c 1
64 275 m 1
 74 260 79 254 83 247 c 1
 95 262 107 276 119 291 c 1
 119 291 113 298 112 297 c 0
 97 291 83 284 64 275 c 1
628 697 m 1
 616 704 609 712 601 713 c 0
 593 714 584 709 576 707 c 1
 587 696 599 686 610 675 c 1
 614 680 618 685 628 697 c 1
159 401 m 1xe1
 145 415 l 1
 137 406 128 397 120 388 c 1
 125 386 131 381 134 382 c 0
 142 386 149 393 159 401 c 1xe1
127 572 m 1
 121 578 115 583 109 589 c 1
 100 579 90 568 82 557 c 0xe8
 82 556 87 551 88 551 c 0
 101 558 114 565 127 572 c 1
117 556 m 1
 120 553 122 550 125 547 c 1
 134 554 143 560 150 568 c 0xe2
 152 570 148 577 147 582 c 1
 137 573 127 565 117 556 c 1
118 499 m 1
 121 496 122 493 125 490 c 1
 133 498 142 506 150 514 c 0
 151 515 148 518 147 521 c 1
 137 514 128 506 118 499 c 1
EndSplineSet
Validated: 1
EndChar

StartChar: F
Encoding: 70 70 37
Width: 653
Flags: W
HStem: 102 29<154.494 182.717> 485 31<149.862 336.945> 723 34<270.721 508.755> 733 18<159.519 358.434>
VStem: 20 132<540.75 732.505> 37 110<211 238 257 282 326 352 416 483.888 528 535 540 663.626> 98 49<400.368 415.674> 124 23<210.096 256.673>
LayerCount: 2
Fore
SplineSet
146 348 m 1xd4
 146 322 148 296 148 270 c 0
 148 261 147 252 147 244 c 0xd1
 147 242 147 240 147 238 c 0xd4
 147 211 160 196 180 179 c 0
 195 166 208 150 218 133 c 0
 221 128 223 123 223 119 c 0
 223 109 213 103 199 102 c 0
 190 102 181 102 172 102 c 0
 154 102 135 102 117 102 c 0
 113 102 109 101 107 99 c 0
 95 86 85 81 75 81 c 0
 55 81 38 99 20 110 c 0xd8
 19 111 23 124 26 130 c 0
 29 137 34 144 36 151 c 0
 37 156 32 161 32 166 c 0
 34 278 37 389 37 501 c 0
 37 517 37 533 37 549 c 0xd4
 37 581 36 612 25 640 c 0
 22 649 20 656 20 664 c 0
 20 694 40 716 41 744 c 0
 41 747 49 751 54 751 c 0xd8
 156 753 259 756 361 757 c 0
 417 757 474 755 530 753 c 0
 558 752 585 750 613 745 c 0
 621 744 634 732 634 726 c 0
 632 692 627 659 621 625 c 0
 621 624 611 622 602 622 c 0
 596 622 590 623 587 625 c 0
 561 649 538 678 512 703 c 0
 501 714 484 722 469 723 c 0xe8
 371 728 272 731 174 733 c 0
 167 733 152 719 152 711 c 0xd8
 149 652 149 594 149 535 c 0
 149 528 161 516 168 516 c 0
 222 515 275 516 329 515 c 0
 338 515 347 508 356 504 c 1
 350 493 345 482 337 473 c 0
 336 471 324 478 317 481 c 0
 311 483 304 488 298 488 c 0
 252 488 205 487 159 485 c 0
 154 485 147 475 147 470 c 0
 147 458 147 446 147 434 c 0
 147 405 147 377 148 348 c 1
 146 348 l 1xd4
134 522 m 1
 120 530 112 540 107 540 c 2
 106 540 l 1
 92 534 78 524 65 516 c 1
 74 505 82 495 91 484 c 1
 103 495 116 506 134 522 c 1
124 242 m 0
 123 244 119 250 115 257 c 1
 100 240 85 223 71 205 c 1
 71 205 78 195 81 196 c 0
 103 201 124 207 124 242 c 0
88 416 m 1
 78 403 70 393 64 382 c 0
 62 379 69 372 72 366 c 1
 81 379 90 391 98 404 c 0xc2
 98 405 94 409 88 416 c 1
129 392 m 1
 126 395 122 398 119 401 c 1
 108 389 97 377 87 365 c 0
 85 362 86 356 85 352 c 1
 88 352 92 351 93 352 c 0
 105 365 117 379 129 392 c 1
115 326 m 1
 103 311 94 300 85 288 c 1
 89 286 95 281 96 282 c 0
 105 291 114 300 122 310 c 0
 123 312 119 318 115 326 c 1
130 150 m 1
 123 160 120 166 116 171 c 1
 110 161 103 150 97 140 c 0
 96 139 105 131 106 132 c 0
 114 136 120 143 130 150 c 1
156 167 m 1
 152 164 149 162 145 159 c 1
 152 149 158 139 166 131 c 0
 168 129 177 133 183 135 c 1
 174 145 165 157 156 167 c 1
62 153 m 1
 66 145 69 141 71 137 c 1
 78 147 85 156 91 166 c 0
 92 167 87 172 85 175 c 1
 77 168 70 161 62 153 c 1
124 588 m 1xc1
 122 590 120 593 118 595 c 0
 107 585 97 576 86 566 c 0
 87 564 89 563 90 561 c 1
 101 570 113 579 124 588 c 1xc1
EndSplineSet
Validated: 33
EndChar

StartChar: G
Encoding: 71 71 38
Width: 613
Flags: W
HStem: 98 36<289.183 435.516> 167 42<547 556.995> 378 32<318.389 555.038> 718 34<289.928 417.929>
VStem: 130 27<349.941 371.954>
LayerCount: 2
Fore
SplineSet
157 370 m 0
 156 308 175 254 212 206 c 0
 247 160 299 144 353 136 c 0
 361 135 368 134 376 134 c 0
 418 134 456 150 488 177 c 0
 509 194 526 221 534 247 c 0
 546 285 550 325 555 365 c 0
 556 369 545 378 540 378 c 0
 472 380 404 380 336 382 c 0
 330 382 323 389 317 393 c 1
 323 398 328 407 334 408 c 0
 353 411 372 411 391 411 c 0
 436 411 480 410 525 410 c 2
 559 410 l 2
 577 410 582 404 583 388 c 0
 586 315 590 241 593 168 c 0
 593 160 589 151 586 142 c 1
 578 145 569 147 563 152 c 0
 552 161 542 167 531 167 c 0
 521 167 512 162 500 152 c 0
 457 114 403 104 346 103 c 0
 319 103 292 98 265 98 c 0
 258 98 252 98 245 99 c 0
 219 102 193 116 171 130 c 0
 110 168 71 223 53 293 c 0
 42 334 31 374 21 415 c 0
 20 418 19 421 20 423 c 0
 55 497 83 576 127 644 c 0
 171 713 247 745 327 751 c 0
 332 751 338 752 343 752 c 0
 390 752 436 736 476 708 c 0
 483 703 492 700 499 695 c 0
 506 690 512 688 517 688 c 0
 525 688 531 694 535 708 c 0
 538 717 550 724 557 732 c 1
 562 723 569 713 571 703 c 0
 576 673 580 642 583 612 c 0
 584 604 579 595 576 587 c 1
 569 591 560 594 556 600 c 0
 516 655 462 690 397 708 c 0
 380 713 362 716 345 718 c 0
 335 719 324 719 315 715 c 0
 245 685 200 631 183 557 c 0
 169 496 159 434 147 372 c 0
 150 371 154 371 157 370 c 0
136 500 m 1
 141 500 l 2
 142 503 143 505 144 508 c 0
 147 521 151 535 154 548 c 0
 155 552 154 555 154 559 c 1
 150 558 146 558 143 556 c 0
 130 550 116 546 105 537 c 0
 95 529 89 516 81 505 c 0
 81 504 85 500 85 500 c 1
 94 506 102 512 111 518 c 0
 113 520 114 523 116 524 c 0
 120 526 125 527 130 529 c 1
 132 524 134 519 135 514 c 0
 136 510 136 504 136 500 c 1
129 391 m 1
 121 380 118 370 111 366 c 0
 105 362 94 366 89 362 c 0
 80 354 75 343 69 332 c 0
 69 331 78 322 83 322 c 0
 102 322 130 358 130 385 c 0
 130 387 129 389 129 391 c 1
198 657 m 0
 197 660 194 662 193 665 c 1
 181 655 169 644 157 634 c 0
 156 633 159 630 160 628 c 1
 172 636 183 644 195 652 c 0
 196 653 197 655 198 657 c 0
134 424 m 1
 133 424 134 426 133 426 c 0
 118 413 104 401 89 388 c 1
 91 386 93 384 95 382 c 1
 108 396 121 410 134 424 c 1
95 450 m 1
 93 451 92 453 90 454 c 0
 83 449 75 444 69 438 c 0
 65 434 65 426 63 420 c 1
 68 422 74 423 77 427 c 0
 84 434 89 442 95 450 c 1
569 238 m 1
 566 239 562 240 559 241 c 0
 555 230 551 220 547 209 c 1
 550 209 557 207 557 208 c 0
 561 218 565 228 569 238 c 1
234 131 m 1
 237 136 240 139 242 142 c 1
 237 145 232 148 227 149 c 0
 224 149 221 145 218 142 c 1
 223 139 227 136 234 131 c 1
110 274 m 1
 106 278 101 282 97 286 c 1
 94 279 91 271 89 263 c 0
 89 262 96 258 96 258 c 1
 101 263 105 269 110 274 c 1
184 183 m 1
 179 175 175 170 172 165 c 0
 175 163 180 160 180 160 c 1
 184 164 187 170 189 175 c 0
 190 176 187 179 184 183 c 1
EndSplineSet
Validated: 33
EndChar

StartChar: H
Encoding: 72 72 39
Width: 657
Flags: W
HStem: 90 21G<403 484> 164 32<518 531.903> 487 23<247.72 411.75> 721 29<134 222.983>
VStem: 217 24<403.797 444.673> 223 25<658 718.297> 548 24<248 293.045 330.191 349.5> 565 18<516.031 589.912>
LayerCount: 2
Fore
SplineSet
515 745 m 1xf4
 548 745 581 745 614 745 c 0
 629 745 637 739 637 730 c 0
 637 726 635 720 631 715 c 0
 583 653 583 582 583 509 c 0xf5
 582 403 574 296 572 190 c 0
 572 175 582 160 588 146 c 0
 594 133 603 121 607 108 c 0
 608 104 599 91 594 91 c 0
 550 90 506 90 462 90 c 2
 408 90 l 2
 398 90 387 98 377 103 c 1
 386 108 394 112 402 118 c 0
 406 121 411 126 411 131 c 0
 414 197 420 262 420 328 c 0
 420 345 420 363 419 380 c 0
 419 382 419 383 419 385 c 0
 419 407 427 427 427 447 c 0
 427 453 427 458 425 464 c 0
 423 473 411 487 404 487 c 0
 354 486 303 483 253 479 c 0
 249 479 241 468 241 463 c 0xfa
 238 357 236 252 235 146 c 0
 235 137 250 128 258 119 c 0
 262 115 266 112 270 108 c 1
 266 104 263 100 258 97 c 0
 254 95 249 93 244 93 c 0
 183 88 121 83 60 80 c 0
 59 80 58 80 57 80 c 0
 45 80 32 86 20 90 c 1
 24 101 28 111 31 122 c 0
 43 164 64 207 67 250 c 0
 75 353 76 457 79 561 c 0
 79 569 73 577 70 585 c 0
 68 590 66 596 68 600 c 0
 78 618 83 632 83 645 c 0
 83 662 74 676 55 698 c 0
 44 710 36 725 27 739 c 1
 44 741 61 745 78 746 c 0
 137 748 197 750 256 750 c 0
 266 750 275 741 285 736 c 1
 277 730 268 725 260 718 c 0
 255 714 248 708 248 702 c 0
 245 646 242 589 242 533 c 0
 242 517 249 510 264 510 c 0
 266 510 268 510 270 510 c 0
 318 514 366 516 414 521 c 0
 419 522 428 533 428 540 c 0
 430 590 431 641 431 691 c 0
 431 697 423 704 417 709 c 0
 409 716 400 722 391 728 c 1
 401 733 411 741 422 742 c 0
 438 743 452 743 468 743 c 2
 515 743 l 1
 515 745 l 1xf4
134 722 m 1
 134 709 l 1
 145 710 157 713 168 713 c 0
 180 713 192 711 204 709 c 1
 196 700 190 689 181 681 c 0
 158 661 135 643 108 621 c 1
 110 621 112 621 114 621 c 0
 152 621 174 660 210 660 c 0
 214 660 218 659 223 658 c 1
 223 667 223 677 223 688 c 0
 223 694 223 700 223 706 c 0
 223 712 217 721 213 721 c 0
 187 722 161 722 134 722 c 1
479 461 m 1
 542 482 565 509 565 563 c 0
 565 569 564 575 564 581 c 0
 564 585 554 592 554 592 c 1
 537 578 520 564 503 550 c 1
 515 546 522 549 530 550 c 0
 538 551 545 552 553 553 c 1
 550 545 547 535 542 529 c 0
 522 506 500 483 479 461 c 1
441 203 m 1
 444 200 447 196 450 193 c 1
 475 211 500 230 525 248 c 0
 529 251 535 251 540 251 c 0
 543 251 546 249 549 248 c 1
 549 262 549 277 548 291 c 0xf2
 548 292 540 294 539 293 c 0
 506 263 474 233 441 203 c 1
174 347 m 1
 188 340 195 337 202 334 c 1
 195 326 189 316 180 311 c 0
 157 298 133 287 110 274 c 0
 104 270 101 261 97 254 c 1
 104 255 113 256 119 259 c 0
 148 274 177 288 202 308 c 0
 212 315 211 337 214 352 c 0
 215 356 211 361 209 365 c 1
 198 360 188 354 174 347 c 1
133 378 m 1
 138 373 l 1
 156 381 173 391 191 397 c 0
 210 403 217 413 217 427 c 0xf8
 217 433 216 438 214 445 c 0
 213 448 204 452 203 451 c 0
 179 427 156 402 133 378 c 1
510 114 m 1
 520 123 532 134 545 145 c 1
 535 151 522 164 515 164 c 0
 514 164 514 164 513 164 c 0
 495 156 481 140 465 127 c 1
 476 124 489 120 510 114 c 1
477 300 m 1
 481 296 485 291 489 287 c 1
 507 301 526 315 543 330 c 0
 547 334 545 343 545 351 c 1
 540 348 535 348 530 344 c 0
 512 330 495 314 477 300 c 1
151 325 m 1
 144 334 138 341 138 341 c 1
 123 331 109 321 95 310 c 0
 93 309 97 300 99 295 c 1
 116 304 133 315 151 325 c 1
228 580 m 1
 221 592 218 596 215 601 c 1
 202 589 189 576 176 563 c 1
 176 563 182 556 183 556 c 0
 197 563 211 571 228 580 c 1
144 123 m 1
 182 128 207 154 205 182 c 1
 186 163 167 145 144 123 c 1
506 392 m 0
 505 394 503 395 502 397 c 1
 486 386 469 377 454 365 c 0
 450 362 451 353 449 347 c 1
 454 349 460 350 464 354 c 0
 478 366 492 379 506 392 c 0
449 582 m 1
 451 581 453 579 455 578 c 0
 473 593 492 609 510 624 c 1
 508 626 505 628 503 630 c 0
 485 614 467 598 449 582 c 1
96 524 m 1
 100 521 104 516 108 513 c 1
 121 527 135 543 148 557 c 1
 145 559 143 562 140 564 c 0
 125 551 111 537 96 524 c 1
536 674 m 1
 540 672 543 670 547 668 c 1
 552 680 558 692 563 704 c 0
 564 706 559 710 556 712 c 0
 555 713 550 709 549 707 c 0
 544 696 540 685 536 674 c 1
158 510 m 1
 157 511 156 513 155 514 c 0
 138 503 122 492 106 480 c 0
 103 478 102 472 101 468 c 1
 106 469 112 468 115 471 c 0
 130 483 144 497 158 510 c 1
154 238 m 1
 156 236 158 234 160 232 c 0
 177 245 193 258 210 271 c 0
 208 274 205 277 203 280 c 1
 187 266 170 252 154 238 c 1
486 193 m 1
 484 194 483 197 481 198 c 0
 467 185 453 171 439 158 c 1
 442 156 444 152 447 150 c 0
 460 164 473 179 486 193 c 1
550 225 m 0
 547 227 544 228 541 230 c 0
 533 219 526 207 518 196 c 1
 523 196 530 194 532 196 c 0
 539 205 544 215 550 225 c 0
483 490 m 1
 480 493 479 497 476 500 c 1
 467 492 458 484 450 475 c 0
 449 474 453 468 454 465 c 1
 464 473 473 482 483 490 c 1
131 381 m 1
 128 385 126 388 123 392 c 0
 119 393 115 394 113 393 c 0
 107 388 102 382 98 376 c 0
 97 374 104 366 104 366 c 1
 113 370 122 376 131 381 c 1
213 507 m 1
 216 516 221 522 222 529 c 0
 223 532 218 536 216 540 c 1
 209 534 203 527 196 521 c 1
 201 517 205 513 213 507 c 1
136 131 m 0
 134 134 132 136 130 139 c 1
 120 132 110 126 100 119 c 0
 102 116 104 114 106 111 c 1
 116 118 126 124 136 131 c 0
92 214 m 1
 96 210 100 205 104 201 c 1
 109 210 115 219 120 228 c 0
 120 229 116 232 116 232 c 1
 108 226 100 220 92 214 c 1
180 212 m 1
 182 209 183 207 185 204 c 0
 193 209 201 214 209 219 c 1
 209 219 207 225 205 228 c 0
 197 223 188 217 180 212 c 1
121 166 m 1
 116 170 113 174 108 178 c 1
 102 171 96 164 90 157 c 0
 90 156 94 151 95 151 c 0
 104 155 112 161 121 166 c 1
EndSplineSet
Validated: 33
EndChar

StartChar: I
Encoding: 73 73 40
Width: 266
Flags: W
HStem: 90 34<97.1875 134.632> 732 20G<194 228>
VStem: 71 19<479.456 559.881> 101 101<520 559.998> 182 18
LayerCount: 2
Fore
SplineSet
76 580 m 1xe8
 76 603 76 625 74 647 c 0
 73 657 66 668 60 677 c 0
 50 693 37 708 26 723 c 1
 42 730 58 740 75 742 c 0
 122 747 170 750 218 752 c 0
 219 752 219 752 220 752 c 0
 236 752 246 745 246 735 c 0
 246 730 244 724 239 717 c 0
 204 671 202 619 202 566 c 0
 202 558 202 550 202 542 c 0xf0
 202 456 200 370 200 284 c 0
 200 255 201 227 201 198 c 0
 201 181 221 164 230 147 c 0
 236 136 239 127 239 121 c 0
 239 109 228 104 204 103 c 0
 152 100 99 94 47 90 c 0
 45 90 44 90 42 90 c 0
 27 90 20 95 20 105 c 0
 20 110 22 117 26 125 c 0
 27 128 28 131 30 133 c 0
 65 160 67 197 67 234 c 0
 67 238 67 241 67 245 c 0
 67 249 67 254 67 258 c 0
 68 365 70 473 71 580 c 1
 76 580 l 1xe8
173 277 m 1
 140 236 113 201 86 167 c 1
 90 164 94 161 98 158 c 1
 117 194 174 202 174 260 c 0
 174 265 174 271 173 277 c 1
109 470 m 1
 159 485 180 501 180 527 c 0
 180 535 178 544 174 554 c 1
 151 525 130 497 109 470 c 1
182 392 m 0xe8
 182 395 182 398 181 401 c 0
 179 407 177 414 175 420 c 1
 172 413 170 407 167 400 c 0
 162 388 159 376 152 366 c 0
 144 354 132 344 122 333 c 0
 120 330 120 326 119 322 c 1
 123 322 126 320 129 321 c 0
 152 327 182 368 182 392 c 0xe8
97 478 m 1
 103 491 110 502 110 506 c 0
 110 513 101 520 101 525 c 0xf0
 101 538 117 547 122 558 c 0
 125 565 130 573 137 585 c 1
 102 565 90 559 90 533 c 0
 90 520 93 503 97 478 c 1
106 268 m 1
 109 265 112 262 115 259 c 1
 135 272 156 282 174 297 c 0
 180 301 178 315 179 325 c 1
 175 325 170 327 168 325 c 0
 147 306 127 287 106 268 c 1
124 666 m 1
 135 655 l 1
 150 671 166 687 180 703 c 0
 182 705 181 712 179 713 c 0
 176 715 170 715 168 713 c 0
 153 698 139 682 124 666 c 1
138 178 m 1
 126 164 114 152 102 138 c 0
 100 135 99 131 97 128 c 1
 101 127 105 124 109 124 c 0
 144 125 134 155 138 178 c 1
176 180 m 0
 174 181 171 182 169 183 c 1
 164 170 158 157 154 144 c 0
 153 142 158 135 160 135 c 0
 164 135 171 139 172 142 c 0
 175 155 175 167 176 180 c 0
145 628 m 1
 148 625 151 623 154 620 c 1
 164 631 172 641 182 652 c 0xe8
 181 653 180 653 179 654 c 0
 167 645 157 637 145 628 c 1
EndSplineSet
Validated: 1
EndChar

StartChar: J
Encoding: 74 74 41
Width: 392
Flags: W
HStem: 91 21G<166.5 178> 103 33<70.3577 126.894>
VStem: 175 142<328.938 373 446 464 494 498> 183 19<608.094 625.432> 292 24<250.146 271 483.196 514.045 643.13 661.132>
LayerCount: 2
Fore
SplineSet
20 207 m 0x48
 20 250 41 284 70 284 c 0
 72 284 74 284 76 284 c 0
 93 282 108 266 124 256 c 0
 130 252 138 243 141 244 c 0
 151 249 166 257 167 265 c 0
 172 296 175 327 175 358 c 0x60
 175 373 165 388 160 403 c 0
 159 407 156 414 157 415 c 0
 174 429 177 446 177 464 c 0
 177 474 176 484 176 494 c 0
 176 498 176 503 177 507 c 0
 181 538 178 569 182 600 c 0
 182 604 183 607 183 611 c 0
 183 652 151 672 121 692 c 0
 113 697 108 706 102 713 c 1
 110 718 119 724 128 726 c 0
 195 738 262 750 329 761 c 0
 331 761 334 761 336 761 c 0
 348 761 360 758 372 757 c 1
 369 743 366 729 363 715 c 0
 362 712 361 709 359 707 c 0
 321 670 314 627 314 582 c 0
 314 560 316 536 316 514 c 0
 316 512 316 510 316 508 c 0
 316 498 316 488 316 478 c 0x58
 316 426 317 374 317 322 c 0x60
 317 298 317 273 316 249 c 0
 314 200 290 161 246 136 c 0x48
 235 129 225 119 214 113 c 0
 200 105 186 91 170 91 c 0x88
 163 91 155 94 146 102 c 0
 142 105 134 103 128 103 c 0
 125 103 121 103 118 103 c 0
 57 103 20 141 20 207 c 0x48
85 136 m 1
 119 136 149 166 155 202 c 0
 157 211 155 222 154 231 c 1
 146 224 138 215 130 208 c 0
 116 194 101 181 86 168 c 0
 80 163 72 161 64 158 c 1
 72 149 80 141 85 136 c 1
209 451 m 0
 211 448 213 446 215 443 c 0
 239 456 265 467 288 483 c 0
 294 487 291 503 292 513 c 1x08
 292 513 286 515 284 514 c 0
 259 493 234 472 209 451 c 0
210 512 m 1
 217 505 l 1
 239 517 262 529 283 543 c 0
 289 547 288 560 290 569 c 1
 290 569 283 573 282 572 c 0
 258 552 234 532 210 512 c 1
209 216 m 1
 212 213 214 209 217 206 c 1
 240 220 263 234 285 250 c 0
 289 253 287 264 288 271 c 1
 285 271 280 274 278 272 c 0
 255 254 232 235 209 216 c 1
227 388 m 1
 231 384 235 381 239 377 c 1
 257 397 275 416 293 436 c 1
 288 439 281 447 280 446 c 0
 262 427 244 408 227 388 c 1
240 290 m 1
 242 288 243 286 245 284 c 0
 259 293 274 301 287 311 c 0
 290 313 289 320 290 325 c 1
 286 326 281 329 279 327 c 0
 266 315 253 302 240 290 c 1
274 205 m 0
 272 207 270 209 268 211 c 1
 228 171 l 1
 228 171 231 167 232 165 c 1
 245 176 258 187 271 198 c 0
 273 200 273 202 274 205 c 0
70 203 m 1
 88 217 95 223 103 229 c 1
 98 233 92 241 89 240 c 0
 79 237 70 231 63 224 c 0
 61 222 67 211 70 203 c 1
254 356 m 0
 256 353 257 349 259 346 c 0
 270 352 281 357 291 364 c 0
 293 365 288 375 286 381 c 1
 275 372 265 365 254 356 c 0
257 616 m 1
 272 633 281 644 289 654 c 0
 289 655 284 659 282 662 c 1
 272 652 262 642 252 631 c 0
 251 630 254 625 257 616 c 1
199 166 m 1
 196 170 193 172 190 176 c 1
 181 168 171 160 162 151 c 0
 161 150 165 145 167 141 c 1
 178 149 188 158 199 166 c 1
236 430 m 1
 224 425 218 424 215 420 c 0
 209 413 206 404 202 396 c 0x10
 201 394 205 391 207 388 c 1
 213 394 219 399 224 406 c 0
 228 411 230 418 236 430 c 1
239 647 m 1
 228 642 224 641 221 638 c 0
 214 630 208 621 202 613 c 0
 202 612 205 610 206 608 c 1
 213 615 220 621 227 628 c 0
 231 632 232 637 239 647 c 1
253 692 m 0
 255 689 258 687 260 684 c 1
 269 692 278 700 286 708 c 0
 287 709 284 712 283 715 c 1
 273 707 263 700 253 692 c 0
EndSplineSet
Validated: 1
EndChar

StartChar: K
Encoding: 75 75 42
Width: 676
Flags: W
HStem: 102 46<555.787 629.579> 121 31<605.375 653.016> 713 32<118.146 205> 731 33<557.497 629.998>
VStem: 90 29<681.013 704.716> 190 25<241.098 259.044 413.772 450.625> 200 15<318.771 378.578> 206 21<599.536 650.162>
LayerCount: 2
Fore
SplineSet
215 383 m 1x8a
 215 338 215 292 215 246 c 0x8c
 215 223 215 201 215 178 c 0
 215 160 217 149 237 144 c 0
 247 142 256 134 264 126 c 0
 268 122 270 113 268 108 c 0
 266 103 258 100 252 98 c 0
 250 97 247 97 245 97 c 0
 240 97 235 98 230 98 c 0
 221 98 214 95 212 80 c 1
 212 80 203 81 199 81 c 0
 165 82 131 83 97 83 c 0
 83 83 70 81 57 81 c 0
 53 81 48 82 44 82 c 0
 35 83 20 90 20 95 c 0
 20 105 24 119 32 125 c 0
 60 147 77 175 77 206 c 0
 77 214 76 222 74 230 c 0
 70 245 68 260 68 274 c 0
 68 318 83 361 83 405 c 0
 83 408 83 411 83 414 c 0
 83 424 82 434 82 444 c 0
 82 498 88 552 88 606 c 0
 88 619 77 632 70 644 c 0
 62 657 50 668 43 682 c 0
 38 691 36 699 36 706 c 0
 36 721 47 731 68 738 c 0
 79 742 88 753 98 761 c 0
 101 763 106 766 107 765 c 0
 126 749 147 745 168 745 c 0xaa
 187 745 206 748 224 748 c 0
 226 748 229 748 231 748 c 0
 258 747 273 742 273 729 c 0
 273 722 269 714 261 702 c 0
 231 657 227 609 227 559 c 0
 227 552 227 544 227 537 c 0
 227 519 237 499 249 486 c 0
 271 462 296 441 322 420 c 0
 326 416 342 418 345 422 c 0
 395 503 445 586 493 669 c 0
 496 674 491 687 486 694 c 0
 482 700 470 701 466 707 c 0
 459 717 455 728 450 739 c 1
 459 744 468 751 478 752 c 0
 521 757 565 762 609 764 c 0
 617 764 625 755 633 750 c 1
 625 743 617 731 608 731 c 0
 556 730 557 731 549 679 c 0
 548 674 546 668 543 664 c 0
 512 620 480 577 450 532 c 0
 423 492 398 451 373 410 c 0
 369 404 369 389 373 384 c 0
 430 316 489 248 546 180 c 0
 563 160 582 148 605 148 c 0x99
 613 148 621 149 630 152 c 0
 637 154 647 144 656 139 c 1
 649 133 643 123 635 121 c 0x49
 595 113 555 107 515 102 c 0
 514 102 512 102 511 102 c 0
 501 102 491 105 480 106 c 1
 483 114 484 124 489 131 c 0
 498 144 502 156 502 168 c 0
 502 184 494 199 477 215 c 0
 399 288 324 365 248 440 c 0
 242 446 233 449 225 454 c 1
 223 445 220 436 220 427 c 0
 220 422 220 417 220 412 c 0
 220 402 220 393 220 383 c 1
 215 383 l 1x8a
113 264 m 1
 163 279 200 304 200 353 c 0x0a
 200 361 199 370 197 379 c 0
 196 383 186 389 185 388 c 0
 156 363 127 338 99 313 c 1
 102 310 104 307 107 304 c 1
 122 313 136 323 151 331 c 0
 159 335 168 336 177 338 c 1
 173 328 171 315 164 308 c 0
 148 292 130 279 113 264 c 1
206 686 m 1x09
 193 670 185 659 177 649 c 1
 188 643 192 638 192 634 c 0
 192 625 176 619 171 611 c 0
 166 602 158 594 149 582 c 1
 200 591 206 596 206 661 c 0
 206 669 206 677 206 686 c 1x09
161 713 m 2x28
 154 713 147 714 140 713 c 0
 132 712 121 710 118 705 c 0
 115 699 119 689 119 681 c 1
 129 682 138 680 147 683 c 0
 156 685 163 692 172 696 c 0
 183 700 194 704 205 707 c 1
 191 709 177 711 163 713 c 2
 161 713 l 2x28
125 218 m 1
 127 216 128 213 130 211 c 0
 150 221 170 230 189 241 c 0
 192 243 190 251 190 256 c 0x0c
 190 257 184 260 182 259 c 0
 163 246 144 232 125 218 c 1
143 405 m 1
 180 411 195 419 195 436 c 0
 195 440 194 445 192 451 c 1
 175 435 159 420 143 405 c 1
145 424 m 1
 142 428 140 431 137 435 c 1
 127 427 116 420 106 411 c 0
 104 410 109 403 110 398 c 1
 122 407 133 415 145 424 c 1
146 185 m 0
 147 183 148 182 149 180 c 0
 157 183 167 185 173 190 c 0
 180 195 183 204 188 211 c 1
 181 208 172 207 166 203 c 0
 159 198 153 191 146 185 c 0
156 554 m 0
 155 556 153 557 152 559 c 1
 139 548 124 537 111 526 c 1
 111 526 114 522 116 520 c 0
 129 531 143 543 156 554 c 0
187 153 m 1
 184 155 182 158 179 160 c 0
 171 150 162 140 154 130 c 1
 157 128 162 124 163 125 c 0
 172 134 179 144 187 153 c 1
132 127 m 1
 125 132 120 137 119 136 c 0
 112 132 106 128 99 123 c 1
 102 120 107 112 109 113 c 0
 116 115 122 121 132 127 c 1
107 462 m 1
 110 461 112 460 115 459 c 0
 120 467 125 474 130 482 c 1
 125 483 117 486 116 484 c 0
 112 478 110 469 107 462 c 1
85 709 m 1
 78 701 71 696 72 694 c 0
 74 688 79 683 83 678 c 1
 85 682 90 685 90 689 c 0
 91 694 88 699 85 709 c 1
111 565 m 1
 114 564 116 563 119 562 c 1
 122 571 125 580 128 589 c 1
 125 590 123 591 120 592 c 1
 117 583 114 574 111 565 c 1
EndSplineSet
Validated: 1
EndChar

StartChar: L
Encoding: 76 76 43
Width: 568
Flags: W
HStem: 96 29<191.827 244.672 247.437 447.567 484.958 521.596> 98 30<104.25 136.954 211.188 245> 422 12<120.018 140.757> 704 45<21.4248 65.252> 717 33<105.999 130.578>
VStem: 67 18<160.393 185.761 217.003 337.1 359.938 476.121> 71 22<359 418.062> 82 16<628.329 669.372> 164 26<127.221 203.672 263.332 293> 179 18<470.594 533.578 540.744 577.718 602.54 648.447> 187 16<552.953 575.126 611.799 669.875> 522 27<126.254 177.016>
LayerCount: 2
Fore
SplineSet
245 129 m 1x7090
 297 126 348 123 400 121 c 0
 401 121 401 121 402 121 c 0
 433 121 452 140 469 163 c 0
 483 182 496 203 511 221 c 0
 515 226 526 231 532 229 c 0
 538 228 544 218 545 211 c 0
 547 186 549 161 549 136 c 0
 549 131 549 125 549 120 c 0
 549 112 539 99 533 99 c 0
 498 96 464 96 429 96 c 0xa090
 352 96 274 97 197 98 c 0
 179 98 161 101 144 101 c 0
 142 101 140 101 138 101 c 0
 108 100 78 94 48 93 c 0
 39 93 29 100 20 103 c 1
 23 111 25 124 31 128 c 0
 63 149 68 177 68 207 c 0
 68 221 67 236 67 250 c 0x6450
 67 305 69 360 71 415 c 0x6210
 73 465 75 516 77 566 c 0
 77 573 76 581 76 589 c 0
 76 593 76 596 77 600 c 0
 80 613 82 625 82 636 c 0
 82 665 70 688 35 704 c 0
 28 707 19 727 21 729 c 0
 30 738 43 749 55 749 c 0x7110
 77 750 99 750 121 750 c 2x2910
 253 749 l 2
 266 749 271 744 271 738 c 0
 271 734 269 729 265 723 c 0
 259 714 251 704 241 700 c 0
 208 685 203 659 203 627 c 0x3130
 203 573 198 518 197 464 c 0x3050
 197 454 205 444 208 434 c 0
 210 429 211 422 210 417 c 0
 204 371 195 325 191 279 c 0
 190 269 190 260 190 250 c 0
 190 230 191 211 191 191 c 0
 191 181 191 172 190 162 c 0
 190 159 190 157 190 154 c 0
 190 136 195 126 211 126 c 0
 215 126 219 127 224 128 c 0
 231 129 238 128 245 128 c 1
 245 129 l 1x7090
138 299 m 1
 130 294 124 289 117 286 c 0
 111 284 105 284 98 283 c 1x2110
 100 289 101 294 104 299 c 0
 116 316 130 334 142 351 c 0
 144 354 143 359 144 363 c 1
 141 363 138 363 136 362 c 0
 91 345 89 343 86 292 c 0
 85 279 85 266 85 253 c 0x2410
 85 227 89 215 101 215 c 0
 108 215 117 219 129 226 c 0
 143 235 156 249 165 263 c 0
 170 270 165 283 165 293 c 1
 158 289 152 285 145 281 c 0
 143 280 141 280 138 279 c 1
 138 299 l 1
98 645 m 0
 99 643 101 635 104 628 c 1
 116 636 137 643 139 653 c 0
 143 678 160 687 178 698 c 0
 183 701 185 713 183 719 c 0
 181 724 170 728 164 727 c 0x2190
 137 722 99 678 98 645 c 0
140 501 m 1
 97 485 90 482 90 456 c 0
 90 451 91 445 91 438 c 2
 91 419 l 2
 92 399 92 379 93 359 c 1x2210
 107 375 122 391 136 408 c 0
 139 412 140 418 142 424 c 1
 136 423 131 422 125 422 c 0
 117 422 108 423 100 424 c 1
 102 432 103 439 107 446 c 0
 116 462 126 478 140 501 c 1
176 534 m 1
 166 517 158 504 149 491 c 0
 140 478 130 465 122 451 c 0
 119 447 121 440 120 434 c 1
 125 435 130 434 134 436 c 0
 164 452 179 476 179 508 c 0x2050
 179 516 178 525 176 534 c 1
150 602 m 0
 151 600 153 598 154 596 c 1
 164 601 180 604 182 611 c 0
 187 628 186 648 187 667 c 0x2030
 187 668 178 671 176 670 c 0
 167 664 160 658 152 651 c 1
 155 648 159 646 161 643 c 0
 164 637 168 629 166 624 c 0
 163 616 156 610 150 602 c 0
164 127 m 1x2090
 164 140 164 153 164 165 c 0
 164 171 164 177 164 183 c 0
 164 190 161 197 160 204 c 1
 151 197 142 191 135 183 c 0
 132 179 131 169 134 165 c 0
 142 153 151 142 164 127 c 1x2090
136 207 m 0
 133 209 131 210 128 212 c 0
 116 203 102 197 92 186 c 0
 87 181 90 169 89 160 c 1
 96 162 106 162 110 167 c 0
 120 179 128 193 136 207 c 0
516 178 m 1
 506 165 494 153 485 139 c 0
 484 137 490 125 493 125 c 0
 494 125 496 125 497 125 c 0xa010
 517 125 522 133 522 144 c 0
 522 154 517 167 516 178 c 1
101 494 m 1
 117 518 129 536 140 554 c 0
 141 556 138 561 138 564 c 1
 127 555 116 547 106 537 c 0
 100 531 97 522 94 514 c 0
 93 511 96 506 101 494 c 1
91 588 m 1
 98 577 100 573 103 568 c 1
 115 583 127 597 139 612 c 1
 139 612 133 618 132 618 c 0
 119 608 105 599 91 588 c 1
135 527 m 1
 151 532 161 534 168 539 c 0
 175 544 179 552 182 560 c 0
 184 565 180 572 178 578 c 1
 171 573 162 569 157 562 c 0
 150 553 145 542 135 527 c 1
166 368 m 1
 155 353 147 341 139 329 c 1
 139 329 142 325 144 323 c 1
 154 334 163 345 172 356 c 0
 173 357 170 361 166 368 c 1
178 416 m 1
 171 422 166 426 166 426 c 1
 157 417 148 407 140 397 c 1
 146 391 l 1
 156 398 166 406 178 416 c 1
103 136 m 1
 103 125 l 1
 114 127 124 129 135 131 c 0
 136 131 136 137 137 140 c 1
 126 139 114 137 103 136 c 1
69 729 m 1
 62 723 60 720 57 718 c 1
 63 711 69 706 75 699 c 1
 77 702 81 707 80 709 c 0
 78 715 74 720 69 729 c 1
133 715 m 1
 132 718 132 722 131 725 c 1
 122 722 113 720 105 717 c 0x2810
 104 717 106 712 106 709 c 1
 115 711 124 713 133 715 c 1
EndSplineSet
Validated: 1
EndChar

StartChar: M
Encoding: 77 77 44
Width: 702
Flags: W
HStem: 101 25<453.575 499.684> 104 29<529.391 580.915> 231 22<153.819 163.775> 345 48<190.143 202.894> 504 49<344.011 396.987> 714 36<25.9416 86.6053> 727 19<638.555 681.904>
VStem: 74 24<227.625 251.05> 82 16<500.947 519.691> 209 9<394.296 414> 523 41<601 620.999> 587 24<159.723 193.671> 599 13<287.741 297.405 366.423 393> 602 22<480.859 644>
LayerCount: 2
Fore
SplineSet
218 414 m 1xb870
 218 327 218 239 219 152 c 0
 219 144 233 138 239 130 c 0
 243 125 247 118 248 112 c 0
 248 109 241 102 236 102 c 0
 178 100 121 98 63 97 c 0
 61 97 59 97 57 97 c 0
 36 97 25 100 25 109 c 0
 25 115 30 124 40 136 c 0
 68 171 74 210 74 250 c 0xb970
 74 259 73 268 73 276 c 0
 72 291 72 306 72 321 c 0
 72 405 80 488 82 571 c 0
 83 611 87 651 87 691 c 0
 87 705 83 714 69 714 c 0
 67 714 64 714 61 713 c 0
 54 712 45 711 39 714 c 0
 32 717 26 723 20 728 c 1
 26 732 32 737 38 740 c 0
 51 747 62 750 72 750 c 0xbce0
 108 750 130 713 157 694 c 0
 222 650 285 602 350 557 c 0
 354 554 362 553 369 553 c 0
 377 553 384 554 388 558 c 0
 452 609 514 662 577 715 c 0
 587 724 595 742 606 744 c 0
 615 746 623 746 632 746 c 0
 647 746 662 745 677 744 c 0
 679 744 683 737 682 736 c 0
 680 732 675 727 672 727 c 0
 671 727 671 727 670 727 c 0
 629 727 625 701 624 667 c 0x3ae4
 621 530 616 393 612 257 c 0
 612 253 612 249 612 245 c 0
 612 234 612 225 612 214 c 0
 612 210 612 206 612 202 c 0x3a68
 612 197 611 192 611 188 c 0
 611 175 614 163 630 154 c 0
 639 149 646 136 651 126 c 0
 654 121 655 116 655 112 c 0
 655 105 651 101 639 101 c 0
 638 101 637 101 636 101 c 0xba70
 609 102 583 103 556 104 c 0
 552 104 547 106 545 104 c 0x7870
 536 95 527 92 518 92 c 0
 502 92 485 101 469 101 c 0
 464 101 458 109 453 113 c 1
 457 118 463 126 467 126 c 0
 468 126 470 126 471 126 c 0
 501 126 505 144 505 165 c 0
 505 170 505 174 505 179 c 0
 504 208 503 238 503 267 c 0
 503 274 503 281 503 288 c 0
 504 324 511 359 513 395 c 0
 517 467 520 540 523 612 c 0
 523 619 520 626 518 633 c 1
 512 630 504 628 499 624 c 0
 465 596 432 568 399 539 c 0
 396 536 398 527 399 521 c 0
 399 516 401 511 402 506 c 1
 396 505 391 503 385 504 c 0
 341 510 327 556 290 573 c 0
 272 581 255 593 238 604 c 1
 234 584 229 564 228 544 c 0
 227 522 227 500 227 478 c 0
 227 456 227 435 227 413 c 1
 224 413 221 414 218 414 c 1xb870
532 434 m 0
 534 432 537 430 539 428 c 0
 552 435 564 445 578 447 c 0
 599 450 598 462 598 478 c 0
 598 521 601 563 602 606 c 0x3864
 602 619 601 631 601 644 c 1
 590 636 579 629 568 621 c 0
 567 621 566 620 566 619 c 0
 565 613 565 607 564 601 c 1
 569 602 572 603 577 603 c 2
 594 603 l 1
 591 597 590 591 586 587 c 0
 573 572 560 558 547 543 c 0
 545 540 545 536 544 532 c 1
 548 533 553 534 557 536 c 0
 566 542 574 548 582 554 c 0
 584 552 586 550 588 548 c 0
 576 533 563 518 551 502 c 0
 547 497 545 490 542 484 c 1
 548 486 554 487 560 489 c 0
 569 492 579 496 594 502 c 1
 570 476 551 455 532 434 c 0
539 393 m 0
 541 391 542 389 544 387 c 1
 548 391 552 396 557 398 c 0
 564 401 571 401 578 403 c 1
 575 397 574 392 570 387 c 0
 559 372 547 357 536 341 c 0
 534 338 537 332 538 327 c 1
 557 340 583 348 593 366 c 0
 598 375 599 386 599 398 c 0x3868
 599 410 598 421 598 433 c 0
 598 436 588 442 588 442 c 1
 571 426 555 410 539 393 c 0
208 426 m 1
 208 424 206 433 204 441 c 1
 197 437 189 432 182 428 c 0
 166 418 151 408 135 398 c 0
 123 391 112 383 101 375 c 0
 100 374 103 365 104 365 c 0
 116 367 130 368 141 373 c 0
 156 379 172 395 184 395 c 0
 185 395 186 395 187 395 c 0
 192 394 196 393 199 393 c 0
 207 393 209 398 209 407 c 0
 209 412 209 418 208 426 c 1
99 516 m 0
 99 512 98 508 98 504 c 0x38e0
 104 500 113 492 116 494 c 0
 145 510 173 527 201 545 c 0
 205 547 206 553 208 557 c 1
 203 557 198 559 194 557 c 0
 168 547 143 537 117 526 c 0
 111 523 105 519 99 516 c 0
587 179 m 2x7870
 587 179 584 187 580 194 c 1
 563 177 546 160 529 143 c 1
 535 139 541 133 546 133 c 0
 568 135 587 139 587 172 c 0
 587 174 587 176 587 179 c 2x7870
191 618 m 0
 194 616 197 613 200 611 c 1
 196 609 193 608 189 606 c 0
 164 590 139 574 115 558 c 0
 111 556 110 551 107 547 c 1
 110 546 113 542 114 543 c 0
 144 560 175 576 203 596 c 0
 205 598 206 601 206 605 c 0
 206 612 204 622 204 630 c 0
 204 631 198 632 198 631 c 0
 196 627 193 623 191 618 c 0
614 693 m 1
 599 694 592 696 589 694 c 0
 573 683 559 672 545 659 c 0
 542 656 544 646 545 639 c 0
 545 637 552 634 552 634 c 1
 570 651 588 668 614 693 c 1
107 466 m 0
 108 463 110 460 111 457 c 1
 144 473 177 489 209 505 c 0
 212 506 212 512 213 516 c 1
 209 517 203 520 200 518 c 0
 169 501 138 483 107 466 c 0
180 617 m 1
 175 622 168 630 167 629 c 0
 147 617 127 604 107 591 c 0
 106 590 107 585 108 581 c 1
 111 582 115 583 118 584 c 0
 136 593 153 602 171 611 c 0
 174 613 177 615 180 617 c 1
141 253 m 1
 143 253 144 253 146 253 c 0
 177 253 200 270 200 293 c 0
 200 296 199 301 198 304 c 1
 195 303 191 302 189 300 c 0
 173 285 158 270 141 253 c 1
113 119 m 1
 126 137 136 150 146 163 c 0
 144 165 140 169 139 168 c 0
 125 159 111 150 97 140 c 1
 101 135 104 130 113 119 c 1
594 329 m 0
 592 332 589 335 587 338 c 1
 568 320 548 302 529 284 c 1
 532 281 534 278 537 275 c 1
 556 293 575 311 594 329 c 0
165 232 m 0
 164 234 163 236 162 238 c 1
 147 227 132 217 118 206 c 0
 114 203 114 196 113 190 c 1
 119 190 129 188 132 191 c 0
 144 204 154 218 165 232 c 0
151 314 m 1
 153 312 154 308 156 306 c 0
 170 315 185 324 199 334 c 0
 202 336 202 341 203 345 c 1
 199 345 193 348 190 346 c 0
 176 336 164 325 151 314 c 1
147 204 m 1
 151 196 l 1
 165 201 179 206 192 213 c 0
 195 215 194 225 195 231 c 1
 191 231 185 231 182 229 c 0
 170 221 158 213 147 204 c 1
166 149 m 1
 171 151 177 153 182 155 c 0
 187 162 192 168 195 176 c 0
 196 179 191 184 188 189 c 1
 181 181 172 173 166 164 c 0
 164 161 166 154 166 149 c 1
170 363 m 1
 168 365 166 368 164 370 c 0
 145 355 124 340 105 325 c 1
 107 323 108 321 110 319 c 0
 130 334 150 348 170 363 c 1
561 208 m 1
 575 224 584 232 591 242 c 0
 592 243 587 248 585 251 c 1
 575 242 565 233 556 223 c 0
 555 222 558 218 561 208 c 1
557 275 m 1
 559 271 562 268 564 264 c 1
 574 272 584 280 594 289 c 0
 595 290 593 296 592 299 c 1
 580 291 569 283 557 275 c 1
133 254 m 0
 131 257 129 261 127 264 c 1
 117 257 107 249 98 241 c 0x3960
 96 239 100 232 101 227 c 1
 112 236 122 245 133 254 c 0
134 649 m 0
 135 646 136 643 137 640 c 1
 149 645 160 649 172 654 c 1
 171 656 169 660 168 660 c 0
 156 657 145 653 134 649 c 0
196 138 m 1
 191 144 189 148 186 151 c 1
 182 146 177 141 173 135 c 0
 173 134 179 127 181 128 c 0
 186 130 190 133 196 138 c 1
130 433 m 1
 128 435 125 437 123 439 c 0
 115 432 109 426 101 419 c 1
 103 417 104 415 106 413 c 0
 114 420 122 426 130 433 c 1
EndSplineSet
Validated: 33
EndChar

StartChar: N
Encoding: 78 78 45
Width: 607
Flags: W
HStem: 102 32<104.142 147.772> 109 28<553.141 582.833> 719 29<363.712 409.807 450.891 508.824>
VStem: 78 24<178.326 191.902 245.955 258.949> 174 25<436.097 448> 179 32<164.051 177.576> 418 29<541 569.582 591.231 612.857> 425 24<324.422 374.157> 512 27<294.237 315 355.409 407.039 579.143 594.267>
LayerCount: 2
Fore
SplineSet
199 548 m 1x7a80
 203 409 207 271 211 132 c 0
 211 128 214 124 216 120 c 0
 219 114 223 109 227 103 c 1
 219 99 211 94 202 93 c 0
 194 92 186 97 178 97 c 0
 140 99 101 100 63 102 c 0
 56 102 48 101 41 103 c 0
 33 105 27 111 20 115 c 1
 24 121 27 129 33 134 c 0
 68 164 78 199 78 244 c 0
 78 246 78 249 78 251 c 0
 78 262 78 274 78 285 c 0
 78 355 82 425 83 495 c 0
 84 535 84 574 84 614 c 0
 84 643 84 672 83 701 c 0
 83 706 67 712 58 717 c 0
 50 722 43 727 35 732 c 1
 43 736 51 740 60 743 c 0
 67 745 73 747 78 747 c 0
 100 747 110 727 127 709 c 0
 231 597 296 458 388 338 c 0
 390 336 391 333 393 331 c 0
 402 319 411 306 421 294 c 1
 422 309 425 324 425 339 c 0xb580
 423 436 420 532 418 629 c 0
 418 648 417 667 415 686 c 0
 413 706 404 719 381 719 c 0
 375 719 368 729 362 735 c 1
 369 739 375 748 382 748 c 0
 445 748 508 748 571 747 c 0
 576 747 585 742 585 740 c 0
 585 731 584 718 579 714 c 0
 546 693 539 663 539 626 c 0
 539 573 540 521 540 468 c 0
 540 415 539 362 539 309 c 0
 539 264 538 220 534 175 c 0
 534 173 534 170 534 168 c 0
 534 147 543 140 566 137 c 0
 574 136 580 125 587 119 c 1
 579 116 572 110 564 109 c 0
 560 109 556 108 553 108 c 0
 519 108 495 126 476 156 c 0
 413 254 348 351 284 448 c 0
 261 483 237 516 213 551 c 1
 208 550 204 549 199 548 c 1x7a80
449 344 m 0
 449 342 452 333 454 324 c 1
 462 329 471 332 478 338 c 0
 490 348 504 358 512 371 c 0
 515 375 516 381 516 387 c 0
 516 394 515 401 514 407 c 0
 514 409 506 413 502 412 c 0
 485 410 450 368 449 344 c 0
476 251 m 1
 487 265 500 279 510 294 c 0
 513 299 511 308 512 315 c 1
 506 314 498 315 494 311 c 0
 479 298 462 285 450 269 c 0
 446 263 447 248 452 242 c 0
 457 235 472 230 479 233 c 0
 490 237 498 248 507 256 c 1
 497 254 487 253 476 251 c 1
109 433 m 1
 133 450 151 462 169 475 c 0
 173 478 175 489 173 491 c 0
 169 495 159 498 156 496 c 0
 139 484 123 471 108 457 c 0
 105 454 108 445 109 433 c 1
449 541 m 1
 453 541 459 539 462 541 c 0
 478 553 493 565 508 579 c 0
 511 582 512 588 512 593 c 0
 512 595 507 598 504 598 c 2
 503 598 l 2
 485 598 449 565 449 541 c 1
110 168 m 1
 134 184 157 199 179 214 c 0
 181 215 181 221 179 223 c 0
 176 226 171 228 168 227 c 0
 147 216 126 205 106 192 c 0
 103 190 102 182 102 176 c 0
 102 174 106 171 110 168 c 1
458 591 m 1
 475 604 492 617 509 631 c 0
 512 633 513 643 511 645 c 0
 507 648 499 650 496 648 c 0
 480 637 465 625 450 613 c 0
 447 610 447 604 447 599 c 0x3280
 447 597 452 596 458 591 c 1
180 288 m 1
 175 291 168 296 166 295 c 0
 145 284 126 272 106 259 c 0
 104 258 105 252 104 248 c 1
 108 247 113 245 116 246 c 0
 135 255 154 264 172 274 c 0
 175 276 176 281 180 288 c 1
525 536 m 1
 509 543 502 548 500 547 c 0
 483 532 467 516 451 500 c 1
 455 493 l 1
 475 505 496 518 525 536 c 1
164 181 m 1
 146 169 126 157 106 144 c 0
 104 143 105 139 104 136 c 1
 107 135 112 133 115 134 c 0
 136 143 156 154 176 164 c 0
 179 165 180 172 179 175 c 0xb480
 178 178 172 178 164 181 c 1
494 690 m 1
 478 678 462 667 447 655 c 0
 445 653 445 646 447 643 c 0x3280
 449 641 455 640 458 642 c 0
 473 650 489 658 503 667 c 0
 506 669 510 675 509 679 c 0
 508 682 502 684 494 690 c 1
515 489 m 1
 508 491 502 495 499 494 c 0
 487 489 475 483 466 475 c 0
 459 468 455 456 450 447 c 1
 459 451 468 454 477 458 c 0
 484 461 492 465 498 470 c 0
 504 474 508 481 515 489 c 1
126 571 m 1
 144 583 160 595 177 606 c 1
 173 610 167 619 166 618 c 0
 149 607 134 594 118 582 c 1
 118 582 122 577 126 571 c 1
181 331 m 1
 173 334 168 337 165 336 c 0
 154 331 143 326 134 319 c 0
 123 311 115 300 105 290 c 1
 118 295 132 301 144 307 c 0
 156 313 166 321 181 331 c 1
516 195 m 1
 512 204 509 213 506 221 c 1
 497 215 486 210 477 204 c 1
 486 192 496 180 505 168 c 1
 509 176 512 185 516 195 c 1
110 409 m 1
 112 405 115 402 117 398 c 1
 136 411 155 423 173 436 c 0
 175 438 174 444 174 448 c 1x3880
 170 448 165 450 162 448 c 0
 144 435 127 422 110 409 c 1
449 410 m 0x3180
 451 407 454 405 456 402 c 1
 472 413 489 424 505 436 c 0
 509 439 508 447 510 453 c 1
 507 453 502 455 500 454 c 0
 482 440 466 425 449 410 c 0x3180
509 704 m 1
 508 707 508 711 507 714 c 0
 488 712 469 711 450 708 c 0
 446 707 442 702 438 698 c 1
 443 695 449 688 453 689 c 0
 472 693 490 699 509 704 c 1
128 539 m 1
 142 547 158 556 174 565 c 0x3880
 176 566 178 572 177 572 c 0
 174 574 170 578 168 577 c 0
 151 570 134 561 118 553 c 0
 116 552 115 547 114 544 c 1
 117 543 121 541 128 539 c 1
179 531 m 1x3480
 172 535 168 539 166 538 c 0
 149 528 131 519 115 508 c 0
 114 507 117 500 118 496 c 1
 137 507 156 518 179 531 c 1x3480
106 339 m 1
 108 336 110 333 112 330 c 0
 130 339 149 347 167 356 c 0
 170 358 172 363 174 366 c 1x3880
 170 368 164 372 161 371 c 0
 142 361 124 350 106 339 c 1
162 638 m 1
 150 644 145 649 142 648 c 0
 132 643 122 636 113 630 c 1
 116 626 121 619 122 619 c 0
 134 624 144 629 162 638 c 1
128 234 m 0
 129 232 130 229 131 227 c 0
 146 234 162 242 177 249 c 0
 176 252 174 254 173 257 c 1
 158 249 143 242 128 234 c 0
188 129 m 1
 182 134 178 139 175 139 c 0
 171 139 168 132 165 129 c 1
 169 126 173 122 177 121 c 0
 179 120 183 125 188 129 c 1
EndSplineSet
Validated: 1
EndChar

StartChar: O
Encoding: 79 79 46
Width: 605
Flags: W
HStem: 94 40<210.123 409.971> 731 28<222.823 357.72>
LayerCount: 2
Fore
SplineSet
20 421 m 1
 26 453 34 496 42 539 c 0
 58 622 107 684 178 725 c 0
 214 746 251 759 290 759 c 0
 318 759 346 752 376 737 c 0
 435 706 487 672 521 614 c 0
 559 548 586 480 586 408 c 0
 586 375 580 340 567 305 c 0
 553 268 528 234 507 200 c 0
 495 181 484 161 468 147 c 0
 451 132 429 120 408 113 c 0
 371 101 334 94 297 94 c 0
 271 94 245 97 219 104 c 0
 123 130 69 201 41 292 c 0
 30 329 28 370 20 421 c 1
493 408 m 1
 485 453 476 504 467 555 c 0
 455 621 431 678 367 713 c 0
 345 725 319 731 292 731 c 0
 240 731 187 709 160 667 c 0
 121 608 119 539 112 472 c 0
 111 458 110 445 110 431 c 0
 110 396 114 359 119 324 c 0
 128 262 139 200 201 164 c 0
 204 162 205 156 207 153 c 0
 212 146 218 134 223 134 c 0
 231 134 240 134 248 134 c 0
 259 134 270 134 281 134 c 0
 320 134 358 135 395 143 c 0
 422 149 455 180 462 207 c 0
 479 269 483 336 493 408 c 1
41 445 m 1
 48 436 53 431 56 427 c 1
 67 439 78 451 87 464 c 0
 89 467 82 475 79 481 c 1
 67 469 55 458 41 445 c 1
94 337 m 1
 87 349 84 355 81 361 c 1
 71 350 61 341 53 329 c 0
 52 327 61 318 65 312 c 1
 74 320 83 328 94 337 c 1
565 350 m 1
 553 354 547 357 546 356 c 0
 534 340 523 323 512 306 c 0
 512 305 517 301 520 299 c 0
 533 313 545 328 565 350 c 1
91 402 m 1
 85 411 83 414 80 417 c 1
 69 405 59 394 49 382 c 0
 48 381 55 374 59 370 c 1
 91 402 l 1
97 524 m 1
 90 529 84 533 84 533 c 1
 73 522 63 511 53 500 c 0
 52 499 58 493 61 490 c 1
 72 500 83 511 97 524 c 1
472 645 m 0
 469 644 467 641 464 640 c 1
 472 624 480 609 489 594 c 0
 490 592 495 591 499 590 c 1
 500 594 502 599 501 601 c 0
 492 616 482 630 472 645 c 0
120 236 m 1
 113 245 107 251 102 258 c 1
 98 253 89 245 90 242 c 0
 93 235 101 230 107 225 c 0
 108 225 114 231 120 236 c 1
106 574 m 1
 101 582 99 586 96 590 c 1
 89 582 82 575 76 566 c 0
 75 565 80 559 82 556 c 1
 89 561 97 567 106 574 c 1
525 268 m 1
 520 270 516 274 514 273 c 0
 507 269 500 264 495 258 c 0
 493 256 498 249 500 244 c 1
 508 251 515 259 525 268 c 1
519 541 m 1
 514 532 509 527 508 521 c 0
 507 518 512 513 514 509 c 1
 520 514 526 519 531 525 c 0
 532 526 525 533 519 541 c 1
EndSplineSet
Validated: 1
EndChar

StartChar: P
Encoding: 80 80 47
Width: 540
Flags: W
HStem: 101 52<235.55 277.399> 452 27<217.929 379.128> 718 32<206.45 293.248>
VStem: 71 90<655.747 699> 71 22<184.374 400.766> 106 110<210.219 288 304 313 376 393.875> 110 34<239.955 272.916> 183 22<671.094 705.316> 196 20<338.092 375.765> 404 116<565.776 629.342>
LayerCount: 2
Fore
SplineSet
71 684 m 0xf040
 70 704 62 718 39 722 c 0
 32 723 26 735 20 742 c 1
 29 744 38 747 47 748 c 0
 61 749 75 750 89 750 c 0
 92 750 96 750 99 750 c 0
 195 743 292 738 388 726 c 0
 454 718 502 682 517 613 c 0
 519 605 520 596 520 587 c 0
 520 531 485 461 418 458 c 0
 359 455 299 453 240 452 c 0
 223 452 216 448 216 431 c 0
 217 364 220 298 220 231 c 0
 220 196 229 169 264 153 c 0
 271 150 278 135 278 126 c 0
 278 124 278 122 277 121 c 0
 272 111 256 101 244 101 c 0
 225 100 205 100 186 100 c 0
 143 100 100 101 57 102 c 0
 49 102 41 110 33 114 c 1
 41 118 49 120 56 125 c 0
 61 128 67 134 67 139 c 0
 69 218 70 296 71 375 c 0
 71 401 71 427 71 453 c 0
 71 505 71 557 71 609 c 0xe8c0
 71 626 71 642 71 659 c 0
 71 667 71 676 71 684 c 0xf040
316 484 m 0
 325 482 334 481 343 481 c 0
 369 481 389 491 396 523 c 0
 401 547 404 573 404 598 c 0
 404 607 404 616 403 625 c 0
 400 657 390 692 352 700 c 0
 308 709 261 714 216 718 c 0xe0c0
 213 718 205 703 205 695 c 0xe140
 208 653 213 612 216 570 c 0
 216 565 217 560 217 555 c 0
 217 541 215 526 215 512 c 0
 215 507 216 502 216 497 c 0
 217 490 229 479 236 479 c 0
 263 479 289 482 316 484 c 0
93 291 m 1xec40
 92 291 l 1
 92 272 92 254 92 235 c 0
 92 226 92 216 92 207 c 0
 92 199 97 192 100 184 c 1
 104 192 110 201 110 209 c 0xea40
 109 235 103 262 103 288 c 0
 103 293 103 297 103 302 c 0
 103 331 105 360 106 389 c 0
 106 393 102 397 99 401 c 1
 97 396 93 392 93 387 c 0
 93 376 93 366 93 355 c 0
 93 334 93 312 93 291 c 1xec40
196 363 m 0xe0c0
 195 365 194 371 192 376 c 1
 192 376 185 376 183 374 c 0xe140
 169 358 156 341 143 324 c 0
 142 322 145 313 147 313 c 0
 167 313 196 340 196 363 c 0xe0c0
201 284 m 1
 195 296 194 301 191 304 c 0
 190 305 182 302 180 299 c 0
 168 284 157 268 146 252 c 0
 144 249 144 245 144 242 c 0xe240
 144 241 150 239 151 240 c 0
 168 255 185 269 201 284 c 1
145 599 m 1
 147 597 148 595 150 593 c 0
 162 600 175 607 186 615 c 0
 189 617 187 626 188 631 c 1
 183 631 178 632 175 630 c 0
 164 620 155 609 145 599 c 1
155 441 m 1
 167 456 178 469 188 482 c 1
 188 482 185 486 183 488 c 1xe140
 146 451 l 1
 146 451 150 447 155 441 c 1
165 655 m 1
 170 659 181 664 182 671 c 0
 182 673 183 675 183 677 c 0
 183 686 179 696 177 705 c 0
 177 706 170 706 168 705 c 0
 165 703 161 699 161 696 c 0xf140
 161 683 164 671 165 655 c 1
182 119 m 1
 187 122 192 124 197 127 c 0
 200 131 208 137 207 140 c 0
 205 149 201 157 197 166 c 1
 191 157 183 149 179 139 c 0
 177 133 181 126 182 119 c 1
479 523 m 1
 485 537 490 546 493 556 c 0
 494 558 489 562 487 565 c 1
 479 557 472 548 465 539 c 0
 464 538 471 531 479 523 c 1
157 398 m 1
 161 394 l 1
 169 399 179 403 186 410 c 0
 190 414 189 423 190 430 c 1
 185 427 178 425 174 421 c 0
 168 414 162 406 157 398 c 1
151 128 m 1
 157 141 162 149 165 158 c 0
 166 160 160 163 157 166 c 1
 151 158 145 150 139 141 c 0
 138 140 144 136 151 128 c 1
475 582 m 1
 481 593 486 603 490 613 c 0
 491 615 485 619 483 622 c 1
 475 614 466 607 458 599 c 1
 460 597 463 595 475 582 c 1
136 698 m 1
 134 701 132 704 130 707 c 1
 119 699 109 692 99 684 c 1
 99 684 100 680 101 678 c 1
 113 684 124 692 136 698 c 1
186 589 m 1
 179 580 174 575 169 569 c 1
 173 567 179 562 181 563 c 0
 186 566 189 573 192 578 c 0
 193 580 189 583 186 589 c 1
200 231 m 0
 197 233 194 234 191 236 c 1
 186 226 182 217 178 207 c 1
 184 204 l 1
 190 213 195 222 200 231 c 0
143 183 m 1
 150 196 155 203 158 210 c 0
 159 212 156 216 155 219 c 1
 149 213 143 207 138 200 c 0
 137 198 140 193 143 183 c 1
427 538 m 1
 430 536 434 534 437 532 c 1
 442 542 448 551 453 561 c 1
 450 561 445 564 444 563 c 0
 438 555 433 546 427 538 c 1
128 598 m 1
 125 601 123 604 121 606 c 1
 117 602 111 597 108 592 c 0
 107 591 113 586 115 583 c 1
 119 588 123 592 128 598 c 1
EndSplineSet
Validated: 1
EndChar

StartChar: Q
Encoding: 81 81 48
Width: 599
Flags: W
HStem: 66 21<130.686 145.625> 724 33<244.983 368.637>
VStem: 20 93<359.814 510.804> 466 34<268.469 297.002>
LayerCount: 2
Fore
SplineSet
393 96 m 1
 407 87 422 76 439 67 c 0
 442 65 453 70 457 75 c 0
 472 91 494 100 516 100 c 0
 531 100 546 96 558 87 c 0
 574 76 580 61 580 46 c 0
 580 37 578 28 574 19 c 0
 565 -2 547 -14 522 -14 c 0
 519 -14 517 -14 514 -14 c 0
 478 -11 454 5 432 34 c 0
 406 67 369 84 328 84 c 0
 326 84 323 84 321 84 c 0
 263 82 204 71 146 64 c 0
 138 63 130 65 122 66 c 1
 127 73 131 84 138 87 c 0
 161 95 186 100 211 107 c 1
 210 108 209 112 207 113 c 0
 128 146 89 214 54 286 c 0
 31 333 20 382 20 430 c 0
 20 482 33 533 58 581 c 0
 86 636 146 678 199 715 c 0
 242 744 277 757 308 757 c 0
 364 757 407 718 454 669 c 0
 506 615 544 554 561 481 c 0
 569 444 574 409 574 374 c 0
 574 288 546 209 473 143 c 0
 451 123 420 112 393 96 c 1
335 118 m 1
 354 122 375 123 394 130 c 0
 417 138 448 142 451 173 c 0
 457 228 466 283 466 338 c 0
 466 346 465 354 465 362 c 0
 461 440 445 518 432 595 c 0
 424 641 401 679 367 710 c 0
 355 721 343 724 331 724 c 0
 315 724 299 719 282 718 c 0
 212 713 136 638 129 576 c 0
 125 540 118 505 115 469 c 0
 114 454 113 439 113 424 c 0
 113 361 124 300 148 241 c 0
 152 232 166 228 174 220 c 0
 185 209 204 195 204 184 c 0
 204 182 204 180 204 178 c 0
 204 153 223 141 239 135 c 0
 269 124 302 123 335 118 c 1
46 500 m 1
 57 489 63 480 64 481 c 0
 73 487 82 493 90 500 c 1
 87 504 83 511 80 511 c 0
 71 509 62 506 46 500 c 1
501 581 m 1
 488 591 481 597 473 599 c 0
 470 600 462 590 461 585 c 0
 461 580 467 572 472 571 c 0
 479 570 486 575 501 581 c 1
518 432 m 1
 528 440 536 445 544 451 c 1
 540 455 537 460 533 464 c 1
 526 456 519 449 513 441 c 0
 512 440 515 437 518 432 c 1
70 462 m 1
 63 450 57 442 53 434 c 0
 52 432 58 427 60 424 c 1
 67 431 74 439 80 447 c 0
 81 448 76 454 70 462 c 1
105 564 m 1
 96 567 89 571 88 570 c 0
 81 564 76 555 71 548 c 0
 71 547 77 542 77 542 c 1
 85 548 93 554 105 564 c 1
532 387 m 1
 540 399 546 407 550 416 c 0
 551 418 547 423 545 426 c 1
 538 417 531 408 525 399 c 0
 524 398 528 394 532 387 c 1
531 76 m 1
 524 71 520 69 516 66 c 1
 526 61 536 56 546 51 c 0
 548 50 551 54 554 55 c 1
 547 62 540 68 531 76 c 1
523 538 m 1
 514 545 509 551 507 550 c 0
 501 546 495 539 490 534 c 1
 494 532 498 528 501 529 c 0
 507 530 513 533 523 538 c 1
536 333 m 1
 541 341 546 346 548 352 c 0
 549 355 545 360 543 364 c 1
 537 357 531 351 526 344 c 0
 526 343 530 339 536 333 c 1
488 268 m 1
 491 267 493 266 496 265 c 0
 500 276 504 286 508 297 c 1
 505 297 500 300 500 299 c 0
 496 289 492 278 488 268 c 1
503 486 m 1
 505 484 507 481 509 479 c 1
 516 486 523 492 530 499 c 0
 531 500 527 504 525 507 c 1
 518 500 510 493 503 486 c 1
81 356 m 1
 77 357 75 358 71 359 c 1
 69 349 67 340 65 330 c 0
 65 329 69 327 72 326 c 1
 75 336 78 346 81 356 c 1
89 272 m 1
 91 273 94 273 96 274 c 0
 95 282 94 290 93 298 c 1
 89 296 81 294 81 293 c 0
 83 286 86 279 89 272 c 1
545 279 m 1
 537 288 535 292 533 294 c 1
 528 288 523 282 519 276 c 0
 518 275 523 269 524 269 c 0
 531 272 538 275 545 279 c 1
492 57 m 1
 489 60 487 61 485 63 c 1
 480 57 475 51 470 44 c 0
 470 43 472 40 474 38 c 1
 480 44 485 50 492 57 c 1
509 218 m 1
 497 226 493 231 492 230 c 0
 488 227 484 222 483 218 c 0
 482 216 487 209 488 209 c 0
 494 211 500 214 509 218 c 1
EndSplineSet
Validated: 1
EndChar

StartChar: R
Encoding: 82 82 49
Width: 586
Flags: W
HStem: 107 26<55.8412 92.0533> 408 44<231.468 256.094> 426 27<315.188 412.096> 728 30<218.091 375.956>
VStem: 97 20<491.187 525.488 529 573.369> 180 16<205.797 304.617> 459 72<559.398 625.751> 466 65<534.827 587> 466 49<527.28 565.672>
LayerCount: 2
Fore
SplineSet
202 353 m 1xbc80
 200 301 200 248 196 196 c 0
 196 193 196 190 196 187 c 0
 196 163 204 147 227 135 c 0
 235 131 239 118 245 109 c 1
 235 104 226 96 216 96 c 0
 173 97 129 100 86 103 c 0
 79 103 72 104 67 107 c 0
 61 111 58 118 53 123 c 1
 59 126 65 133 71 133 c 0
 86 133 94 133 94 153 c 0
 94 308 94 463 97 618 c 0
 97 643 92 660 73 676 c 0
 57 690 42 705 28 721 c 0
 23 727 20 732 20 736 c 0
 20 743 27 747 38 749 c 0
 49 751 62 749 72 753 c 0
 83 758 93 766 103 774 c 0
 109 778 112 786 118 789 c 0
 120 790 126 780 131 777 c 0
 140 771 150 760 160 760 c 0
 227 758 295 758 362 758 c 0
 435 758 533 690 557 621 c 0
 563 603 567 585 567 568 c 0
 567 526 548 489 515 460 c 0
 490 438 447 434 411 428 c 0
 402 426 392 426 383 426 c 0
 364 426 346 428 327 428 c 0
 323 428 319 427 315 426 c 1
 317 422 317 417 320 415 c 0
 385 372 410 301 448 239 c 0
 469 205 501 178 529 149 c 0
 533 145 539 144 541 140 c 0
 544 132 544 123 546 115 c 1
 540 115 534 114 528 115 c 0
 415 139 339 211 281 306 c 0
 273 320 255 328 243 339 c 0
 239 343 237 348 234 352 c 0
 225 363 217 375 208 386 c 1
 205 375 202 365 199 354 c 1
 200 354 201 353 202 353 c 1xbc80
305 453 m 1
 305 452 l 1xde
 319 452 334 453 348 453 c 2
 359 453 l 2
 361 453 364 453 366 453 c 0
 409 453 435 479 454 514 c 0
 459 523 466 534 466 545 c 0xbd
 466 552 463 559 451 566 c 0
 449 567 447 574 449 576 c 0
 456 585 459 594 459 602 c 0
 459 619 447 633 438 648 c 0
 418 680 399 714 356 719 c 0
 314 724 271 726 229 728 c 0
 226 728 218 718 218 712 c 0
 214 632 210 552 208 472 c 0
 208 465 219 453 225 453 c 0xbe
 236 452 248 452 259 452 c 0xde
 275 452 290 452 305 453 c 1
124 248 m 0
 126 246 128 245 130 243 c 0
 137 247 144 251 152 254 c 0
 158 256 164 257 170 258 c 1
 168 252 168 245 165 240 c 0
 157 225 149 210 141 194 c 0
 139 191 141 186 142 182 c 1
 154 190 175 196 177 205 c 0
 180 222 180 239 180 257 c 0
 180 271 180 286 180 300 c 0
 180 302 170 306 169 305 c 0
 153 286 139 267 124 248 c 0
117 529 m 1
 141 545 162 557 181 572 c 0
 187 577 187 591 188 601 c 0
 188 602 181 606 178 606 c 0
 145 605 117 575 117 535 c 0
 117 533 117 531 117 529 c 1
543 573 m 1
 539 588 535 605 529 622 c 0
 527 627 514 633 514 633 c 1
 505 622 498 611 490 599 c 1
 496 597 502 593 508 593 c 0
 510 593 511 593 513 593 c 0
 526 593 531 589 531 581 c 0x9e
 531 576 529 571 526 564 c 0
 523 556 518 550 515 542 c 0x9c80
 514 538 516 532 517 527 c 1
 523 529 533 531 535 535 c 0
 539 546 540 559 543 573 c 1
327 310 m 0
 331 312 333 314 335 315 c 0
 342 319 349 322 356 325 c 1
 355 317 354 308 355 300 c 0
 356 296 363 289 365 290 c 0
 377 296 382 301 382 306 c 0
 382 316 365 326 362 335 c 0
 360 342 348 345 341 351 c 1
 334 340 328 330 322 319 c 0
 321 317 325 313 327 310 c 0
130 425 m 1
 134 422 139 418 143 415 c 1
 157 433 170 452 183 470 c 0
 184 472 182 477 181 480 c 1
 178 479 173 478 171 476 c 0
 157 459 144 442 130 425 c 1
107 431 m 1
 111 429 116 426 120 424 c 1
 130 442 141 460 151 478 c 1
 147 480 142 483 138 485 c 1
 128 467 117 449 107 431 c 1
203 646 m 1
 190 655 186 660 185 659 c 0
 172 649 160 638 148 627 c 0
 147 626 150 621 152 618 c 0
 167 626 181 634 203 646 c 1
113 640 m 1
 121 630 124 626 127 622 c 1
 137 633 148 645 158 656 c 0
 156 658 152 663 151 662 c 0
 139 656 128 649 113 640 c 1
105 709 m 1
 95 715 86 720 77 724 c 0
 75 725 71 720 68 718 c 1
 78 708 86 698 96 688 c 1
 98 693 100 698 105 709 c 1
379 261 m 1
 383 254 385 248 388 243 c 1
 393 249 402 255 403 262 c 0
 404 267 395 274 390 280 c 1
 386 274 383 268 379 261 c 1
473 465 m 1
 483 474 492 482 501 490 c 1
 498 492 494 498 493 497 c 0
 483 490 473 482 463 474 c 1
 465 472 468 470 473 465 c 1
107 336 m 1
 112 327 115 322 118 317 c 1
 124 325 128 333 134 341 c 1
 130 343 125 348 121 347 c 0
 116 346 113 341 107 336 c 1
231 419 m 1
 230 416 228 412 227 409 c 0
 237 404 246 399 256 394 c 1
 258 399 261 408 260 408 c 0xdc
 250 412 241 415 231 419 c 1
139 709 m 1
 155 725 l 1
 151 727 145 730 142 729 c 0
 135 726 130 721 124 717 c 1
 128 715 132 713 139 709 c 1
168 324 m 1
 174 334 179 340 182 347 c 0
 183 350 179 354 177 358 c 1
 171 351 164 345 158 337 c 0
 158 336 162 332 168 324 c 1
168 412 m 1
 162 403 156 397 151 390 c 1
 154 389 159 385 160 386 c 0
 168 390 174 396 181 401 c 1
 177 404 174 407 168 412 c 1
172 152 m 1
 169 153 166 154 163 155 c 0
 160 147 155 138 152 130 c 1
 156 128 160 127 164 125 c 1
 167 134 169 143 172 152 c 1
118 526 m 1
 115 515 113 509 113 502 c 0
 113 498 117 495 119 491 c 1
 123 498 128 504 130 511 c 0
 131 513 125 518 118 526 c 1
331 373 m 1
 323 377 316 382 314 381 c 0
 309 377 305 370 302 364 c 0
 301 362 306 359 308 356 c 1
 314 360 319 364 331 373 c 1
134 211 m 1
 130 212 124 215 123 214 c 0
 118 209 115 203 112 197 c 0
 111 195 116 191 118 188 c 1
 122 194 126 199 134 211 c 1
179 686 m 1
 187 699 190 704 192 709 c 0
 193 710 190 713 188 715 c 1
 184 710 179 705 176 700 c 0
 175 698 177 694 179 686 c 1
EndSplineSet
Validated: 1
EndChar

StartChar: S
Encoding: 83 83 50
Width: 513
Flags: W
HStem: 100 28<121.193 274.584> 460 33<168.098 284.578> 469 31<145 216 220.609 314.317> 720 24<186.891 287.978> 739 20G<415.5 431>
VStem: 20 21<200 227> 108 34<639.952 676.386> 436 22<635.281 708.812>
LayerCount: 2
Fore
SplineSet
20 207 m 1xa7
 20 221 20 234 20 248 c 0
 20 255 20 262 20 269 c 0
 20 274 26 284 27 284 c 0
 34 283 44 281 47 276 c 0
 72 231 95 185 121 140 c 0
 125 133 137 128 145 128 c 0
 150 128 155 128 160 128 c 0
 170 128 179 128 189 128 c 0
 234 128 278 130 316 155 c 0
 343 172 365 208 374 240 c 0
 381 264 385 287 385 309 c 0
 385 366 361 417 310 459 c 0
 302 466 288 469 275 469 c 0xa7
 269 469 263 469 258 467 c 0
 245 462 233 460 220 460 c 0
 194 460 169 468 145 475 c 0
 86 490 49 538 49 593 c 0
 49 609 52 627 59 644 c 0
 80 696 128 722 179 736 c 0
 198 741 218 744 237 744 c 0xd7
 268 744 299 736 329 719 c 0
 331 718 334 717 337 717 c 0
 346 717 357 721 362 725 c 0
 383 743 402 759 429 759 c 0x8f
 433 759 437 759 442 758 c 0
 448 757 458 749 458 743 c 0
 459 730 459 718 459 705 c 0
 459 687 459 669 458 652 c 0
 458 646 451 641 447 635 c 1
 444 641 438 647 437 653 c 0
 436 659 436 664 436 669 c 0
 436 675 436 681 436 687 c 0
 436 690 436 694 436 697 c 0
 436 701 433 705 431 709 c 1
 427 707 421 704 421 702 c 0
 421 686 422 671 423 655 c 0
 423 648 424 642 425 635 c 1
 418 636 410 634 404 638 c 0
 371 659 339 684 304 701 c 0
 280 713 256 720 233 720 c 0
 196 720 164 702 147 659 c 0
 143 650 142 639 142 628 c 0
 142 577 175 510 216 495 c 0
 220 494 224 493 228 493 c 0xd7
 239 493 251 497 262 498 c 0
 272 500 283 500 295 500 c 0
 361 500 443 475 476 416 c 0
 489 393 494 371 494 349 c 0
 494 326 489 304 481 281 c 0
 456 208 407 151 335 130 c 0
 282 115 227 100 171 100 c 0
 139 100 107 105 75 117 c 0
 70 119 65 122 60 121 c 0
 55 120 51 120 47 120 c 0
 24 120 20 133 20 150 c 0
 20 158 21 167 21 175 c 2
 21 207 l 1
 20 207 l 1xa7
443 346 m 1
 446 344 448 342 451 340 c 0
 457 348 469 358 467 364 c 0
 462 380 451 396 442 411 c 1
 434 399 423 388 418 375 c 0
 413 363 414 350 413 337 c 1
 421 348 430 359 439 369 c 0
 442 373 448 374 453 376 c 1
 453 370 456 365 454 360 c 0
 452 355 447 350 443 346 c 1
383 185 m 1
 389 189 396 191 399 195 c 0
 411 213 422 232 434 250 c 0
 438 256 442 263 445 269 c 1
 435 270 424 271 414 271 c 0
 410 271 405 266 404 263 c 0
 397 238 390 213 383 185 c 1
111 519 m 1
 126 512 139 507 152 502 c 0
 154 501 160 507 160 507 c 1
 149 522 137 538 126 553 c 1
 122 544 119 536 111 519 c 1
93 146 m 1
 82 161 73 174 63 187 c 1
 60 182 52 174 53 173 c 0
 63 161 74 150 85 139 c 1
 85 139 89 142 93 146 c 1
121 686 m 1
 113 668 107 654 101 640 c 1
 104 639 108 637 108 638 c 0
 114 652 120 665 126 679 c 1
 126 679 125 680 121 686 c 1
437 312 m 1
 435 314 433 317 431 319 c 1
 424 311 417 302 410 294 c 1
 410 294 412 291 413 289 c 1
 421 297 429 304 437 312 c 1
41 200 m 1
 45 200 l 1
 45 209 45 218 45 227 c 1
 41 227 l 1
 41 218 41 209 41 200 c 1
EndSplineSet
Validated: 1
EndChar

StartChar: T
Encoding: 84 84 51
Width: 595
Flags: W
HStem: 92 36<197.454 245.801 349.508 400.257> 102 26<183.948 244.836> 721 27<372.61 440.25> 735 16<148.506 236.249>
VStem: 247 15<164.252 211.523 248.784 265.162> 329 20<190.237 220> 524 52<698.188 734.594>
LayerCount: 2
Fore
SplineSet
350 609 m 1x2e
 350 458 350 308 349 157 c 0
 349 134 353 123 374 123 c 0
 376 123 379 123 382 123 c 0
 389 124 397 117 404 113 c 1
 395 106 387 95 378 94 c 0
 364 92 348 92 334 92 c 2xae
 291 93 l 2
 259 95 227 98 196 102 c 0x4e
 190 103 186 113 181 119 c 1
 187 122 195 128 201 128 c 0
 208 128 213 128 218 128 c 0
 247 128 246 133 247 173 c 0
 249 282 253 392 255 501 c 0
 255 514 249 527 246 540 c 0
 245 543 243 546 244 548 c 0
 257 575 260 603 260 631 c 0
 260 651 259 672 259 692 c 0
 259 696 259 701 259 705 c 0
 259 713 246 726 237 728 c 0
 221 732 204 735 187 735 c 0
 181 735 175 735 170 734 c 0
 149 730 128 717 111 703 c 0
 92 687 78 665 61 647 c 0
 56 642 46 634 42 636 c 0
 35 640 28 648 27 656 c 0
 23 681 20 707 20 732 c 0
 20 739 32 751 39 751 c 0x9e
 129 754 219 755 309 755 c 0
 337 755 364 748 392 748 c 0
 408 748 423 756 439 761 c 0
 442 762 448 765 449 764 c 0
 462 749 477 745 492 745 c 0
 508 745 524 749 540 749 c 0
 542 749 545 749 547 749 c 0
 566 747 576 744 576 728 c 0
 576 726 575 724 575 721 c 0
 572 696 571 671 570 646 c 0
 569 630 563 624 554 624 c 0
 550 624 545 625 540 628 c 0
 527 635 516 647 506 658 c 0
 488 677 473 704 451 714 c 0
 439 719 427 721 413 721 c 0
 399 721 385 719 372 717 c 0
 366 716 362 689 360 673 c 0
 359 666 359 659 359 652 c 0
 359 638 360 623 360 609 c 1
 350 609 l 1x2e
310 309 m 0
 312 307 314 304 316 302 c 1
 323 311 331 319 337 329 c 0
 338 331 328 342 326 341 c 0
 308 335 290 329 274 320 c 0
 270 318 271 306 270 299 c 1
 275 301 280 304 285 305 c 0
 293 307 302 308 310 309 c 0
296 624 m 1
 314 640 327 653 340 665 c 1
 331 668 319 676 312 673 c 0
 301 668 291 658 283 648 c 0
 282 646 288 637 296 624 c 1
307 735 m 1x1e
 297 724 289 717 284 708 c 0
 282 704 288 697 291 691 c 1
 305 699 320 706 334 714 c 1
 327 719 320 725 307 735 c 1x1e
263 186 m 0
 265 179 267 170 269 163 c 1
 281 180 292 197 304 214 c 0
 304 215 300 220 299 220 c 0
 283 216 262 217 262 195 c 0
 262 192 262 189 263 186 c 0
290 360 m 0
 292 358 292 356 294 354 c 0
 306 361 321 365 330 374 c 0
 336 380 334 393 336 403 c 1
 329 400 320 399 315 394 c 0
 305 384 298 371 290 360 c 0
289 114 m 1
 299 120 311 126 323 133 c 1
 317 136 310 143 305 142 c 0
 290 138 277 131 263 125 c 1
 270 122 277 119 289 114 c 1
329 220 m 1
 318 206 313 200 308 192 c 0
 303 184 300 176 296 167 c 1
 299 166 302 164 303 165 c 0
 312 173 322 180 329 190 c 0
 332 195 329 204 329 220 c 1
306 277 m 1
 304 277 303 277 301 277 c 0
 278 277 268 272 268 259 c 0
 268 253 270 246 273 237 c 1
 284 250 295 263 306 277 c 1
42 704 m 1
 47 693 49 685 53 677 c 1
 57 687 64 697 66 707 c 0
 67 712 58 718 53 723 c 1
 49 717 46 711 42 704 c 1
342 543 m 0
 343 548 344 552 345 557 c 1
 340 558 333 561 331 559 c 0
 320 550 311 539 301 529 c 1
 304 527 309 524 311 525 c 0
 322 530 332 537 342 543 c 0
298 587 m 0
 299 585 301 583 302 581 c 1
 312 586 323 589 331 596 c 0
 336 600 336 610 338 617 c 1
 332 615 325 615 321 611 c 0
 313 604 305 595 298 587 c 0
519 735 m 1
 514 731 510 728 505 724 c 0
 501 721 497 718 493 715 c 1
 500 709 508 704 515 698 c 1
 518 702 524 706 524 710 c 0
 524 718 521 727 519 735 c 1
549 697 m 1
 536 697 l 1
 536 686 536 675 537 664 c 0
 537 662 543 661 546 660 c 1
 547 672 548 685 549 697 c 1
342 447 m 1
 334 452 329 457 328 456 c 0
 322 451 317 445 311 439 c 1
 314 437 318 433 320 434 c 0
 327 437 332 441 342 447 c 1
297 393 m 1
 294 395 292 397 289 399 c 0
 282 390 276 380 269 371 c 0
 271 369 275 368 277 366 c 1
 284 375 290 384 297 393 c 1
307 555 m 1
 300 562 l 1
 294 555 287 547 281 540 c 1
 283 539 285 537 285 537 c 1
 292 543 300 549 307 555 c 1
315 488 m 1
 318 486 320 484 323 482 c 0
 328 488 332 493 337 499 c 1
 337 499 335 502 333 504 c 0
 327 499 321 493 315 488 c 1
EndSplineSet
Validated: 1
EndChar

StartChar: U
Encoding: 85 85 52
Width: 720
Flags: W
HStem: 100 32<292.319 392.156> 723 26<229.976 282.191>
VStem: 95 57<424.004 454.669> 105 20<547.281 590.395> 162 44<292.238 313.759> 196 26<501.051 549.532 695.144 711.537> 521 77<462.591 501.816> 529 84<555.495 710.499> 616 26<458.055 533.438 588.938 657.246>
LayerCount: 2
Fore
SplineSet
556 750 m 1xc180
 595 752 635 753 674 755 c 0
 675 755 675 755 676 755 c 0
 692 755 700 747 700 736 c 0
 700 732 699 727 697 722 c 0
 691 706 684 690 672 679 c 0
 647 656 643 628 642 597 c 0
 638 507 640 417 627 329 c 0
 620 286 589 243 561 207 c 0
 508 138 435 100 349 100 c 0
 345 100 340 100 336 100 c 0
 272 103 211 122 154 161 c 0
 94 202 92 264 67 319 c 0
 65 322 67 331 69 332 c 0
 92 339 95 354 95 370 c 0
 95 378 95 386 95 393 c 0
 95 396 95 399 95 401 c 0xe180
 101 458 97 516 104 573 c 0
 105 579 105 585 105 590 c 0
 105 640 72 669 38 701 c 0
 31 707 26 715 20 722 c 1
 29 730 38 742 47 743 c 0
 64 745 81 745 98 745 c 0
 107 745 115 745 124 745 c 0
 133 745 142 745 150 745 c 0
 189 746 229 748 268 749 c 0
 274 749 279 743 285 739 c 1
 279 733 273 721 268 722 c 0
 264 722 261 723 258 723 c 0
 225 723 223 699 222 669 c 0xd480
 219 554 222 437 208 323 c 0
 207 314 206 305 206 297 c 0
 206 235 238 195 281 156 c 0
 297 142 319 132 343 132 c 0
 374 132 407 149 434 192 c 0
 457 229 465 275 483 316 c 0
 512 382 519 451 521 522 c 0xca80
 523 582 528 641 529 701 c 0
 529 707 516 715 507 720 c 0
 493 727 479 732 464 738 c 1
 478 742 492 749 507 751 c 0
 512 752 518 752 523 752 c 0
 534 752 545 751 556 751 c 1
 556 750 l 1xc180
586 563 m 0
 588 561 591 559 593 557 c 1
 602 567 617 577 618 588 c 0
 620 608 621 629 621 649 c 0
 621 666 620 682 620 699 c 0
 620 706 612 713 607 720 c 1
 596 710 585 702 574 692 c 1
 577 690 580 686 582 686 c 0
 590 687 595 688 600 688 c 0
 610 688 613 685 613 681 c 0
 613 672 600 658 597 652 c 0
 587 632 571 614 558 595 c 1
 560 594 561 592 563 591 c 0
 578 599 592 607 617 620 c 1
 603 595 595 579 586 563 c 0
549 256 m 1
 489 251 472 205 450 158 c 1
 499 176 542 220 549 256 c 1
570 503 m 1
 588 500 598 496 598 485 c 0xc280
 598 481 597 476 594 471 c 0
 591 465 586 461 584 455 c 0
 582 451 583 446 582 441 c 1
 587 442 595 440 596 443 c 0
 604 458 613 474 616 491 c 0
 616 493 616 496 616 498 c 0
 616 510 613 522 611 534 c 1
 597 524 584 513 570 503 c 1
524 280 m 0
 526 277 529 276 531 273 c 1
 552 294 599 288 599 334 c 0
 599 338 599 343 598 349 c 1
 572 325 548 302 524 280 c 0
191 550 m 1
 178 529 166 509 153 488 c 1
 182 491 196 503 196 524 c 0xc480
 196 531 194 540 191 550 c 1
186 416 m 1
 171 395 159 377 141 353 c 1
 179 370 189 374 189 392 c 0
 189 398 188 406 186 416 c 1
115 693 m 1
 105 701 97 708 88 712 c 0
 86 713 79 708 75 705 c 1
 83 694 92 682 100 671 c 1
 104 677 108 681 115 693 c 1
202 448 m 1
 191 458 187 462 183 466 c 1
 173 454 162 442 152 430 c 0xe080
 152 429 157 424 157 424 c 1
 170 431 183 438 202 448 c 1
139 538 m 1
 131 520 124 509 120 497 c 0
 119 494 124 489 126 485 c 1
 135 498 144 510 152 523 c 0
 153 524 148 528 139 538 c 1
207 634 m 1
 200 648 198 653 195 659 c 1
 186 648 175 638 166 627 c 1
 169 625 173 620 176 621 c 0
 186 624 195 629 207 634 c 1
156 672 m 0
 158 670 160 668 162 666 c 0xc880
 174 676 187 684 198 695 c 0
 201 698 198 706 198 712 c 1
 193 711 186 711 183 708 c 0
 173 697 165 684 156 672 c 0
151 207 m 1
 173 217 183 223 183 232 c 0
 183 238 179 246 171 256 c 1
 165 240 159 226 151 207 c 1
129 275 m 1
 133 271 l 1
 142 278 153 283 160 292 c 0
 164 297 161 307 162 314 c 1
 157 311 150 308 147 304 c 0
 140 295 135 285 129 275 c 1
132 591 m 1
 129 578 125 571 125 564 c 0xd080
 125 558 129 553 131 547 c 1
 137 557 142 566 147 576 c 0
 148 577 142 582 132 591 c 1
617 409 m 1
 613 411 610 414 606 416 c 1
 598 404 589 392 581 380 c 1
 584 378 586 375 589 373 c 0
 598 385 608 397 617 409 c 1
572 381 m 1
 566 387 560 393 554 399 c 1
 547 390 539 382 532 373 c 0
 531 372 536 365 536 365 c 1
 548 370 560 375 572 381 c 1
228 151 m 0
 230 153 232 155 234 157 c 1
 225 165 217 172 208 179 c 1
 208 179 203 175 200 173 c 1
 209 166 219 158 228 151 c 0
127 682 m 1
 131 680 134 679 138 677 c 1
 142 688 147 699 151 710 c 1
 148 711 142 712 142 711 c 0
 137 701 132 692 127 682 c 1
116 321 m 1
 112 310 109 304 109 298 c 0
 109 295 113 291 115 287 c 1
 119 294 124 301 127 308 c 0
 128 310 122 314 116 321 c 1
108 363 m 1
 111 357 114 353 116 349 c 1
 120 356 124 363 127 370 c 0
 128 372 124 377 122 380 c 1
 118 375 113 369 108 363 c 1
533 430 m 0
 536 428 539 428 542 426 c 1
 548 436 553 446 559 456 c 0
 556 458 553 459 550 461 c 1
 544 451 539 440 533 430 c 0
646 698 m 1
 649 697 652 695 655 694 c 0
 658 702 661 711 664 719 c 1
 661 720 656 722 656 722 c 1
 652 714 649 706 646 698 c 1
200 600 m 0
 197 602 195 603 192 605 c 1
 187 597 182 590 177 582 c 1
 180 581 186 578 187 579 c 0
 192 586 196 593 200 600 c 0
123 614 m 1
 126 613 130 611 133 610 c 2
 146 636 l 1
 144 637 141 639 139 640 c 0
 134 632 128 622 123 614 c 1
537 319 m 1
 535 320 533 322 531 323 c 0
 523 312 515 300 507 289 c 1
 509 288 510 287 512 286 c 0
 520 297 529 308 537 319 c 1
EndSplineSet
Validated: 1
EndChar

StartChar: V
Encoding: 86 86 53
Width: 765
Flags: W
HStem: 488 17<531 558.737> 729 20G<59 84.5> 731 17<21.125 62.6243> 737 20G<629.5 656.5>
VStem: 176 17<547.781 577.219> 628 95<684.446 727.676> 682 41<664.374 678.998>
LayerCount: 2
Fore
SplineSet
562 670 m 1x9c
 552 680 539 692 530 705 c 0
 520 719 513 735 505 750 c 1
 524 752 542 756 561 756 c 0
 589 756 616 757 643 757 c 0
 670 757 697 756 725 756 c 0
 731 756 740 755 744 751 c 0
 747 748 746 740 745 735 c 0
 742 718 723 703 723 685 c 0
 723 679 726 672 732 664 c 1
 732 664 731 662 730 661 c 0
 679 634 671 577 650 532 c 0
 603 433 562 331 519 230 c 0
 503 193 492 153 470 120 c 0
 462 107 431 107 411 104 c 0
 408 104 405 104 402 104 c 0
 392 104 381 105 371 105 c 0
 365 105 360 105 354 103 c 0
 346 101 340 100 335 100 c 0
 308 100 309 127 302 151 c 0
 271 256 239 359 207 463 c 0
 204 473 200 484 198 494 c 0
 197 501 198 510 198 517 c 1
 204 511 213 505 216 498 c 0
 234 446 250 393 267 341 c 0
 285 287 302 232 321 178 c 0
 323 171 332 167 337 161 c 1
 339 167 341 174 344 180 c 0
 349 190 357 198 361 208 c 0
 382 258 401 308 422 358 c 0
 429 374 440 389 447 405 c 0
 483 483 519 562 554 641 c 0
 557 649 559 657 562 670 c 1x9c
480 218 m 1
 487 227 492 232 495 237 c 0
 504 255 511 273 519 291 c 0
 521 295 522 301 520 303 c 0
 506 320 492 338 477 354 c 0
 473 358 465 358 458 358 c 0
 457 358 453 351 454 348 c 0
 462 329 471 311 479 292 c 0
 482 284 483 276 485 268 c 1
 478 270 471 274 463 275 c 0
 455 276 448 275 440 275 c 1
 453 258 465 239 480 218 c 1
614 728 m 1
 610 714 601 700 601 692 c 0
 601 691 601 689 602 688 c 0
 616 665 636 645 654 625 c 0
 656 623 668 625 670 628 c 0
 676 638 682 647 682 655 c 0x8a
 682 663 676 671 662 679 c 0
 649 686 628 689 628 710 c 0
 628 712 628 715 629 718 c 0
 629 719 624 721 614 728 c 1
577 640 m 1
 590 621 603 599 619 580 c 0
 624 574 636 572 644 568 c 1
 645 577 648 588 648 596 c 0
 648 599 647 602 646 605 c 0
 636 623 621 639 607 655 c 0
 602 660 594 662 587 666 c 1
 584 659 582 653 577 640 c 1
450 147 m 1
 456 157 461 164 464 171 c 0
 466 176 468 181 468 187 c 0
 468 207 454 229 435 233 c 0
 427 234 417 231 410 226 c 0
 407 224 410 212 413 206 c 0
 424 187 436 169 450 147 c 1
488 385 m 1
 504 393 516 398 527 404 c 1
 515 418 502 432 490 446 c 1
 484 434 475 422 472 409 c 0
 471 403 482 394 488 385 c 1
546 588 m 1
 537 566 529 546 522 526 c 0
 520 520 523 508 526 507 c 0
 533 505 539 505 546 505 c 0
 551 505 556 505 560 505 c 1
 557 512 553 519 551 527 c 0
 549 535 546 549 548 550 c 0
 560 555 564 559 564 564 c 0
 564 572 553 579 546 588 c 1
515 387 m 1
 491 375 l 1
 505 359 520 345 534 329 c 1
 539 339 549 352 549 359 c 0
 549 372 524 381 515 387 c 1
531 488 m 1
 539 477 543 469 549 462 c 0
 559 451 569 441 580 431 c 1
 582 436 587 443 586 445 c 0
 576 460 564 474 552 487 c 0
 549 490 541 487 531 488 c 1
636 536 m 1
 618 556 604 572 590 587 c 0
 587 590 583 591 579 593 c 1
 578 589 575 582 577 580 c 0
 589 563 603 547 617 531 c 0
 619 529 628 533 636 536 c 1
523 459 m 1
 521 457 518 456 516 454 c 0
 529 435 542 416 556 397 c 0
 558 395 562 395 565 394 c 1
 566 398 570 404 568 406 c 0
 554 424 538 441 523 459 c 1
562 735 m 1
 553 730 549 728 544 726 c 1
 552 717 560 707 568 698 c 1
 573 704 582 712 581 715 c 0
 577 723 569 728 562 735 c 1
436 132 m 1
 437 135 439 138 440 141 c 0
 422 151 405 161 387 171 c 1
 385 167 383 162 381 158 c 1
 399 149 418 141 436 132 c 1
437 292 m 1
 443 300 448 304 447 306 c 0
 445 311 440 316 436 320 c 1
 433 316 428 313 428 309 c 0
 428 305 432 301 437 292 c 1
360 129 m 1
 366 133 371 136 375 139 c 1
 371 143 367 148 363 152 c 1
 360 148 356 144 354 139 c 0
 353 137 357 134 360 129 c 1
191 748 m 0xa8
 198 748 206 746 213 745 c 1
 211 736 212 723 207 719 c 0
 178 697 168 673 168 648 c 0
 168 623 178 596 188 569 c 0
 193 557 192 542 193 529 c 1
 187 540 180 552 176 564 c 0
 161 611 147 658 131 705 c 0
 128 712 117 720 109 722 c 0
 85 727 61 728 37 731 c 0
 31 732 26 736 20 739 c 1
 26 742 32 747 38 748 c 0xa8
 46 750 55 749 63 749 c 0xc8
 106 749 148 748 191 748 c 0xa8
162 727 m 1
 154 720 145 715 145 710 c 0
 145 705 154 699 159 694 c 1
 165 701 171 707 177 714 c 1
 173 718 169 721 162 727 c 1
EndSplineSet
Validated: 1
EndChar

StartChar: W
Encoding: 87 87 54
Width: 1026
Flags: W
HStem: 90 36<697.5 726.905> 100 20<209.235 253.689> 725 26<312.389 389.9 416.004 502.739> 740 20G<93.5 110.5>
VStem: 442 30<536.173 569> 727 42<134.898 165.096>
LayerCount: 2
Fore
SplineSet
722 90 m 1xac
 708 90 695 90 681 90 c 0xac
 667 90 654 90 640 91 c 0
 635 91 628 104 625 112 c 0
 622 118 624 127 622 133 c 0
 592 211 562 288 532 366 c 0
 530 371 528 377 525 381 c 0
 520 386 514 390 508 395 c 1
 505 389 500 384 498 378 c 0
 473 315 449 253 423 191 c 0
 419 182 417 174 417 166 c 0
 417 154 422 144 432 133 c 0
 438 126 442 119 442 113 c 0
 442 106 436 101 420 101 c 0
 355 100 290 100 225 100 c 0
 220 100 214 107 209 110 c 1
 214 114 218 119 224 120 c 0
 251 126 262 131 262 146 c 0
 262 154 259 164 254 178 c 0
 205 315 158 453 110 591 c 0
 95 633 83 676 66 718 c 0
 62 727 48 732 38 738 c 0
 33 741 26 744 20 746 c 1
 26 750 31 758 37 758 c 0
 60 760 82 760 105 760 c 0x5c
 116 760 127 758 138 757 c 0
 146 756 160 755 160 752 c 0
 161 743 159 732 156 723 c 0
 155 718 150 712 146 710 c 0
 120 696 111 677 111 658 c 0
 111 640 119 620 126 601 c 0
 170 478 214 355 259 233 c 0
 265 216 277 202 287 186 c 1
 296 202 307 217 314 234 c 0
 355 336 396 438 436 541 c 0
 439 549 442 558 442 567 c 0
 442 570 442 573 441 575 c 0
 426 622 408 669 390 715 c 0
 388 720 378 722 372 723 c 0
 358 724 343 723 329 725 c 0
 322 726 317 734 311 739 c 1
 318 743 325 751 332 751 c 0
 361 752 391 752 420 752 c 0
 501 752 583 752 664 751 c 0
 672 751 681 739 689 732 c 1
 681 729 672 727 664 723 c 0
 657 719 648 715 645 709 c 0
 613 639 582 568 550 498 c 0
 543 483 535 469 528 453 c 0
 525 445 522 437 522 429 c 0
 522 419 526 409 540 402 c 0
 546 399 549 390 552 383 c 0
 578 314 605 244 631 175 c 0
 634 167 640 160 645 152 c 1
 650 160 657 167 661 176 c 0
 713 300 764 425 816 550 c 0
 826 575 835 600 847 624 c 0
 853 636 856 646 856 655 c 0
 856 676 841 692 823 710 c 0
 818 716 815 724 811 731 c 1
 818 733 824 738 831 738 c 0
 878 739 925 739 972 739 c 0
 996 739 1007 735 1007 722 c 0
 1007 716 1004 707 999 696 c 0
 950 587 901 479 852 370 c 0
 826 313 801 255 776 197 c 0
 772 187 769 177 769 168 c 0
 769 155 775 143 793 133 c 0
 801 128 804 113 809 103 c 1
 800 99 792 93 783 92 c 0
 763 90 742 90 722 89 c 1
 722 90 l 1xac
458 725 m 0
 454 725 449 725 445 726 c 0
 440 727 437 727 433 727 c 0
 421 727 416 722 416 712 c 0
 416 707 417 701 420 693 c 0
 430 667 439 641 449 615 c 0
 451 611 455 608 458 604 c 1
 462 608 466 611 468 616 c 0
 475 632 480 650 488 665 c 0
 498 684 504 697 504 706 c 0
 504 720 490 724 458 725 c 0
862 612 m 1
 880 598 896 584 914 572 c 0
 915 571 927 586 932 595 c 0
 934 599 935 608 933 610 c 0
 922 619 909 626 897 633 c 0
 891 636 883 641 880 639 c 0
 874 635 871 627 862 612 c 1
385 149 m 1
 374 165 366 180 355 192 c 0
 348 200 337 204 327 210 c 1
 324 202 317 192 319 186 c 0
 323 177 334 171 341 163 c 0
 347 157 353 151 359 144 c 0
 363 140 366 134 369 129 c 1
 374 135 378 141 385 149 c 1
912 539 m 1
 894 554 878 568 861 581 c 0
 860 582 847 568 847 568 c 1
 862 550 878 532 893 514 c 1
 898 521 903 528 912 539 c 1
456 524 m 1
 451 518 445 513 442 507 c 0
 440 504 443 494 444 494 c 0
 446 494 448 494 449 494 c 0
 473 494 478 472 489 456 c 0
 493 451 503 450 510 450 c 0
 513 450 518 462 517 463 c 0
 498 483 478 503 456 524 c 1
536 513 m 1
 520 529 504 546 488 562 c 0
 484 566 477 567 472 569 c 1
 472 562 470 552 473 548 c 0
 487 532 503 517 518 502 c 0
 521 499 524 498 528 496 c 1
 530 501 533 506 536 513 c 1
598 661 m 1
 592 669 588 674 584 679 c 0
 574 690 564 700 554 710 c 0
 549 714 543 717 537 720 c 1
 536 710 530 695 534 691 c 0
 550 678 569 668 587 657 c 0
 589 656 592 659 598 661 c 1
573 599 m 1
 557 613 541 628 525 641 c 0
 519 646 511 647 504 650 c 1
 506 641 506 630 511 623 c 0
 522 609 537 598 550 586 c 0
 553 584 558 583 561 584 c 0
 564 586 567 590 573 599 c 1
914 714 m 1
 909 703 903 694 904 693 c 0
 918 680 934 667 949 655 c 1
 952 660 959 669 958 670 c 0
 945 684 931 697 914 714 c 1
845 388 m 1
 850 406 855 413 853 416 c 0
 843 431 831 446 818 458 c 0
 815 461 805 456 798 454 c 1
 812 435 825 416 845 388 c 1
735 299 m 1
 729 287 723 276 724 275 c 0
 735 265 748 256 761 248 c 0
 762 247 768 254 771 257 c 1
 760 270 749 282 735 299 c 1
765 217 m 1
 747 231 732 242 717 253 c 1
 713 248 710 242 706 237 c 1
 720 228 734 218 748 210 c 0
 750 209 756 214 765 217 c 1
749 337 m 1
 747 326 743 320 745 318 c 0
 759 304 774 289 789 276 c 0
 790 275 794 279 796 281 c 0
 782 298 768 315 749 337 c 1
600 735 m 1
 590 728 583 723 576 718 c 1
 584 708 592 699 600 689 c 1
 605 699 612 708 615 718 c 0
 616 721 607 728 600 735 c 1
693 185 m 1
 680 168 678 164 675 161 c 1
 690 149 705 138 720 126 c 0
 721 126 725 129 727 131 c 2
 727 134 l 1
 717 150 706 165 693 185 c 1
871 446 m 0
 855 466 841 486 825 505 c 0
 824 506 817 503 817 502 c 0
 817 498 819 493 821 490 c 0
 833 475 846 461 859 446 c 0
 861 443 864 441 867 439 c 0
 869 441 869 444 871 446 c 0
832 359 m 1
 821 365 812 368 804 373 c 0
 793 380 783 390 772 398 c 1
 779 388 787 378 793 367 c 0
 799 354 806 348 813 348 c 0
 819 348 826 352 832 359 c 1
319 118 m 1
 341 129 l 1
 331 136 321 144 310 150 c 0
 309 151 302 142 298 138 c 1
 305 131 312 125 319 118 c 1
511 564 m 1
 517 567 521 569 524 570 c 1
 518 580 512 591 505 600 c 0
 501 605 494 606 488 608 c 0
 487 608 483 603 483 602 c 0
 492 589 502 577 511 564 c 1
107 739 m 1
 100 733 92 729 91 723 c 0
 90 716 96 709 99 702 c 1
 107 710 116 718 124 726 c 1
 119 729 115 733 107 739 c 1
737 172 m 1
 739 175 740 177 742 180 c 1
 730 187 719 195 707 202 c 1
 706 200 704 197 703 195 c 0
 714 187 726 180 737 172 c 1
427 358 m 0
 429 360 431 363 433 365 c 1
 423 374 414 384 404 393 c 0
 402 391 400 388 398 386 c 1
 408 377 417 367 427 358 c 0
449 467 m 1
 442 473 437 479 434 478 c 0
 430 477 427 472 424 468 c 1
 427 466 430 461 433 461 c 0
 437 461 441 464 449 467 c 1
862 504 m 1
 861 502 859 500 858 498 c 0
 865 492 871 486 878 480 c 0
 880 482 880 484 882 486 c 1
 875 492 869 498 862 504 c 1
457 322 m 1
 443 325 430 327 416 330 c 1
 416 329 418 325 419 322 c 0
 421 311 422 299 424 288 c 1
 416 295 409 302 401 309 c 0
 399 311 397 315 395 316 c 0
 386 318 370 323 369 320 c 0
 360 303 354 285 348 267 c 0
 347 264 352 256 356 254 c 0
 361 251 369 250 375 248 c 1
 375 253 375 258 375 263 c 0
 375 272 374 282 373 291 c 1
 382 288 393 286 402 282 c 0
 408 279 411 271 417 269 c 0
 422 267 433 267 434 270 c 0
 443 287 449 305 457 322 c 1
457 322 m 1
 466 339 475 355 483 372 c 0
 485 376 488 385 486 387 c 0
 469 404 452 421 434 436 c 0
 429 440 419 437 412 437 c 1
 413 429 413 420 417 415 c 0
 428 403 443 394 452 381 c 0
 458 371 459 357 460 344 c 0
 461 337 458 329 457 322 c 1
EndSplineSet
Validated: 5
EndChar

StartChar: X
Encoding: 88 88 55
Width: 571
Flags: W
HStem: 92 34<183.719 211.895 236.003 391.781> 95 23<236.003 374.062> 108 26<455.062 542.845> 483 21G<362.5 365.5> 724 21<84.9375 153.049 250.371 329.995> 727 29<197.438 329.995 500.608 544.508> 740 20G<457.5 470.5>
VStem: 238 99<446.921 541.935> 330 17<690.4 708.253>
LayerCount: 2
Fore
SplineSet
241 756 m 1x15
 290 753 355 748 420 745 c 0x19
 429 745 439 752 449 756 c 0x15
 452 757 456 760 459 760 c 0
 482 758 506 756 529 752 c 0
 537 750 544 741 552 736 c 1
 545 731 537 723 530 723 c 0
 512 722 498 720 498 705 c 0
 498 701 499 696 501 690 c 0
 502 688 501 684 500 683 c 0
 453 650 451 594 426 549 c 0
 401 503 379 455 360 406 c 0
 357 398 356 389 356 379 c 0
 356 369 357 360 360 352 c 0
 389 282 420 215 453 147 c 0
 457 139 472 133 482 132 c 0
 485 132 487 132 490 132 c 2
 530 134 l 2
 535 134 539 125 544 120 c 1
 540 116 536 109 531 108 c 0x33
 477 102 423 95 369 93 c 0
 354 93 338 92 323 92 c 0x91
 275 92 227 94 179 95 c 0
 136 96 93 96 51 99 c 0
 40 100 30 111 20 117 c 1
 31 121 42 125 53 130 c 0
 63 135 75 139 79 147 c 0
 125 246 169 348 216 447 c 0
 228 473 238 498 238 524 c 0
 238 543 233 562 219 582 c 0
 198 613 175 647 168 683 c 0
 162 717 145 724 125 724 c 0x59
 117 724 108 723 99 722 c 0
 93 722 87 728 81 731 c 1
 87 736 93 745 99 746 c 0
 141 750 182 752 241 756 c 1x15
333 126 m 0x9080
 345 126 352 125 360 126 c 0x9080
 387 128 408 154 408 180 c 0
 408 186 407 192 404 198 c 0
 385 238 366 278 347 318 c 0
 344 325 337 330 332 336 c 1
 328 330 322 325 319 318 c 0
 292 258 266 199 239 139 c 0
 237 134 236 130 236 127 c 0
 236 121 240 118 248 118 c 0
 249 118 250 118 251 118 c 0x5080
 280 120 309 124 333 126 c 0x9080
241 727 m 0x1480
 236 728 232 728 228 728 c 0
 205 728 194 716 194 698 c 0
 194 688 197 677 204 665 c 0
 220 636 235 605 250 575 c 0
 253 569 258 565 262 560 c 1
 266 565 271 569 273 575 c 0
 289 611 304 648 319 684 c 0
 326 700 330 710 330 716 c 0
 330 724 323 726 308 726 c 0
 303 726 297 725 289 725 c 0
 286 725 283 725 280 725 c 0
 268 725 256 726 241 727 c 0x1480
391 511 m 1
 370 539 351 566 329 590 c 0
 326 594 311 588 302 586 c 1
 305 579 307 571 311 566 c 0
 329 544 348 522 366 499 c 0
 368 496 366 489 365 483 c 1
 360 485 353 486 349 490 c 0
 334 507 319 524 303 540 c 0
 298 545 289 544 281 545 c 1
 282 538 281 528 285 523 c 0
 298 507 313 492 327 478 c 0
 334 471 337 464 337 457 c 0x11
 337 444 328 432 323 420 c 0
 321 415 319 410 317 405 c 1
 312 407 305 410 301 413 c 0
 286 425 273 436 258 448 c 0
 253 452 247 454 241 457 c 1
 243 450 243 442 247 437 c 0
 268 413 291 391 313 368 c 0
 314 367 321 367 322 368 c 0
 344 414 366 460 391 511 c 1
178 172 m 1
 180 163 182 152 184 141 c 0
 185 136 183 126 184 126 c 0x90
 193 124 210 120 212 124 c 0
 231 159 246 195 263 231 c 0
 264 232 262 235 261 237 c 0
 240 263 218 288 196 313 c 0
 192 317 178 319 178 318 c 0
 175 310 169 298 169 291 c 0
 169 289 169 288 170 287 c 0
 179 275 195 269 207 259 c 0
 218 250 229 239 237 227 c 0
 240 222 236 212 236 204 c 1
 227 208 218 213 209 217 c 0
 206 218 204 219 197 222 c 1
 201 213 203 209 205 204 c 0
 210 189 214 173 219 158 c 1
 205 163 192 167 178 172 c 1
256 386 m 0
 254 385 253 384 251 383 c 0
 258 366 266 350 272 332 c 0
 275 322 274 311 275 300 c 1
 264 304 250 307 242 314 c 0
 232 323 228 339 218 349 c 0
 214 354 203 353 195 355 c 1
 197 349 198 340 202 336 c 0
 219 320 240 309 254 291 c 0
 266 277 271 269 276 269 c 0
 281 269 284 278 293 296 c 0
 298 306 302 315 306 325 c 0
 308 331 312 342 309 344 c 0
 292 359 274 372 256 386 c 0
361 628 m 0
 360 625 357 620 358 617 c 0
 369 594 381 571 393 548 c 0
 393 547 404 550 406 553 c 0
 407 554 407 555 407 557 c 0
 407 575 377 625 361 628 c 0
386 660 m 0
 382 676 379 691 375 706 c 0
 374 710 371 713 369 717 c 1
 365 715 359 713 356 709 c 0
 350 701 347 694 347 687 c 0x1080
 347 674 357 663 370 653 c 0
 374 650 379 649 383 647 c 1
 384 651 385 655 386 660 c 0
251 378 m 1
 243 392 236 405 228 419 c 1
 222 410 210 399 210 392 c 0
 210 381 232 369 240 362 c 1
 243 366 246 371 251 378 c 1
193 197 m 1
 183 220 178 237 170 251 c 0
 168 255 156 255 149 256 c 1
 149 247 146 235 150 230 c 0
 160 219 173 212 193 197 c 1
433 618 m 1
 423 632 413 647 402 662 c 0
 401 664 397 663 394 664 c 1
 393 661 391 657 392 654 c 0
 399 638 408 623 416 608 c 0
 417 605 422 605 425 603 c 1
 427 607 429 610 433 618 c 1
342 601 m 1
 346 603 350 605 354 607 c 1
 348 621 341 635 335 649 c 1
 331 646 325 642 325 641 c 0
 330 628 336 614 342 601 c 1
104 119 m 1
 111 124 115 128 120 131 c 1
 115 135 111 139 105 141 c 0
 102 142 95 135 95 132 c 0
 95 128 100 124 104 119 c 1
274 469 m 1
 277 471 280 472 283 474 c 1
 277 482 271 490 265 498 c 1
 260 495 l 1
 264 486 269 478 274 469 c 1
EndSplineSet
Validated: 1
EndChar

